<svg width="14" height="14" viewBox="0 0 14 14" fill="none" xmlns="http://www.w3.org/2000/svg">
<path fill-rule="evenodd" clip-rule="evenodd" d="M10.9601 0.316997C10.5304 0.383987 10.1732 0.552855 9.87908 0.828025C9.77044 0.929665 6.10832 5.07004 6.01559 5.19607C5.99436 5.22491 5.96738 5.27576 5.95562 5.30906C5.94388 5.34238 5.81693 5.91795 5.67352 6.5881C5.42602 7.74468 5.41276 7.8144 5.4124 7.96058C5.41195 8.14233 5.43578 8.24563 5.51576 8.40858C5.65093 8.68401 5.91627 8.90093 6.20988 8.97602C6.35325 9.01269 6.56255 9.01279 6.70516 8.97625C6.82024 8.94676 9.05774 8.24608 9.14816 8.21121C9.17896 8.19933 9.225 8.17588 9.25047 8.1591C9.30461 8.12343 13.1444 4.08813 13.2546 3.95112C13.4941 3.65331 13.6414 3.27375 13.678 2.86035C13.714 2.45295 13.6299 2.03544 13.4339 1.64834C13.0153 0.821893 12.1626 0.290383 11.2658 0.296935C11.1637 0.297677 11.0262 0.306707 10.9601 0.316997ZM11.1572 1.3047C11.0994 1.3101 11.0207 1.32232 10.9822 1.33186C10.8762 1.35811 10.6971 1.44631 10.6142 1.51309C10.533 1.57854 6.92106 5.66855 6.89326 5.72658C6.88377 5.74638 6.77063 6.25979 6.64183 6.86749C6.3734 8.13407 6.38153 8.02968 6.5555 7.9756C6.61085 7.95838 7.11509 7.80021 7.676 7.6241L8.69584 7.30389L10.5796 5.32224C11.8715 3.96324 12.4834 3.30986 12.5271 3.2428C12.5621 3.18903 12.6099 3.09138 12.6334 3.0258C12.6741 2.91171 12.6759 2.89722 12.6749 2.68958C12.674 2.49509 12.6699 2.4595 12.6357 2.34658C12.541 2.03442 12.3665 1.78203 12.1146 1.59297C11.8235 1.3745 11.4887 1.2737 11.1572 1.3047ZM5.24916 1.91519C4.59324 1.95302 3.19036 2.08479 2.72916 2.15189C2.24981 2.22163 1.81328 2.41109 1.4427 2.71021C1.34129 2.79206 1.12505 3.01015 1.04671 3.10958C0.881604 3.31911 0.701466 3.65086 0.624816 3.88658C0.537778 4.15419 0.519102 4.26183 0.4548 4.86658C0.202506 7.23953 0.202548 8.40383 0.455038 10.7676C0.512564 11.3062 0.542664 11.4867 0.609962 11.6965C0.855718 12.4626 1.449 13.0774 2.20416 13.3484C2.47549 13.4457 2.6129 13.4703 3.31016 13.5461C4.69372 13.6966 5.19513 13.7284 6.18716 13.7284C7.0663 13.7284 7.48186 13.7064 8.46216 13.6084C9.34253 13.5204 9.7193 13.474 9.89016 13.4326C10.6212 13.2554 11.2371 12.7758 11.589 12.1098C11.7177 11.8662 11.8065 11.602 11.8495 11.3346C11.9246 10.8678 12.0701 9.23969 12.0728 8.83558C12.074 8.65698 12.0706 8.625 12.0448 8.56958C12.0022 8.47824 11.8952 8.36652 11.811 8.32547C11.5983 8.22179 11.3725 8.26484 11.2129 8.43953C11.1064 8.55604 11.0909 8.6144 11.0657 8.99337C11.0038 9.92557 10.8888 11.0714 10.8355 11.2868C10.6862 11.8904 10.1982 12.3572 9.60052 12.4679C9.38226 12.5084 8.20436 12.6315 7.59416 12.6777C6.88093 12.7317 5.98605 12.7463 5.36116 12.7143C4.6843 12.6795 3.25724 12.5459 2.8024 12.4747C2.20092 12.3805 1.6728 11.8819 1.53189 11.2751C1.49837 11.1308 1.38419 10.052 1.33667 9.43058C1.29204 8.84714 1.2851 8.68473 1.27743 8.04458C1.26548 7.04782 1.30048 6.42765 1.44849 5.01358C1.50291 4.49362 1.52453 4.35618 1.57614 4.20177C1.70686 3.81077 2.01635 3.4646 2.39604 3.28474C2.6218 3.1778 2.73389 3.15607 3.47816 3.075C4.05822 3.0118 4.85973 2.94281 5.27716 2.92014C5.54516 2.9056 5.6474 2.86854 5.75834 2.74574C5.78806 2.71284 5.82887 2.65053 5.84901 2.60726C5.87977 2.54123 5.88561 2.50919 5.88529 2.40801C5.88495 2.30077 5.8799 2.27726 5.83952 2.19525C5.79216 2.09904 5.7039 2.00806 5.61271 1.96141C5.5586 1.93373 5.41895 1.90406 5.36208 1.90817C5.34233 1.90959 5.29151 1.91276 5.24916 1.91519Z" fill="#7986CB"/>
</svg>
