<svg viewBox="0 0 48 48" xmlns="http://www.w3.org/2000/svg"><path d="M4 21.5a20 20 0 1 0 40 0 20 20 0 1 0 -40 0Z" fill="#ffe500" stroke-width="1"></path><path d="M24 1.5a20 20 0 1 0 20 20 20 20 0 0 0 -20 -20Zm0 37a18.25 18.25 0 1 1 18.25 -18.25A18.25 18.25 0 0 1 24 38.5Z" fill="#ebcb00" stroke-width="1"></path><path d="M18 5.5a6 1.5 0 1 0 12 0 6 1.5 0 1 0 -12 0Z" fill="#fff48c" stroke-width="1"></path><path d="M8 45.5a16 1.5 0 1 0 32 0 16 1.5 0 1 0 -32 0Z" fill="#45413c" opacity=".15" stroke-width="1"></path><path d="M4 21.5a20 20 0 1 0 40 0 20 20 0 1 0 -40 0Z" fill="none" stroke="#45413c" stroke-linecap="round" stroke-linejoin="round" stroke-width="1"></path><path d="M23 28.27a2 2 0 0 1 1 -0.27 2 2 0 1 1 0 4 2 2 0 1 1 0 4 2 2 0 0 1 -1 -0.27" fill="none" stroke="#45413c" stroke-linecap="round" stroke-linejoin="round" stroke-width="1"></path><path d="M16.5 22 11 22" fill="none" stroke="#45413c" stroke-linecap="round" stroke-linejoin="round" stroke-width="1"></path><path d="M9.5 26.5c0 0.83 1.12 1.5 2.5 1.5s2.5 -0.67 2.5 -1.5S13.38 25 12 25s-2.5 0.67 -2.5 1.5Z" fill="#ffaa54" stroke-width="1"></path><path d="M13 17.16a11.43 11.43 0 0 0 3.37 -1.1A11.18 11.18 0 0 0 19.25 14" fill="none" stroke="#45413c" stroke-linecap="round" stroke-linejoin="round" stroke-width="1"></path><path d="m31.5 22 5.5 0" fill="none" stroke="#45413c" stroke-linecap="round" stroke-linejoin="round" stroke-width="1"></path><path d="M38.5 26.5c0 0.83 -1.12 1.5 -2.5 1.5s-2.5 -0.67 -2.5 -1.5S34.62 25 36 25s2.5 0.67 2.5 1.5Z" fill="#ffaa54" stroke-width="1"></path><path d="M35 17.16a11.43 11.43 0 0 1 -3.37 -1.1A11.18 11.18 0 0 1 28.75 14" fill="none" stroke="#45413c" stroke-linecap="round" stroke-linejoin="round" stroke-width="1"></path></svg>