<svg width="19" height="20" viewBox="0 0 19 20" fill="none" xmlns="http://www.w3.org/2000/svg">
<path d="M0.462278 17.0207C0.60641 18.4849 1.91063 19.6802 3.59452 19.7994C7.28047 20.0669 10.9857 20.0669 14.6716 19.7994C16.3555 19.6786 17.6597 18.4849 17.8038 17.0207C18.0271 14.7586 18.2661 12.4094 18.2661 10.0005C18.2661 7.59172 18.0271 5.2425 17.8038 2.9804C17.658 1.51615 16.3555 0.320909 14.6716 0.201691C10.9857 -0.0672302 7.28041 -0.0672302 3.59452 0.201691C1.91063 0.322438 0.60641 1.51615 0.462278 2.9804C0.239048 5.2425 0 7.59172 0 10.0005C0 12.4094 0.239048 14.7586 0.462278 17.0207Z" fill="#FFDFF1"/>
<path d="M6.97449 4.33161C6.064 4.26741 5.3697 3.6163 5.29764 2.82456C5.20624 1.80051 5.08671 1.2197 4.9707 0.114633C7.78304 -0.0382111 10.4829 -0.0382111 13.2952 0.114633C13.1775 1.21817 13.0597 1.80204 12.9665 2.82456C12.8962 3.6163 12.2002 4.26741 11.2897 4.33161C9.8255 4.43249 8.44042 4.43249 6.97449 4.33161Z" fill="#EF91CA"/>
<path fill-rule="evenodd" clip-rule="evenodd" d="M9.2441 8.88016C9.02476 9.056 8.92599 9.32776 8.98604 9.59009C9.07266 9.96837 9.13695 10.3401 9.17893 10.7086H6.11999C5.50144 10.7086 5 11.1714 5 11.7422C5 12.313 5.50144 12.7757 6.11999 12.7757H9.17904C9.13707 13.1446 9.07274 13.5167 8.98604 13.8953C8.92756 14.1507 9.01962 14.4157 9.22815 14.5921C9.43669 14.7685 9.73069 14.8301 10.0014 14.7543C11.5469 14.3208 12.4334 13.3734 12.9519 12.0564C13.011 11.9063 13.0158 11.7425 12.9655 11.5897C12.5093 10.2045 11.5165 9.23797 10.0419 8.7436C9.76885 8.65205 9.46344 8.70433 9.2441 8.88016Z" fill="#EF91CA"/>
</svg>
