<svg width="14" height="14" viewBox="0 0 14 14" fill="none" xmlns="http://www.w3.org/2000/svg">
<path fill-rule="evenodd" clip-rule="evenodd" d="M6.7499 1.45703C5.6021 1.45703 4.54368 1.48199 3.50716 1.53004C1.77785 1.61022 0.370912 2.92552 0.176226 4.59756C-0.058742 6.61556 -0.058742 8.34014 0.176226 10.3582C0.370912 12.0302 1.77785 13.3455 3.50716 13.4257C4.54368 13.4737 5.6021 13.4987 6.7499 13.4987C7.89771 13.4987 8.95613 13.4737 9.9926 13.4257C11.722 13.3455 13.1289 12.0302 13.3236 10.3582C13.5585 8.34014 13.5585 6.61556 13.3236 4.59756C13.1289 2.92552 11.722 1.61022 9.9927 1.53004C8.95613 1.48199 7.89771 1.45703 6.7499 1.45703Z" fill="#FFE0DB" fill-opacity="0.878431"/>
<path fill-rule="evenodd" clip-rule="evenodd" d="M4.75195 0.75C4.75195 0.335786 4.41617 0 4.00195 0C3.58774 0 3.25195 0.335786 3.25195 0.75V3C3.25195 3.41421 3.58774 3.75 4.00195 3.75C4.41617 3.75 4.75195 3.41421 4.75195 3V0.75ZM10.248 0.75C10.248 0.335786 9.9123 0 9.49805 0C9.08383 0 8.74805 0.335786 8.74805 0.75V3C8.74805 3.41421 9.08383 3.75 9.49805 3.75C9.9123 3.75 10.248 3.41421 10.248 3V0.75Z" fill="#FF7366"/>
<path fill-rule="evenodd" clip-rule="evenodd" d="M6.55927 10.4562C6.73063 10.3073 6.8078 10.0772 6.76088 9.85516C6.69321 9.53491 6.64298 9.22021 6.61019 8.9082L9 8.9082C9.48325 8.9082 9.875 8.51645 9.875 8.0332C9.875 7.54995 9.48325 7.1582 9 7.1582L6.6101 7.1582C6.64289 6.8459 6.69315 6.53091 6.76088 6.21031C6.80657 5.99411 6.73465 5.76981 6.57173 5.62041C6.40881 5.47111 6.17912 5.41891 5.96765 5.48311C4.76017 5.85011 4.06758 6.65219 3.66254 7.76717C3.61634 7.89427 3.61264 8.03292 3.65194 8.16231C4.00833 9.33503 4.78395 10.1533 5.93596 10.5718C6.14931 10.6493 6.38791 10.605 6.55927 10.4562Z" fill="#FF7366"/>
</svg>
