<svg width="14" height="14" viewBox="0 0 14 14" fill="none" xmlns="http://www.w3.org/2000/svg">
<g clip-path="url(#clip0_2846_16580)">
<path d="M11.8062 7.727C11.8062 7.777 11.8232 7.827 11.8542 7.867L12.5212 8.707C12.6419 8.85785 12.7144 9.04164 12.729 9.23433C12.7437 9.42702 12.6998 9.61964 12.6032 9.787L12.2112 10.463C12.1148 10.6303 11.9702 10.7647 11.7962 10.8485C11.6223 10.9324 11.4271 10.9618 11.2362 10.933L10.1732 10.773C10.1232 10.7658 10.0722 10.7753 10.0282 10.8L8.76817 11.527C8.72464 11.5527 8.69087 11.5921 8.67217 11.639L8.28017 12.639C8.21 12.8188 8.08725 12.9733 7.92795 13.0823C7.76865 13.1913 7.58019 13.2497 7.38717 13.25H6.60517C6.41226 13.2498 6.22389 13.1915 6.0646 13.0827C5.90531 12.9739 5.7825 12.8196 5.71217 12.64L5.32017 11.64C5.30165 11.5927 5.26786 11.5529 5.22417 11.527L3.96517 10.8C3.92123 10.775 3.87027 10.7651 3.82017 10.772L2.75717 10.934C2.56608 10.963 2.37068 10.9337 2.19654 10.8498C2.0224 10.766 1.87763 10.6315 1.78117 10.464L1.39117 9.787C1.29427 9.61984 1.25007 9.42733 1.26434 9.23464C1.27862 9.04196 1.3507 8.85806 1.47117 8.707L2.14117 7.867C2.17336 7.82743 2.19101 7.77801 2.19117 7.727V6.273C2.19117 6.223 2.17317 6.173 2.14117 6.133L1.47117 5.293C1.3507 5.14194 1.27862 4.95804 1.26434 4.76536C1.25007 4.57267 1.29427 4.38016 1.39117 4.213L1.78117 3.537C1.87763 3.36951 2.0224 3.23504 2.19654 3.15119C2.37068 3.06733 2.56608 3.03799 2.75717 3.067L3.81717 3.227C3.86716 3.23416 3.91811 3.22467 3.96217 3.2L5.22417 2.47C5.26781 2.44402 5.30159 2.40427 5.32017 2.357L5.71417 1.361C5.7844 1.18103 5.9073 1.02643 6.0668 0.917422C6.2263 0.808413 6.41498 0.750063 6.60817 0.75H7.39217C7.58507 0.750186 7.77345 0.808482 7.93274 0.917291C8.09202 1.0261 8.21484 1.18037 8.28517 1.36L8.67717 2.357C8.69517 2.406 8.72917 2.447 8.77317 2.473L10.0332 3.2C10.0771 3.22502 10.1281 3.23486 10.1782 3.228L11.2402 3.066C11.4313 3.03699 11.6267 3.06633 11.8008 3.15019C11.9749 3.23404 12.1197 3.36851 12.2162 3.536L12.6072 4.213C12.7039 4.38026 12.748 4.57282 12.7335 4.76551C12.7191 4.9582 12.6468 5.14205 12.5262 5.293L11.8562 6.133C11.8243 6.17271 11.807 6.22211 11.8072 6.273V7.727H11.8062Z" stroke="black" stroke-linecap="round" stroke-linejoin="round"/>
<path d="M6.99991 8.99591C8.27691 8.99591 8.99591 8.27691 8.99591 6.99991C8.99591 5.72291 8.27691 5.00391 6.99991 5.00391C5.72291 5.00391 5.00391 5.72291 5.00391 6.99991C5.00391 8.27691 5.72291 8.99591 6.99991 8.99591Z" stroke="black" stroke-linecap="round" stroke-linejoin="round"/>
</g>
<defs>
<clipPath id="clip0_2846_16580">
<rect width="14" height="14" fill="white"/>
</clipPath>
</defs>
</svg>
