<svg width="14" height="14" viewBox="0 0 14 14" fill="none" xmlns="http://www.w3.org/2000/svg">
<g clip-path="url(#clip0_2849_16639)">
<path fill-rule="evenodd" clip-rule="evenodd" d="M5.00195 1C5.00195 0.585786 4.66617 0.25 4.25195 0.25C3.83774 0.25 3.50195 0.585786 3.50195 1V1.80236C1.89107 1.99311 0.611241 3.25991 0.426226 4.8489C0.191258 6.8669 0.191258 8.59148 0.426226 10.6095C0.620912 12.2815 2.02785 13.5968 3.75716 13.677C4.79368 13.725 5.8521 13.75 6.9999 13.75C8.14771 13.75 9.20613 13.725 10.2426 13.677C11.972 13.5968 13.3789 12.2815 13.5736 10.6095C13.8085 8.59148 13.8085 6.8669 13.5736 4.8489C13.3886 3.25998 12.1088 1.99321 10.498 1.80239V1C10.498 0.585786 10.1623 0.25 9.74805 0.25C9.33383 0.25 8.99805 0.585786 8.99805 1V1.73531C8.35472 1.71749 7.69364 1.70837 6.9999 1.70837C6.30624 1.70837 5.64522 1.71749 5.00195 1.73531V1ZM3.26562 6.78394C3.26562 6.43876 3.54545 6.15894 3.89062 6.15894H4.09375C4.43893 6.15894 4.71875 6.43876 4.71875 6.78394C4.71875 7.12911 4.43893 7.40894 4.09375 7.40894H3.89062C3.54545 7.40894 3.26562 7.12911 3.26562 6.78394ZM3.26562 9.78394C3.26562 9.43876 3.54545 9.15894 3.89062 9.15894H4.15625C4.50143 9.15894 4.78125 9.43876 4.78125 9.78394C4.78125 10.1291 4.50143 10.4089 4.15625 10.4089H3.89062C3.54545 10.4089 3.26562 10.1291 3.26562 9.78394ZM6.35938 6.15894C6.0142 6.15894 5.73438 6.43876 5.73438 6.78394C5.73438 7.12911 6.0142 7.40894 6.35938 7.40894H10.1406C10.4858 7.40894 10.7656 7.12911 10.7656 6.78394C10.7656 6.43876 10.4858 6.15894 10.1406 6.15894H6.35938ZM5.71875 9.78394C5.71875 9.43876 5.99857 9.15894 6.34375 9.15894H7.14062C7.4858 9.15894 7.76562 9.43876 7.76562 9.78394C7.76562 10.1291 7.4858 10.4089 7.14062 10.4089H6.34375C5.99857 10.4089 5.71875 10.1291 5.71875 9.78394Z" fill="#B0B9C2"/>
</g>
<defs>
<clipPath id="clip0_2849_16639">
<rect width="14" height="14" fill="white"/>
</clipPath>
</defs>
</svg>
