<svg width="14" height="14" viewBox="0 0 14 14" fill="none" xmlns="http://www.w3.org/2000/svg">
<g clip-path="url(#clip0_2846_16556)">
<path fill-rule="evenodd" clip-rule="evenodd" d="M6.60736 0.25H7.39136C7.68469 0.2506 7.97106 0.339421 8.21324 0.504918C8.45542 0.670416 8.64222 0.904937 8.74936 1.178L9.10836 2.09L10.1984 2.719L11.1644 2.572C11.4549 2.52825 11.7519 2.57306 12.0166 2.7006C12.2814 2.82815 12.5015 3.03249 12.6484 3.287L13.0394 3.963C13.1867 4.21741 13.2537 4.51036 13.2318 4.80351C13.2098 5.09666 13.0999 5.37636 12.9164 5.606L12.3064 6.369V7.631L12.9124 8.394C13.0954 8.62389 13.205 8.90353 13.2269 9.19656C13.2489 9.48958 13.1821 9.78242 13.0354 10.037L12.6454 10.713C12.4984 10.9674 12.2782 11.1717 12.0136 11.2992C11.7489 11.4267 11.4519 11.4716 11.1614 11.428L10.1944 11.281L9.10336 11.911L8.74636 12.821C8.63938 13.0943 8.45265 13.329 8.21045 13.4947C7.96826 13.6604 7.68181 13.7493 7.38836 13.75H6.60536C6.31192 13.7493 6.02547 13.6604 5.78327 13.4947C5.54108 13.329 5.35434 13.0943 5.24736 12.821L4.89036 11.911L3.79936 11.281L2.83236 11.428C2.5419 11.4718 2.24497 11.4272 1.98027 11.2998C1.71556 11.1725 1.49536 10.9683 1.34836 10.714L0.958363 10.037C0.811073 9.78259 0.744013 9.48964 0.765959 9.19649C0.787905 8.90334 0.897835 8.62364 1.08136 8.394L1.69136 7.631V6.369L1.08136 5.606C0.897933 5.37634 0.787986 5.09672 0.765866 4.80363C0.743746 4.51054 0.81048 4.21759 0.957363 3.963L1.34736 3.287C1.49429 3.03232 1.71459 2.82785 1.97951 2.7003C2.24442 2.57275 2.54164 2.52803 2.83236 2.572L3.79636 2.719L4.89036 2.085L5.24936 1.178C5.35627 0.904779 5.54301 0.670105 5.78525 0.504572C6.02748 0.339039 6.31397 0.250326 6.60736 0.25ZM8.99436 7C8.99436 8.277 8.27536 8.996 6.99836 8.996C5.72136 8.996 5.00236 8.277 5.00236 7C5.00236 5.723 5.72136 5.004 6.99836 5.004C8.27536 5.004 8.99436 5.723 8.99436 7Z" fill="#B0B9C2"/>
</g>
<defs>
<clipPath id="clip0_2846_16556">
<rect width="14" height="14" fill="white"/>
</clipPath>
</defs>
</svg>
