<svg width="14" height="14" viewBox="0 0 14 14" fill="none" xmlns="http://www.w3.org/2000/svg">
<g clip-path="url(#clip0_2849_16627)">
<path d="M0.922871 10.5503C1.08882 11.9756 2.29222 13.1072 3.78031 13.1762C4.80886 13.2239 5.85956 13.2487 6.9999 13.2487C8.14025 13.2487 9.19094 13.2239 10.2195 13.1762C11.7076 13.1072 12.911 11.9756 13.0769 10.5503C13.3074 8.57073 13.3074 6.88496 13.0769 4.90539C12.911 3.48013 11.7076 2.3485 10.2195 2.27951C9.19095 2.23182 8.14025 2.20703 6.9999 2.20703C5.85956 2.20703 4.80886 2.23182 3.78031 2.27951C2.29222 2.3485 1.08882 3.48013 0.922871 4.90539C0.692376 6.88496 0.692377 8.57073 0.922871 10.5503Z" stroke="black" stroke-linecap="round" stroke-linejoin="round"/>
<path d="M4.25 0.75V3.5" stroke="black" stroke-linecap="round" stroke-linejoin="round"/>
<path d="M9.75 0.75V3.5" stroke="black" stroke-linecap="round" stroke-linejoin="round"/>
<path d="M6.25 6.78516H10.25" stroke="black" stroke-linecap="round" stroke-linejoin="round"/>
<path d="M6.25 9.78516H7.25" stroke="black" stroke-linecap="round" stroke-linejoin="round"/>
<path d="M3.75 6.78516H4.25" stroke="black" stroke-linecap="round" stroke-linejoin="round"/>
<path d="M3.75 9.78516H4.25" stroke="black" stroke-linecap="round" stroke-linejoin="round"/>
</g>
<defs>
<clipPath id="clip0_2849_16627">
<rect width="14" height="14" fill="white"/>
</clipPath>
</defs>
</svg>
