<svg width="14" height="14" viewBox="0 0 14 14" fill="none" xmlns="http://www.w3.org/2000/svg">
<g clip-path="url(#clip0_2848_16618)">
<path d="M1.75 1C1.75 0.585786 1.41421 0.25 1 0.25C0.585786 0.25 0.25 0.585786 0.25 1V10.888C0.25 12.3316 1.3696 13.538 2.82401 13.6149C4.05315 13.6799 5.68165 13.75 7 13.75C8.24114 13.75 9.75663 13.6879 10.9544 13.6265C11.5549 13.5957 12.0786 13.5649 12.4523 13.5418C12.6521 13.5294 12.8518 13.5167 13.0515 13.5031C13.4647 13.4747 13.7767 13.1166 13.7482 12.7033C13.7198 12.2901 13.3612 11.9782 12.9479 12.0067C12.7519 12.02 12.5558 12.0325 12.3597 12.0446C11.9901 12.0675 11.4718 12.098 10.8776 12.1284C9.6861 12.1895 8.20159 12.25 7 12.25C5.7229 12.25 4.1268 12.1817 2.90322 12.117C2.25814 12.0829 1.75 11.5468 1.75 10.888V1Z" fill="#B0B9C2"/>
<path fill-rule="evenodd" clip-rule="evenodd" d="M3.23871 2.36349C3.64641 2.29031 4.03624 2.56149 4.10942 2.96918C4.26533 3.83778 4.50216 4.55828 4.84102 5.06079C5.16043 5.53447 5.55658 5.80123 6.10885 5.84704C6.62695 5.89002 7.01102 5.6464 7.67906 5.22266L7.68584 5.21836C8.30662 4.8246 9.16633 4.29481 10.3499 4.52929C11.4965 4.75645 12.2279 5.49688 12.7011 6.35065C13.1613 7.18095 13.4108 8.17464 13.5978 9.03876C13.6854 9.4436 13.4282 9.8428 13.0233 9.93039C12.6185 10.018 12.2193 9.76078 12.1317 9.35594C11.9461 8.498 11.7325 7.6973 11.3891 7.07784C11.0588 6.48184 10.6461 6.11712 10.0584 6.00069C9.50769 5.89159 9.10532 6.09429 8.4893 6.48503C8.4501 6.50989 8.40965 6.53587 8.36793 6.56267C7.80858 6.92191 7.02084 7.42785 5.98485 7.34191C4.904 7.25224 4.12576 6.68305 3.59735 5.89942C3.08839 5.14464 2.80395 4.18648 2.63302 3.2342C2.55983 2.8265 2.83101 2.43667 3.23871 2.36349Z" fill="#B0B9C2"/>
</g>
<defs>
<clipPath id="clip0_2848_16618">
<rect width="14" height="14" fill="white"/>
</clipPath>
</defs>
</svg>
