<svg width="14" height="14" viewBox="0 0 14 14" fill="none" xmlns="http://www.w3.org/2000/svg">
<g clip-path="url(#clip0_2849_16636)">
<path fill-rule="evenodd" clip-rule="evenodd" d="M3.78107 0.716365C4.81515 0.601102 5.89421 0.5 7 0.5C8.10579 0.5 9.18485 0.601102 10.2189 0.716365C11.829 0.895825 13.1226 2.18836 13.2952 3.80131C13.3219 4.05113 13.3477 4.3035 13.3715 4.55817H0.628486C0.652271 4.3035 0.678098 4.05113 0.704826 3.80131C0.877392 2.18836 2.17105 0.895825 3.78107 0.716365ZM0.534049 5.80817C0.51264 6.20139 0.5 6.59894 0.5 7C0.5 7.57568 0.526044 8.14414 0.566683 8.70295H4.22761V5.80817H0.534049ZM0.67895 9.95295C0.687453 10.0351 0.696091 10.117 0.704826 10.1987C0.877393 11.8116 2.17105 13.1042 3.78107 13.2836C3.92902 13.3001 4.07788 13.3163 4.22761 13.332V9.95295H0.67895ZM5.47761 13.4432C5.97808 13.4782 6.48616 13.5 7 13.5C8.10579 13.5 9.18485 13.3989 10.2189 13.2836C11.829 13.1042 13.1226 11.8116 13.2952 10.1987C13.3039 10.117 13.3125 10.0351 13.321 9.95295H5.47761V13.4432ZM13.4333 8.70295C13.474 8.14414 13.5 7.57568 13.5 7C13.5 6.59894 13.4874 6.20139 13.466 5.80817H5.47761V8.70295H13.4333Z" fill="#B0B9C2"/>
</g>
<defs>
<clipPath id="clip0_2849_16636">
<rect width="14" height="14" fill="white"/>
</clipPath>
</defs>
</svg>
