<svg width="14" height="14" viewBox="0 0 14 14" fill="none" xmlns="http://www.w3.org/2000/svg">
<g clip-path="url(#clip0_2849_16642)">
<path fill-rule="evenodd" clip-rule="evenodd" d="M7.96429 0.920053C9.22473 -0.388963 11.4308 -0.288948 12.8609 1.14205C14.29 2.57215 14.3894 4.77661 13.0815 6.03656L7.62679 11.2912C7.50445 11.4091 7.30263 11.3732 7.22348 11.2229C6.2205 9.31838 4.66455 7.76545 2.79055 6.76546C2.64122 6.68578 2.60605 6.48479 2.72345 6.36287L7.96429 0.920053ZM1.70392 7.65406C1.60934 7.61187 1.49877 7.63474 1.42694 7.70934L1.37928 7.75884L1.37275 7.76578C1.32478 7.81735 1.28966 7.88082 1.27087 7.95206L0.0322351 12.6481C-0.167075 13.4037 0.59282 14.165 1.3488 13.967L6.04489 12.7373C6.12424 12.7165 6.19399 12.6755 6.24845 12.619L6.28986 12.5791C6.36431 12.5074 6.38722 12.3971 6.34529 12.3026C5.42368 10.2259 3.75761 8.57013 1.70392 7.65406Z" fill="#B0B9C2"/>
</g>
<defs>
<clipPath id="clip0_2849_16642">
<rect width="14" height="14" fill="white"/>
</clipPath>
</defs>
</svg>
