<svg width="14" height="14" viewBox="0 0 14 14" fill="none" xmlns="http://www.w3.org/2000/svg">
<g clip-path="url(#clip0_2846_16591)">
<path d="M4.98438 5.5V13.1557" stroke="black" stroke-linecap="round" stroke-linejoin="round"/>
<path d="M0.839844 9H13.1628" stroke="black" stroke-linecap="round" stroke-linejoin="round"/>
<path d="M0.959867 10.2685C1.114 11.7092 2.2727 12.8679 3.71266 13.0284C4.78221 13.1476 5.88037 13.25 7 13.25C8.11963 13.25 9.21779 13.1476 10.2873 13.0284C11.7273 12.8679 12.886 11.7092 13.0401 10.2685C13.1539 9.20502 13.25 8.11315 13.25 7C13.25 5.88684 13.1539 4.79498 13.0401 3.73147C12.886 2.29082 11.7273 1.13211 10.2873 0.971609C9.21779 0.852392 8.11963 0.75 7 0.75C5.88037 0.75 4.78221 0.852392 3.71266 0.971609C2.2727 1.13211 1.114 2.29082 0.959867 3.73147C0.846083 4.79498 0.75 5.88684 0.75 7C0.75 8.11315 0.846084 9.20502 0.959867 10.2685Z" stroke="black" stroke-linecap="round" stroke-linejoin="round"/>
<path d="M0.800781 5.5H13.1969C13.1581 4.90279 13.1012 4.31289 13.039 3.73147C12.8848 2.29082 11.7261 1.13211 10.2862 0.971609C9.21664 0.852392 8.11848 0.75 6.99885 0.75C5.87922 0.75 4.78105 0.852392 3.7115 0.971609C2.27155 1.13211 1.11285 2.29082 0.958718 3.73147C0.896513 4.31289 0.839598 4.90278 0.800781 5.5Z" stroke="black" stroke-linecap="round" stroke-linejoin="round"/>
</g>
<defs>
<clipPath id="clip0_2846_16591">
<rect width="14" height="14" fill="white"/>
</clipPath>
</defs>
</svg>
