<svg width="14" height="14" viewBox="0 0 14 14" fill="none" xmlns="http://www.w3.org/2000/svg">
<path fill-rule="evenodd" clip-rule="evenodd" d="M6.7499 1.45703C5.6021 1.45703 4.54368 1.48199 3.50716 1.53004C1.77785 1.61022 0.370912 2.92552 0.176226 4.59756C-0.058742 6.61556 -0.058742 8.34014 0.176226 10.3582C0.370912 12.0302 1.77785 13.3455 3.50716 13.4257C4.54368 13.4737 5.6021 13.4987 6.7499 13.4987C7.89771 13.4987 8.95613 13.4737 9.9926 13.4257C11.722 13.3455 13.1289 12.0302 13.3236 10.3582C13.5585 8.34014 13.5585 6.61556 13.3236 4.59756C13.1289 2.92552 11.722 1.61022 9.9927 1.53004C8.95613 1.48199 7.89771 1.45703 6.7499 1.45703Z" fill="#CDE4E4"/>
<path fill-rule="evenodd" clip-rule="evenodd" d="M4.75195 0.75C4.75195 0.335786 4.41617 0 4.00195 0C3.58774 0 3.25195 0.335786 3.25195 0.75V3C3.25195 3.41421 3.58774 3.75 4.00195 3.75C4.41617 3.75 4.75195 3.41421 4.75195 3V0.75ZM10.248 0.75C10.248 0.335786 9.9123 0 9.49805 0C9.08383 0 8.74805 0.335786 8.74805 0.75V3C8.74805 3.41421 9.08383 3.75 9.49805 3.75C9.9123 3.75 10.248 3.41421 10.248 3V0.75Z" fill="#469595"/>
<path fill-rule="evenodd" clip-rule="evenodd" d="M4.79102 5.40625C4.47116 5.40625 4.16334 5.43535 3.88062 5.46709L3.87905 5.46727C3.58393 5.50134 3.30905 5.6344 3.09925 5.84473C2.88945 6.05507 2.7571 6.33028 2.72377 6.62548L2.72347 6.6282C2.6933 6.90932 2.66602 7.21442 2.66602 7.53125C2.66602 7.84809 2.6933 8.15294 2.72347 8.43425L2.72377 8.43702C2.7571 8.73222 2.88945 9.00743 3.09925 9.21777C3.30905 9.4281 3.58393 9.56116 3.87905 9.59523L3.88067 9.59542C4.16357 9.62714 4.47115 9.65625 4.79102 9.65625C5.11087 9.65625 5.4187 9.62715 5.70141 9.59541L5.70298 9.59523C5.99811 9.56116 6.27298 9.4281 6.48278 9.21777C6.69258 9.00743 6.82493 8.73222 6.85826 8.43702L6.85856 8.43425C6.88873 8.15293 6.91602 7.84783 6.91602 7.53125C6.91602 7.21468 6.88873 6.90957 6.85857 6.62804L6.85826 6.62522C6.82493 6.33002 6.69258 6.05481 6.48278 5.84447C6.27298 5.63414 5.99811 5.50108 5.70298 5.46701L5.70044 5.46672C5.4187 5.43565 5.11095 5.40625 4.79102 5.40625Z" fill="#469595"/>
</svg>
