<svg xmlns="http://www.w3.org/2000/svg" fill="none" viewBox="0 0 14 14" id="Calendar-Mark--Streamline-Flex.svg"><desc>Calendar Mark Streamline Icon: https://streamlinehq.com</desc><g id="Calendar-Mark--Streamline-Flex.svg"><path id="Union" fill="#ede4ff" fill-rule="evenodd" d="M7.00004 1.98486c-0.50572 0 -1.41687 0.02627 -2.49662 0.10489V0.915039c0 -0.414214 -0.33579 -0.75 -0.75 -0.75 -0.41422 0 -0.75 0.335787 -0.75 0.75l0 1.322221C1.59081 2.50666 0.50735 3.67085 0.382704 5.1369 0.281302 6.32956 0.25 7.41512 0.25 7.91111c0 0.49591 0.031291 1.58026 0.132648 2.77199 0.132933 1.563 1.355692 2.7829 2.905222 2.9412 1.5898 0.1623 3.02514 0.2107 3.71216 0.2107 0.68703 0 2.12237 -0.0484 3.71217 -0.2107 1.5495 -0.1583 2.7723 -1.3782 2.9052 -2.9412 0.1013 -1.19175 0.1326 -2.27609 0.1326 -2.77199 0 -0.49597 -0.0313 -1.58153 -0.1327 -2.7742 -0.1248 -1.46845 -1.2116 -2.63404 -2.6276 -2.90096V0.915039c0 -0.414214 -0.3357 -0.75 -0.75 -0.75 -0.41417 0 -0.74995 0.335787 -0.74995 0.75V2.08925c-1.07673 -0.07823 -1.98508 -0.10439 -2.48971 -0.10439Z" clip-rule="evenodd" stroke-width="1"></path><path id="Union_2" fill="#9260f4" fill-rule="evenodd" d="M2.875 6.21436c0 -0.34518 0.27982 -0.625 0.625 -0.625H4c0.34518 0 0.625 0.27982 0.625 0.625 0 0.34517 -0.27982 0.625 -0.625 0.625h-0.5c-0.34518 0 -0.625 -0.27983 -0.625 -0.625Zm0 3c0 -0.34518 0.27982 -0.625 0.625 -0.625H4c0.34518 0 0.625 0.27982 0.625 0.625 0 0.34517 -0.27982 0.625 -0.625 0.625h-0.5c-0.34518 0 -0.625 -0.27983 -0.625 -0.625Zm3.875 -3.625c-0.34518 0 -0.625 0.27982 -0.625 0.625 0 0.34517 0.27982 0.625 0.625 0.625h0.5c0.34518 0 0.625 -0.27983 0.625 -0.625 0 -0.34518 -0.27982 -0.625 -0.625 -0.625h-0.5Zm2.625 0.625c0 -0.34518 0.27982 -0.625 0.625 -0.625h0.5c0.3452 0 0.625 0.27982 0.625 0.625 0 0.34517 -0.2798 0.625 -0.625 0.625H10c-0.34518 0 -0.625 -0.27983 -0.625 -0.625Zm-2.625 2.375c-0.34518 0 -0.625 0.27982 -0.625 0.625 0 0.34517 0.27982 0.625 0.625 0.625h0.5c0.34518 0 0.625 -0.27983 0.625 -0.625 0 -0.34518 -0.27982 -0.625 -0.625 -0.625h-0.5Z" clip-rule="evenodd" stroke-width="1"></path></g></svg>