<svg xmlns="http://www.w3.org/2000/svg" viewBox="0 0 14 14" version="1.1">
	<path d="M6.1530000000000005 0.26656C5.347048 0.305578 3.907918 0.43035999999999996 3.486 0.497798C2.897398 0.591878 2.344412 0.833434 1.841 1.216334C1.660162 1.35387 1.33882 1.675576 1.199786 1.858262C0.850094 2.3177000000000003 0.6216280000000001 2.818102 0.51093 3.367C0.44639 3.687012 0.33994800000000003 4.83721 0.277074 5.894C0.253302 6.293518 0.253302 7.706481999999999 0.277074 8.106C0.33994800000000003 9.162790000000001 0.44639 10.312988 0.51093 10.633000000000001C0.575988 10.955588 0.661822 11.207168 0.81186 11.515C0.9927819999999999 11.886224 1.2028100000000002 12.178992000000001 1.504902 12.481098C1.9867820000000003 12.962964000000001 2.556848 13.285720000000001 3.2081560000000002 13.445432C3.418338 13.496966 3.562916 13.517686 4.095 13.572524C6.36643 13.806604 7.634368 13.80645 9.912 13.571796C10.424764 13.518974 10.62663 13.488902000000001 10.83803 13.433882C11.474274000000001 13.268276 12.023998 12.952183999999999 12.495097999999999 12.481098C13.011446000000001 11.964736 13.34641 11.341876000000001 13.488972 10.633000000000001C13.554646 10.306464 13.661059999999999 9.15306 13.722772 8.099C13.746516 7.693434 13.746642000000001 6.309828 13.722968 5.901C13.683698000000001 5.222742 13.619606 4.438868 13.551258 3.801C13.493522 3.262084 13.39779 2.915136 13.18814 2.485C12.68652 1.455804 11.715914 0.718074 10.591742 0.511574C10.344628 0.46617200000000003 9.614052 0.392336 8.645 0.31479C8.02382 0.26509 6.709024 0.23963800000000002 6.1530000000000005 0.26656M6.503 1.2607C5.835382 1.278606 5.035772 1.336762 4.095 1.435826C3.703294 1.4770699999999999 3.6242639999999997 1.4889839999999999 3.441998 1.534218C3.081414 1.62372 2.73903 1.79004 2.443 2.019514C2.4045 2.049348 2.3076760000000003 2.137954 2.2278480000000003 2.216382C2.011884 2.42858 1.8607820000000002 2.634338 1.731702 2.892008C1.53566 3.283322 1.487822 3.4841240000000004 1.415036 4.221C1.203202 6.36573 1.2032580000000002 7.6181 1.415274 9.779C1.487402 10.51414 1.535534 10.716398 1.7314360000000002 11.107488000000002C1.8612860000000002 11.366698000000001 2.019836 11.581248 2.241358 11.797519999999999C2.313766 11.868206 2.4045 11.950498 2.443 11.980388C2.73791 12.2094 3.081316 12.376252000000001 3.441998 12.465782C3.6242639999999997 12.511016 3.703294 12.52293 4.095 12.564174000000001C6.365226 12.803224 7.634774 12.803224 9.905 12.564174000000001C10.296706 12.52293 10.375736 12.511016 10.558002 12.465782C10.918683999999999 12.376252000000001 11.262089999999999 12.2094 11.557 11.980388C11.5955 11.950498 11.686234 11.868206 11.758642 11.797519999999999C11.980542000000002 11.580884000000001 12.139134 11.366152000000001 12.268214 11.107586C12.465432 10.71252 12.512542000000002 10.514798 12.584726 9.779C12.773292000000001 7.857094 12.790722 6.677118 12.655230000000001 5.005C12.609702 4.443138 12.544266 3.79939 12.515776 3.633C12.355882 2.699312 11.698637999999999 1.9221020000000002 10.801 1.605212C10.521686 1.50661 10.381238000000002 1.482348 9.695 1.414126C8.79424 1.324568 8.12714 1.2793619999999999 7.42 1.259944C7.15435 1.252664 6.9244 1.247568 6.909 1.248632C6.8936 1.249696 6.7109000000000005 1.255128 6.503 1.2607M9.319968 4.03151C9.21459 4.072684 9.083998 4.1885900000000005 8.60174 4.6690000000000005C7.984255999999999 5.284118 7.670698000000001 5.657386 7.284550000000001 6.237C7.035406 6.610982000000001 6.867406 6.907334 6.637764 7.378C6.484044 7.693042000000001 6.28201 8.15437 6.17946 8.424472000000002C6.149514 8.50339 6.1208 8.56639 6.115648 8.564472C6.11051 8.562567999999999 5.832288 8.2775 5.497380000000001 7.931C5.162458 7.5845 4.856978000000001 7.274903999999999 4.818534 7.242998C4.716222 7.158116 4.610284 7.122318000000001 4.48 7.128646000000001C4.294066 7.137648 4.134284 7.239694 4.052104 7.401884000000001C4.01478 7.475538 4.011 7.49588 4.011 7.623C4.011 7.851634000000001 3.9805360000000003 7.811748 4.805528 8.663298000000001C5.91066 9.804018000000001 6.014932 9.907436 6.10386 9.951116C6.172096 9.984632 6.197156 9.989 6.321 9.989C6.4423379999999995 9.989 6.470338 9.984338000000001 6.531 9.954C6.569500000000001 9.934750000000001 6.6327799999999995 9.887500000000001 6.671616 9.849C6.751080000000001 9.770222 6.768202 9.7335 6.909756 9.338000000000001C7.1057559999999995 8.790432000000001 7.320180000000001 8.271186 7.53046 7.834876C8.038772 6.780214 8.598366 6.037654000000001 9.589664 5.102412C9.975742 4.738174 9.989 4.718196 9.989 4.501C9.989 4.3860600000000005 9.983456 4.348988 9.958018000000001 4.293898C9.911832 4.19384 9.782178 4.07106 9.68387 4.034282C9.579178 3.9951100000000004 9.416274 3.9938640000000003 9.319968 4.03151" stroke="none" fill="#03a9f4" fill-rule="evenodd"></path>
</svg>