<svg width="48" height="44" viewBox="0 0 48 44" fill="none" xmlns="http://www.w3.org/2000/svg">
<path d="M24.0005 0.179688C24.2995 0.179688 24.5922 0.180787 24.8786 0.182887C28.9951 0.212087 32.4363 1.67349 34.9117 4.15409C37.3118 6.55839 38.7752 9.89299 39.093 13.7346C44.165 15.4939 47.5205 19.9052 47.5205 25.7904C47.5205 29.5264 46.1678 32.6812 43.8597 34.9381C42.505 36.2625 40.8314 37.2681 38.9289 37.9016C41.0088 34.4555 38.5782 30.0502 34.5539 29.972C34.1694 29.9645 33.7853 29.9995 33.4085 30.0763V22.6544C33.4085 18.6309 29.0529 16.1162 25.5685 18.128C24.9573 18.4808 24.4239 18.9538 24.0005 19.5184C22.0919 16.9744 18.3728 16.7104 16.1239 18.9591L9.85187 25.2311C7.00647 28.0758 8.30747 32.934 12.1938 33.9758C12.9769 34.1858 13.7981 34.2107 14.5925 34.0485V38.7138C14.1917 38.7007 13.791 38.6861 13.3904 38.6699C9.67737 38.5226 6.44727 37.1929 4.14127 34.9381C1.83317 32.6812 0.480469 29.5264 0.480469 25.7904C0.480469 19.9041 3.83597 15.4939 8.90797 13.7346C9.22577 9.89189 10.6892 6.55829 13.0893 4.15409C15.5647 1.67349 19.0059 0.212087 23.1224 0.182887C23.4088 0.180787 23.7015 0.179688 24.0005 0.179688Z" fill="#DCF4FF"/>
<path fill-rule="evenodd" clip-rule="evenodd" d="M11.8842 30.5894C10.9657 29.6709 10.9657 28.1817 11.8842 27.2632L18.1562 20.9912C19.4365 19.7109 21.6226 20.2966 22.0912 22.0455C22.1444 22.2441 22.1714 22.4487 22.1714 22.6543V41.4703C22.1714 43.2809 20.2114 44.4125 18.6434 43.5072C17.9157 43.087 17.4674 42.3106 17.4674 41.4703V28.3325L15.2105 30.5894C14.292 31.5079 12.8027 31.5079 11.8842 30.5894Z" fill="#4FC3F7"/>
<path fill-rule="evenodd" clip-rule="evenodd" d="M36.1173 33.5372C37.0358 34.4557 37.0358 35.9449 36.1173 36.8634L29.8453 43.1354C28.565 44.4157 26.3789 43.83 25.9103 42.0811C25.8571 41.8825 25.8301 41.6778 25.8301 41.4723V22.6563C25.8301 20.8457 27.7901 19.7141 29.3581 20.6194C30.0858 21.0395 30.5341 21.816 30.5341 22.6563V35.794L32.791 33.5372C33.7095 32.6186 35.1987 32.6186 36.1173 33.5372Z" fill="#4FC3F7"/>
</svg>
