<svg width="13" height="14" viewBox="0 0 13 14" fill="none" xmlns="http://www.w3.org/2000/svg">
<path fill-rule="evenodd" clip-rule="evenodd" d="M10.782 3.58059C10.813 3.61559 10.853 3.64059 10.898 3.65359C11.5469 3.80208 12.1195 4.18172 12.509 4.72159C12.8947 5.25651 13.0666 5.91626 12.9909 6.57138C12.9152 7.2265 12.5975 7.82969 12.1 8.26259C11.493 8.79759 10.651 9.18859 9.69196 9.44259C9.41808 9.23878 9.09375 9.11361 8.75396 9.08059V8.05859C8.75396 7.46185 8.51691 6.88956 8.09495 6.4676C7.67299 6.04564 7.1007 5.80859 6.50396 5.80859C5.90722 5.80859 5.33493 6.04564 4.91297 6.4676C4.49101 6.88956 4.25396 7.46185 4.25396 8.05859V9.09059C3.98996 9.12859 3.73396 9.22259 3.50596 9.36859C2.54296 9.09859 1.69896 8.69959 1.09396 8.18159C0.778913 7.91307 0.520527 7.58447 0.333893 7.21498C0.147259 6.84549 0.0361171 6.44251 0.0069585 6.02959C-0.0207251 5.61711 0.0343747 5.20325 0.169016 4.81238C0.303657 4.42151 0.515119 4.06152 0.790958 3.75359C1.06796 3.44359 1.40396 3.18959 1.78096 3.00659C2.1586 2.8234 2.56814 2.71508 2.98696 2.68759C3.03013 2.68836 3.07265 2.67707 3.10975 2.65498C3.14685 2.6329 3.17705 2.6009 3.19696 2.56259C3.4895 1.73553 4.05808 1.03452 4.80696 0.577591C5.56121 0.11698 6.44838 -0.076744 7.32598 0.0275376C8.20358 0.131819 9.02066 0.528053 9.64596 1.15259C10.2616 1.77277 10.6426 2.58754 10.724 3.45759C10.7306 3.50357 10.7504 3.54664 10.781 3.58159L10.782 3.58059Z" fill="#E8E5F3"/>
<path fill-rule="evenodd" clip-rule="evenodd" d="M2.99414 2.68762L3.03114 2.68863C3.51414 2.68863 3.98714 2.84862 4.37914 3.09462C4.77914 3.34462 5.04714 3.65163 5.15914 3.88963C5.23339 4.03303 5.36026 4.14213 5.51316 4.19406C5.66607 4.246 5.83314 4.23673 5.97937 4.16821C6.1256 4.09968 6.23962 3.97722 6.29756 3.82649C6.35549 3.67575 6.35283 3.50844 6.29014 3.35963C6.05214 2.85263 5.59214 2.37963 5.04214 2.03463C4.64945 1.78814 4.21655 1.61248 3.76314 1.51562C3.51962 1.83239 3.3279 2.18578 3.19514 2.56262C3.17664 2.59993 3.14814 2.63136 3.11283 2.65343C3.07752 2.6755 3.03678 2.68734 2.99514 2.68762H2.99414Z" fill="#3D3270"/>
<path fill-rule="evenodd" clip-rule="evenodd" d="M6.39453 13.5796C6.49453 13.6046 6.59853 13.6046 6.69753 13.5796C7.33453 13.4206 7.93753 13.0366 8.38153 12.5926C8.80553 12.1676 9.19753 11.5726 9.19753 10.9476C9.19765 10.8525 9.17607 10.7587 9.13444 10.6732C9.09281 10.5877 9.03222 10.5128 8.9573 10.4543C8.88237 10.3958 8.79508 10.3551 8.70206 10.3354C8.60904 10.3157 8.51276 10.3175 8.42053 10.3406L7.50353 10.5706V8.05859C7.50353 7.79338 7.39817 7.53902 7.21064 7.35149C7.0231 7.16395 6.76875 7.05859 6.50353 7.05859C6.23832 7.05859 5.98396 7.16395 5.79643 7.35149C5.60889 7.53902 5.50353 7.79338 5.50353 8.05859V10.5486L4.67153 10.3396C4.57931 10.3165 4.48302 10.3147 4.39 10.3344C4.29699 10.3541 4.20969 10.3948 4.13477 10.4533C4.05984 10.5118 3.99925 10.5867 3.95762 10.6722C3.91599 10.7577 3.89442 10.8515 3.89453 10.9466C3.89453 11.5716 4.28653 12.1666 4.71153 12.5916C5.15553 13.0356 5.75753 13.4196 6.39453 13.5786V13.5796Z" fill="#3D3270"/>
</svg>
