<svg width="48" height="42" viewBox="0 0 48 42" fill="none" xmlns="http://www.w3.org/2000/svg">
<path fill-rule="evenodd" clip-rule="evenodd" d="M20.7386 2.14985C22.1662 -0.36245 25.7846 -0.36245 27.2133 2.14985L33.49 13.1904C36.2429 11.4658 39.3195 9.38045 41.6637 7.75695C44.2293 5.98015 47.819 7.94115 47.5007 11.1539C46.8748 17.4498 45.56 29.0003 43.664 36.7557C43.3415 38.0768 42.5036 39.5171 40.8333 40.0846C38.6425 40.8298 33.9637 41.7346 23.976 41.7346C14.2288 41.7346 9.53938 40.8723 7.28568 40.141C5.47588 39.5523 4.60298 37.9714 4.30068 36.5406C2.45358 27.8123 1.15168 17.1783 0.504379 11.2295C0.153079 8.01245 3.74818 5.99935 6.33608 7.79105C8.67498 9.40915 11.7281 11.4786 14.4619 13.1905L20.7397 2.14985H20.7386Z" fill="#FFE18D"/>
<path fill-rule="evenodd" clip-rule="evenodd" d="M23.9753 33.7519C25.5721 33.7519 30.3626 26.8322 30.3626 25.2353C30.3626 23.6384 25.5721 16.7188 23.9753 16.7188C22.3785 16.7188 17.5879 23.6385 17.5879 25.2353C17.5879 26.8321 22.3784 33.7519 23.9753 33.7519Z" fill="#FFBF00"/>
</svg>
