<svg width="48" height="48" viewBox="0 0 48 48" fill="none" xmlns="http://www.w3.org/2000/svg">
<path d="M4.4165 21.5521C4.4165 24.1238 4.92304 26.6703 5.9072 29.0463C6.89135 31.4223 8.33385 33.5811 10.1523 35.3996C11.9708 37.2181 14.1297 38.6606 16.5056 39.6447C18.8816 40.6289 21.4281 41.1354 23.9998 41.1354C26.5716 41.1354 29.1181 40.6289 31.4941 39.6447C33.87 38.6606 36.0289 37.2181 37.8473 35.3996C39.6658 33.5811 41.1083 31.4223 42.0925 29.0463C43.0766 26.6703 43.5832 24.1238 43.5832 21.5521C43.5832 18.9804 43.0766 16.4338 42.0925 14.0579C41.1083 11.6819 39.6658 9.52306 37.8473 7.70458C36.0289 5.88609 33.87 4.4436 31.4941 3.45944C29.1181 2.47529 26.5716 1.96875 23.9998 1.96875C21.4281 1.96875 18.8816 2.47529 16.5056 3.45944C14.1297 4.4436 11.9708 5.88609 10.1523 7.70458C8.33385 9.52306 6.89135 11.6819 5.9072 14.0579C4.92304 16.4338 4.4165 18.9804 4.4165 21.5521Z" fill="#FFE7D9"/>
<path d="M19.104 31.3437C20.5532 30.3755 22.2569 29.8586 23.9998 29.8586C25.7427 29.8586 27.4465 30.3755 28.8957 31.3437" stroke="#45413C" stroke-width="0.5" stroke-linecap="round"/>
<path d="M15.1873 21.5522C15.1873 21.7458 15.1299 21.9351 15.0223 22.0962C14.9147 22.2572 14.7618 22.3827 14.5829 22.4568C14.404 22.5309 14.2071 22.5503 14.0171 22.5125C13.8272 22.4747 13.6527 22.3815 13.5158 22.2445C13.3789 22.1076 13.2856 21.9331 13.2478 21.7432C13.21 21.5533 13.2294 21.3564 13.3035 21.1775C13.3776 20.9985 13.5032 20.8456 13.6642 20.738C13.8252 20.6304 14.0145 20.573 14.2082 20.573C14.4679 20.573 14.7169 20.6762 14.9005 20.8598C15.0842 21.0434 15.1873 21.2925 15.1873 21.5522Z" fill="#45413C" stroke="#45413C" stroke-width="0.5" stroke-linecap="round" stroke-linejoin="round"/>
<path d="M32.8125 21.5522C32.8125 21.7458 32.8699 21.9351 32.9775 22.0962C33.0851 22.2572 33.238 22.3827 33.417 22.4568C33.5959 22.5309 33.7928 22.5503 33.9827 22.5125C34.1726 22.4747 34.3471 22.3815 34.484 22.2445C34.621 22.1076 34.7142 21.9331 34.752 21.7432C34.7898 21.5533 34.7704 21.3564 34.6963 21.1775C34.6222 20.9985 34.4967 20.8456 34.3357 20.738C34.1746 20.6304 33.9853 20.573 33.7917 20.573C33.532 20.573 33.2829 20.6762 33.0993 20.8598C32.9157 21.0434 32.8125 21.2925 32.8125 21.5522Z" fill="#45413C" stroke="#45413C" stroke-width="0.5" stroke-linecap="round" stroke-linejoin="round"/>
<path d="M38.1981 26.448C38.1981 27.2607 37.1014 27.9167 35.7502 27.9167C34.3989 27.9167 33.3022 27.2607 33.3022 26.448C33.3022 25.6353 34.3989 24.9792 35.7502 24.9792C37.1014 24.9792 38.1981 25.6353 38.1981 26.448Z" fill="#FFAA54"/>
<path d="M9.80225 26.448C9.80225 27.2607 10.8989 27.9167 12.2502 27.9167C13.6014 27.9167 14.6981 27.2607 14.6981 26.448C14.6981 25.6353 13.6014 24.9792 12.2502 24.9792C10.8989 24.9792 9.80225 25.6353 9.80225 26.448Z" fill="#FFAA54"/>
<path d="M37.6005 39.9409C34.0266 38.3743 38.4328 34.4576 37.9433 31.7649C41.997 34.2911 41.1647 41.4978 37.6005 39.9409Z" fill="#4ACFFF"/>
<path d="M37.9433 31.7649C37.9487 31.8301 37.9487 31.8956 37.9433 31.9607C40.5674 34.957 39.6078 40.4011 36.5137 39.1674C36.793 39.5128 37.1574 39.7794 37.5712 39.9409C41.1647 41.4978 41.997 34.2911 37.9433 31.7649Z" fill="#4ACFFF"/>
<path d="M37.4246 29.689C34.7319 29.121 37.2092 25.7723 36.4454 24C39.6669 25.1652 40.1075 30.2569 37.4246 29.689Z" fill="#4ACFFF"/>
<path d="M36.4941 24V24.1371C38.7364 25.8212 38.8539 29.7183 36.5431 29.3071C36.7851 29.5066 37.0756 29.6384 37.3852 29.689C40.1073 30.2569 39.6666 25.1652 36.4941 24Z" fill="#4ACFFF"/>
<path d="M10.5758 29.689C13.2685 29.121 10.7912 25.7723 11.555 24C8.33353 25.1652 7.89291 30.2569 10.5758 29.689Z" fill="#4ACFFF"/>
<path d="M11.5058 24V24.1371C9.26353 25.8212 9.14603 29.7183 11.5058 29.3071C11.2639 29.5066 10.9733 29.6384 10.6637 29.689C7.8927 30.2569 8.33333 25.1652 11.5058 24Z" fill="#4ACFFF"/>
</svg>
