<svg viewBox="-0.5 -0.5 48 48" xmlns="http://www.w3.org/2000/svg"><path d="M3.9166666666666665 21.052083333333332a19.583333333333332 19.583333333333332 0 1 0 39.166666666666664 0 19.583333333333332 19.583333333333332 0 1 0 -39.166666666666664 0Z" fill="#ffe500" stroke-width="1"></path><path d="M23.5 1.46875a19.583333333333332 19.583333333333332 0 1 0 19.583333333333332 19.583333333333332 19.583333333333332 19.583333333333332 0 0 0 -19.583333333333332 -19.583333333333332Zm0 36.229166666666664a17.869791666666664 17.869791666666664 0 1 1 17.869791666666664 -17.869791666666664A17.869791666666664 17.869791666666664 0 0 1 23.5 37.697916666666664Z" fill="#ebcb00" stroke-width="1"></path><path d="M17.625 5.385416666666666a5.875 1.46875 0 1 0 11.75 0 5.875 1.46875 0 1 0 -11.75 0Z" fill="#fff48c" stroke-width="1"></path><path d="M3.9166666666666665 21.052083333333332a19.583333333333332 19.583333333333332 0 1 0 39.166666666666664 0 19.583333333333332 19.583333333333332 0 1 0 -39.166666666666664 0Z" fill="none" stroke="#45413c" stroke-linecap="round" stroke-linejoin="round" stroke-width="1"></path><path d="M18.604166666666664 30.84375a8.8125 8.8125 0 0 1 9.791666666666666 0" fill="none" stroke="#45413c" stroke-linecap="round" stroke-width="1"></path><path d="M7.833333333333333 44.55208333333333a15.666666666666666 1.46875 0 1 0 31.333333333333332 0 15.666666666666666 1.46875 0 1 0 -31.333333333333332 0Z" fill="#45413c" opacity=".15" stroke-width="1"></path><path d="M14.6875 21.052083333333332a0.9791666666666666 0.9791666666666666 0 1 1 -0.9791666666666666 -0.9791666666666666 0.9791666666666666 0.9791666666666666 0 0 1 0.9791666666666666 0.9791666666666666Z" fill="#45413c" stroke="#45413c" stroke-linecap="round" stroke-linejoin="round" stroke-width="1"></path><path d="M32.3125 21.052083333333332a0.9791666666666666 0.9791666666666666 0 1 0 0.9791666666666666 -0.9791666666666666 0.9791666666666666 0.9791666666666666 0 0 0 -0.9791666666666666 0.9791666666666666Z" fill="#45413c" stroke="#45413c" stroke-linecap="round" stroke-linejoin="round" stroke-width="1"></path><path d="M37.697916666666664 25.947916666666664c0 0.8127083333333333 -1.0966666666666667 1.46875 -2.4479166666666665 1.46875s-2.4479166666666665 -0.6560416666666666 -2.4479166666666665 -1.46875S33.89875 24.479166666666664 35.25 24.479166666666664s2.4479166666666665 0.6560416666666666 2.4479166666666665 1.46875Z" fill="#ffaa54" stroke-width="1"></path><path d="M9.302083333333332 25.947916666666664c0 0.8127083333333333 1.0966666666666667 1.46875 2.4479166666666665 1.46875s2.4479166666666665 -0.6560416666666666 2.4479166666666665 -1.46875S13.10125 24.479166666666664 11.75 24.479166666666664s-2.4479166666666665 0.6560416666666666 -2.4479166666666665 1.46875Z" fill="#ffaa54" stroke-width="1"></path><path d="M8.518749999999999 20.49395833333333a6.854166666666666 6.854166666666666 0 0 1 5.277708333333333 -5.121041666666667 6.775833333333333 6.775833333333333 0 0 1 2.9375 0" fill="none" stroke="#45413c" stroke-linecap="round" stroke-linejoin="round" stroke-width="1"></path><path d="M38.481249999999996 20.49395833333333a6.854166666666666 6.854166666666666 0 0 0 -5.277708333333333 -5.121041666666667 6.775833333333333 6.775833333333333 0 0 0 -2.9375 0" fill="none" stroke="#45413c" stroke-linecap="round" stroke-linejoin="round" stroke-width="1"></path><path d="M37.100625 39.44083333333333c-3.573958333333333 -1.5666666666666667 0.8322916666666667 -5.4833333333333325 0.3427083333333333 -8.176041666666666 4.05375 2.52625 3.221458333333333 9.732916666666666 -0.3427083333333333 8.176041666666666Z" fill="#00b8f0" stroke-width="1"></path><path d="M37.443333333333335 31.264791666666664a1.1749999999999998 1.1749999999999998 0 0 1 0 0.19583333333333333c2.6241666666666665 2.99625 1.6645833333333333 8.440416666666666 -1.4295833333333332 7.206666666666667a2.5556249999999996 2.5556249999999996 0 0 0 1.0575 0.7735416666666667c3.5935416666666664 1.556875 4.425833333333332 -5.649791666666666 0.3720833333333333 -8.176041666666666Z" fill="#4acfff" stroke-width="1"></path><path d="M37.100625 39.44083333333333c-3.573958333333333 -1.5666666666666667 0.8322916666666667 -5.4833333333333325 0.3427083333333333 -8.176041666666666 4.05375 2.52625 3.221458333333333 9.732916666666666 -0.3427083333333333 8.176041666666666Z" fill="none" stroke="#45413c" stroke-linecap="round" stroke-linejoin="round" stroke-width="1"></path><path d="M36.924375 29.188958333333332c-2.692708333333333 -0.5679166666666666 -0.21541666666666667 -3.9166666666666665 -0.9791666666666666 -5.688958333333333 3.221458333333333 1.1652083333333332 3.6620833333333334 6.256874999999999 0.9791666666666666 5.688958333333333Z" fill="#00b8f0" stroke-width="1"></path><path d="m35.994166666666665 23.5 0 0.13708333333333333c2.2422916666666666 1.6841666666666666 2.3597916666666667 5.58125 0.04895833333333333 5.17a1.7722916666666666 1.7722916666666666 0 0 0 0.8420833333333333 0.381875c2.722083333333333 0.5679166666666666 2.281458333333333 -4.52375 -0.8910416666666666 -5.688958333333333Z" fill="#4acfff" stroke-width="1"></path><path d="M36.924375 29.188958333333332c-2.692708333333333 -0.5679166666666666 -0.21541666666666667 -3.9166666666666665 -0.9791666666666666 -5.688958333333333 3.221458333333333 1.1652083333333332 3.6620833333333334 6.256874999999999 0.9791666666666666 5.688958333333333Z" fill="none" stroke="#45413c" stroke-linecap="round" stroke-linejoin="round" stroke-width="1"></path><path d="M10.075624999999999 29.188958333333332c2.692708333333333 -0.5679166666666666 0.21541666666666667 -3.9166666666666665 0.9791666666666666 -5.688958333333333 -3.221458333333333 1.1652083333333332 -3.6620833333333334 6.256874999999999 -0.9791666666666666 5.688958333333333Z" fill="#00b8f0" stroke-width="1"></path><path d="m11.005833333333333 23.5 0 0.13708333333333333c-2.2422916666666666 1.6841666666666666 -2.3597916666666667 5.58125 0 5.17a1.7722916666666666 1.7722916666666666 0 0 1 -0.8420833333333333 0.381875c-2.7710416666666666 0.5679166666666666 -2.3304166666666664 -4.52375 0.8420833333333333 -5.688958333333333Z" fill="#4acfff" stroke-width="1"></path><path d="M10.075624999999999 29.188958333333332c2.692708333333333 -0.5679166666666666 0.21541666666666667 -3.9166666666666665 0.9791666666666666 -5.688958333333333 -3.221458333333333 1.1652083333333332 -3.6620833333333334 6.256874999999999 -0.9791666666666666 5.688958333333333Z" fill="none" stroke="#45413c" stroke-linecap="round" stroke-linejoin="round" stroke-width="1"></path></svg>