<svg width="13" height="14" viewBox="0 0 13 14" fill="none" xmlns="http://www.w3.org/2000/svg">
<path d="M6.20305 5.67846C10.0944 5.67846 12.2833 4.65634 12.2833 2.83923C12.2833 1.02213 10.0944 0 6.20305 0C2.31169 0 0.122803 1.02213 0.122803 2.83923C0.122803 4.65634 2.31169 5.67846 6.20305 5.67846Z" fill="#A8ACB8"/>
<path fill-rule="evenodd" clip-rule="evenodd" d="M12.2632 3.13451C12.0351 4.76677 9.87847 5.6786 6.20305 5.6786C2.43074 5.6786 0.258329 4.71806 0.128935 3.00391C0.12562 3.02268 0.12325 3.04182 0.121879 3.06128C0.051309 4.06308 0 5.28189 0 6.26233C0 7.62342 0.150378 9.30105 0.273889 10.4523C0.384729 11.4855 0.940709 12.4601 1.90399 12.9122C2.89481 13.3773 4.42262 13.9147 6.20343 13.9147C7.98424 13.9147 9.51207 13.3773 10.5029 12.9122C11.4662 12.4601 12.0222 11.4855 12.133 10.4523C12.2565 9.30105 12.4069 7.62342 12.4069 6.26233C12.4069 5.21716 12.3486 4.19208 12.2713 3.19556C12.2697 3.17483 12.267 3.15445 12.2632 3.13451Z" fill="#E5E7E9"/>
<path fill-rule="evenodd" clip-rule="evenodd" d="M12.3807 7.34375C8.58675 9.60729 3.82883 9.59909 0.0258789 7.34377C0.0475979 7.83566 0.0811719 8.33914 0.119925 8.82245C3.93259 10.7723 8.47618 10.7811 12.2865 8.82446C12.3253 8.34053 12.3589 7.83633 12.3807 7.34375Z" fill="#A8ACB8"/>
</svg>
