<svg width="48" height="48" viewBox="0 0 48 48" fill="none" xmlns="http://www.w3.org/2000/svg">
<path d="M1.5 22.27C1.5 26.9829 3.37219 31.5028 6.70471 34.8353C10.0372 38.1678 14.5571 40.04 19.27 40.04C23.9829 40.04 28.5028 38.1678 31.8353 34.8353C35.1678 31.5028 37.04 26.9829 37.04 22.27C37.04 17.5571 35.1678 13.0372 31.8353 9.70471C28.5028 6.37219 23.9829 4.5 19.27 4.5C14.5571 4.5 10.0372 6.37219 6.70471 9.70471C3.37219 13.0372 1.5 17.5571 1.5 22.27Z" fill="#FFE7D9"/>
<path d="M10.8301 23.16C10.8301 23.3961 10.9238 23.6224 11.0908 23.7893C11.2577 23.9563 11.484 24.05 11.7201 24.05C11.9561 24.05 12.1825 23.9563 12.3494 23.7893C12.5163 23.6224 12.6101 23.3961 12.6101 23.16C12.6101 22.924 12.5163 22.6976 12.3494 22.5307C12.1825 22.3638 11.9561 22.27 11.7201 22.27C11.484 22.27 11.2577 22.3638 11.0908 22.5307C10.9238 22.6976 10.8301 22.924 10.8301 23.16Z" fill="#45413C" stroke="#45413C" stroke-width="0.5" stroke-linecap="round" stroke-linejoin="round"/>
<path d="M25.9399 23.16C25.9399 23.3961 26.0337 23.6224 26.2006 23.7893C26.3675 23.9563 26.5939 24.05 26.8299 24.05C27.066 24.05 27.2924 23.9563 27.4593 23.7893C27.6262 23.6224 27.7199 23.3961 27.7199 23.16C27.7199 22.924 27.6262 22.6976 27.4593 22.5307C27.2924 22.3638 27.066 22.27 26.8299 22.27C26.5939 22.27 26.3675 22.3638 26.2006 22.5307C26.0337 22.6976 25.9399 22.924 25.9399 23.16Z" fill="#45413C" stroke="#45413C" stroke-width="0.5" stroke-linecap="round" stroke-linejoin="round"/>
<path d="M14.8301 31.1601C16.1458 30.2808 17.6926 29.8115 19.2751 29.8115C20.8575 29.8115 22.4044 30.2808 23.7201 31.1601" stroke="#45413C" stroke-width="0.5" stroke-linecap="round"/>
<path d="M32.1602 27.1601C32.1602 27.9001 31.1602 28.5001 29.9402 28.5001C28.7202 28.5001 27.7202 27.9001 27.7202 27.1601C27.7202 26.4201 28.7202 25.8301 29.9402 25.8301C31.1602 25.8301 32.1602 26.4301 32.1602 27.1601Z" fill="#FFAA54"/>
<path d="M6.39014 27.1601C6.39014 27.9001 7.39014 28.5001 8.61014 28.5001C9.83014 28.5001 10.8301 27.9001 10.8301 27.1601C10.8301 26.4201 9.83014 25.8301 8.61014 25.8301C7.39014 25.8301 6.39014 26.4301 6.39014 27.1601Z" fill="#FFAA54"/>
<path d="M33.4901 11.6101H3.24006C3.10286 11.6105 2.96757 11.6422 2.84451 11.7029C2.72146 11.7635 2.6139 11.8515 2.53006 11.9601C1.75621 12.9749 1.1019 14.0755 0.580058 15.2401C0.518173 15.3755 0.491239 15.5243 0.501721 15.6728C0.512203 15.8213 0.559767 15.9647 0.640058 16.0901C0.722567 16.214 0.833919 16.3161 0.964553 16.3875C1.09519 16.4589 1.2412 16.4976 1.39006 16.5001H36.0901C35.4858 14.7436 34.6084 13.0933 33.4901 11.6101Z" fill="white"/>
<path d="M33.4898 11.6101H3.23979C3.10259 11.6105 2.9673 11.6422 2.84424 11.7029C2.72118 11.7635 2.61363 11.8515 2.52979 11.9601C2.17125 12.4186 1.83744 12.896 1.52979 13.3901H34.6698C34.3126 12.7736 33.9186 12.1791 33.4898 11.6101Z" fill="white"/>
<path d="M33.4901 11.6101H3.24006C3.10286 11.6105 2.96757 11.6422 2.84451 11.7029C2.72146 11.7635 2.6139 11.8515 2.53006 11.9601C1.75621 12.9749 1.1019 14.0755 0.580058 15.2401C0.518173 15.3755 0.491239 15.5243 0.501721 15.6728C0.512203 15.8213 0.559767 15.9647 0.640058 16.0901C0.722567 16.214 0.833919 16.3161 0.964553 16.3875C1.09519 16.4589 1.2412 16.4976 1.39006 16.5001H36.0901C35.4858 14.7436 34.6084 13.0933 33.4901 11.6101Z" stroke="#45413C" stroke-width="0.1" stroke-linecap="round" stroke-linejoin="round"/>
<path d="M34.3799 14.28C34.3799 14.28 39.2599 19.73 46.5199 19.07C46.6662 19.0543 46.814 19.0755 46.95 19.1317C47.086 19.1879 47.2057 19.2772 47.2982 19.3916C47.3907 19.506 47.4531 19.6418 47.4796 19.7865C47.5061 19.9312 47.4959 20.0803 47.4499 20.22C46.9395 21.6728 46.3314 23.0893 45.6299 24.46C45.5323 24.6579 45.3647 24.8125 45.1596 24.8938C44.9545 24.9751 44.7265 24.9773 44.5199 24.9C42.0799 24 34.5099 20.61 34.3799 14.28Z" fill="white" stroke="#45413C" stroke-width="0.1" stroke-linecap="round" stroke-linejoin="round"/>
<path d="M34.3099 12.8899C34.3099 12.8899 35.9699 21.6899 41.4199 27.1599C41.5226 27.2639 41.5979 27.3918 41.6388 27.5321C41.6797 27.6725 41.6851 27.8208 41.6543 27.9637C41.6235 28.1066 41.5576 28.2396 41.4626 28.3507C41.3675 28.4618 41.2463 28.5474 41.1099 28.5999C39.2034 29.2786 37.2101 29.6826 35.1899 29.7999C34.9694 29.8125 34.7522 29.7427 34.5803 29.6041C34.4084 29.4655 34.2942 29.268 34.2599 29.0499C33.8199 26.1599 32.4799 16.1299 34.3099 12.8899Z" fill="white" stroke="#45413C" stroke-width="0.1" stroke-linecap="round" stroke-linejoin="round"/>
<path d="M37.49 14.05C37.49 14.8165 37.1855 15.5516 36.6436 16.0936C36.1016 16.6356 35.3665 16.94 34.6 16.94H34.16C33.7669 16.9632 33.3731 16.9058 33.003 16.7712C32.6328 16.6367 32.2941 16.428 32.0075 16.1578C31.721 15.8876 31.4927 15.5617 31.3366 15.2001C31.1806 14.8385 31.1001 14.4489 31.1001 14.055C31.1001 13.6612 31.1806 13.2715 31.3366 12.9099C31.4927 12.5483 31.721 12.2225 32.0075 11.9523C32.2941 11.6821 32.6328 11.4734 33.003 11.3388C33.3731 11.2043 33.7669 11.1469 34.16 11.17H34.6C34.9791 11.1687 35.3547 11.2422 35.7052 11.3864C36.0558 11.5305 36.3745 11.7425 36.643 12.01C36.9115 12.2776 37.1245 12.5955 37.2698 12.9456C37.4152 13.2957 37.49 13.671 37.49 14.05Z" fill="white"/>
<path d="M34.16 13H34.6C35.211 12.9999 35.8062 13.1934 36.3003 13.5527C36.7944 13.9121 37.1619 14.4187 37.35 15C37.4422 14.7089 37.4894 14.4054 37.49 14.1C37.49 13.7209 37.4152 13.3456 37.2698 12.9955C37.1245 12.6455 36.9114 12.3275 36.643 12.06C36.3745 11.7924 36.0558 11.5805 35.7052 11.4363C35.3546 11.2922 34.9791 11.2187 34.6 11.22H34.16C33.781 11.2187 33.4054 11.2922 33.0548 11.4363C32.7042 11.5805 32.3856 11.7924 32.1171 12.06C31.8486 12.3275 31.6356 12.6455 31.4902 12.9955C31.3448 13.3456 31.27 13.7209 31.27 14.1C31.2706 14.4054 31.3178 14.7089 31.41 15C31.5995 14.4196 31.9673 13.9138 32.4611 13.5546C32.9549 13.1955 33.5495 13.0014 34.16 13Z" fill="white"/>
<path d="M37.49 14.05C37.49 14.8165 37.1855 15.5516 36.6436 16.0936C36.1016 16.6356 35.3665 16.94 34.6 16.94H34.16C33.7669 16.9632 33.3731 16.9058 33.003 16.7712C32.6328 16.6367 32.2941 16.428 32.0075 16.1578C31.721 15.8876 31.4927 15.5617 31.3366 15.2001C31.1806 14.8385 31.1001 14.4489 31.1001 14.055C31.1001 13.6612 31.1806 13.2715 31.3366 12.9099C31.4927 12.5483 31.721 12.2225 32.0075 11.9523C32.2941 11.6821 32.6328 11.4734 33.003 11.3388C33.3731 11.2043 33.7669 11.1469 34.16 11.17H34.6C34.9791 11.1687 35.3547 11.2422 35.7052 11.3864C36.0558 11.5305 36.3745 11.7425 36.643 12.01C36.9115 12.2776 37.1245 12.5955 37.2698 12.9456C37.4152 13.2957 37.49 13.671 37.49 14.05Z" stroke="#45413C" stroke-width="0.1" stroke-linecap="round" stroke-linejoin="round"/>
</svg>
