<svg viewBox="0 0 48 48" xmlns="http://www.w3.org/2000/svg"><path d="M1.5 22.27a17.77 17.77 0 1 0 35.54 0 17.77 17.77 0 1 0 -35.54 0Z" fill="#ffe500" stroke-width="1"></path><path d="M19.27 4.5a17.78 17.78 0 1 0 17.78 17.77A17.78 17.78 0 0 0 19.27 4.5Zm0 32.88a16.22 16.22 0 1 1 16.22 -16.22 16.22 16.22 0 0 1 -16.22 16.22Z" fill="#ebcb00" stroke-width="1"></path><path d="M13.94 8.05a5.33 1.33 0 1 0 10.66 0 5.33 1.33 0 1 0 -10.66 0Z" fill="#fff48c" stroke-width="1"></path><path d="M10.83 23.16a0.89 0.89 0 1 0 1.78 0 0.89 0.89 0 1 0 -1.78 0Z" fill="#45413c" stroke="#45413c" stroke-linecap="round" stroke-linejoin="round" stroke-width="1"></path><path d="M15.12 21.83s-2.67 -4 -5.62 -2.67" fill="none" stroke="#45413c" stroke-linecap="round" stroke-linejoin="round" stroke-width="1"></path><path d="M23.42 21.83s2.67 -4 5.63 -2.67" fill="none" stroke="#45413c" stroke-linecap="round" stroke-linejoin="round" stroke-width="1"></path><path d="M25.94 23.16a0.89 0.89 0 1 0 1.78 0 0.89 0.89 0 1 0 -1.78 0Z" fill="#45413c" stroke="#45413c" stroke-linecap="round" stroke-linejoin="round" stroke-width="1"></path><path d="M14.83 31.16a8 8 0 0 1 8.89 0" fill="none" stroke="#45413c" stroke-linecap="round" stroke-width="1"></path><path d="M32.16 27.16c0 0.74 -1 1.34 -2.22 1.34s-2.22 -0.6 -2.22 -1.34 1 -1.33 2.22 -1.33 2.22 0.6 2.22 1.33Z" fill="#ffaa54" stroke-width="1"></path><path d="M6.39 27.16c0 0.74 1 1.34 2.22 1.34s2.22 -0.6 2.22 -1.34 -1 -1.33 -2.22 -1.33 -2.22 0.6 -2.22 1.33Z" fill="#ffaa54" stroke-width="1"></path><path d="M4.72 44.46a14.22 1.5 0 1 0 28.44 0 14.22 1.5 0 1 0 -28.44 0Z" fill="#45413c" opacity=".15" stroke-width="1"></path><path d="M1.5 22.27a17.77 17.77 0 1 0 35.54 0 17.77 17.77 0 1 0 -35.54 0Z" fill="none" stroke="#45413c" stroke-linecap="round" stroke-linejoin="round" stroke-width="1"></path><path d="M33.49 11.61H3.24a0.9 0.9 0 0 0 -0.71 0.35 16.61 16.61 0 0 0 -1.95 3.28 0.89 0.89 0 0 0 0.06 0.85 0.92 0.92 0 0 0 0.75 0.41h34.7a17.67 17.67 0 0 0 -2.6 -4.89Z" fill="#f0f0f0" stroke-width="1"></path><path d="M33.49 11.61H3.24a0.9 0.9 0 0 0 -0.71 0.35 16.36 16.36 0 0 0 -1 1.43h33.14a17.7 17.7 0 0 0 -1.18 -1.78Z" fill="#ffffff" stroke-width="1"></path><path d="M33.49 11.61H3.24a0.9 0.9 0 0 0 -0.71 0.35 16.61 16.61 0 0 0 -1.95 3.28 0.89 0.89 0 0 0 0.06 0.85 0.92 0.92 0 0 0 0.75 0.41h34.7a17.67 17.67 0 0 0 -2.6 -4.89Z" fill="none" stroke="#45413c" stroke-linecap="round" stroke-linejoin="round" stroke-width="1"></path><path d="M34.38 14.28s4.88 5.45 12.14 4.79a0.88 0.88 0 0 1 0.93 1.15 34.16 34.16 0 0 1 -1.82 4.24 0.89 0.89 0 0 1 -1.11 0.44c-2.44 -0.9 -10.01 -4.29 -10.14 -10.62Z" fill="#ffffff" stroke="#45413c" stroke-linecap="round" stroke-linejoin="round" stroke-width="1"></path><path d="M34.31 12.89s1.66 8.8 7.11 14.27a0.88 0.88 0 0 1 -0.31 1.44 21.34 21.34 0 0 1 -5.92 1.2 0.89 0.89 0 0 1 -0.93 -0.75c-0.44 -2.89 -1.78 -12.92 0.05 -16.16Z" fill="#ffffff" stroke="#45413c" stroke-linecap="round" stroke-linejoin="round" stroke-width="1"></path><path d="M37.49 14.05a2.89 2.89 0 0 1 -2.89 2.89h-0.44a2.89 2.89 0 1 1 0 -5.77h0.44a2.88 2.88 0 0 1 2.89 2.88Z" fill="#f0f0f0" stroke-width="1"></path><path d="M34.16 13h0.44a2.89 2.89 0 0 1 2.75 2 3 3 0 0 0 0.14 -0.9 2.88 2.88 0 0 0 -2.89 -2.88h-0.44a2.88 2.88 0 0 0 -2.89 2.88 3 3 0 0 0 0.14 0.9 2.9 2.9 0 0 1 2.75 -2Z" fill="#ffffff" stroke-width="1"></path><path d="M37.49 14.05a2.89 2.89 0 0 1 -2.89 2.89h-0.44a2.89 2.89 0 1 1 0 -5.77h0.44a2.88 2.88 0 0 1 2.89 2.88Z" fill="none" stroke="#45413c" stroke-linecap="round" stroke-linejoin="round" stroke-width="1"></path></svg>