<svg width="48" height="48" viewBox="0 0 48 48" fill="none" xmlns="http://www.w3.org/2000/svg">
<path d="M4.4165 21.5521C4.4165 24.1238 4.92304 26.6703 5.9072 29.0463C6.89135 31.4223 8.33385 33.5811 10.1523 35.3996C11.9708 37.2181 14.1297 38.6606 16.5056 39.6447C18.8816 40.6289 21.4281 41.1354 23.9998 41.1354C26.5716 41.1354 29.1181 40.6289 31.4941 39.6447C33.87 38.6606 36.0289 37.2181 37.8473 35.3996C39.6658 33.5811 41.1083 31.4223 42.0925 29.0463C43.0766 26.6703 43.5832 24.1238 43.5832 21.5521C43.5832 18.9804 43.0766 16.4338 42.0925 14.0579C41.1083 11.6819 39.6658 9.52306 37.8473 7.70458C36.0289 5.88609 33.87 4.4436 31.4941 3.45944C29.1181 2.47529 26.5716 1.96875 23.9998 1.96875C21.4281 1.96875 18.8816 2.47529 16.5056 3.45944C14.1297 4.4436 11.9708 5.88609 10.1523 7.70458C8.33385 9.52306 6.89135 11.6819 5.9072 14.0579C4.92304 16.4338 4.4165 18.9804 4.4165 21.5521Z" fill="#FFE7D9"/>
<path d="M38.1981 26.448C38.1981 27.2607 37.1014 27.9167 35.7502 27.9167C34.3989 27.9167 33.3022 27.2607 33.3022 26.448C33.3022 25.6353 34.3989 24.9792 35.7502 24.9792C37.1014 24.9792 38.1981 25.6353 38.1981 26.448Z" fill="#FFAA54"/>
<path d="M9.80225 26.448C9.80225 27.2607 10.8989 27.9167 12.2502 27.9167C13.6014 27.9167 14.6981 27.2607 14.6981 26.448C14.6981 25.6353 13.6014 24.9792 12.2502 24.9792C10.8989 24.9792 9.80225 25.6353 9.80225 26.448Z" fill="#FFAA54"/>
<path d="M12.25 19.1042L15.6771 22.5313" stroke="#45413C" stroke-width="0.5" stroke-linecap="round" stroke-linejoin="round"/>
<path d="M15.6771 19.1042L12.25 22.5313" stroke="#45413C" stroke-width="0.5" stroke-linecap="round" stroke-linejoin="round"/>
<path d="M35.7498 19.1042L32.3228 22.5313" stroke="#45413C" stroke-width="0.5" stroke-linecap="round" stroke-linejoin="round"/>
<path d="M32.3228 19.1042L35.7498 22.5313" stroke="#45413C" stroke-width="0.5" stroke-linecap="round" stroke-linejoin="round"/>
<path d="M16.6562 31.3438C16.6562 33.2914 17.43 35.1593 18.8072 36.5366C20.1844 37.9138 22.0523 38.6875 24 38.6875C25.9477 38.6875 27.8156 37.9138 29.1928 36.5366C30.57 35.1593 31.3438 33.2914 31.3438 31.3438C31.3438 29.3961 30.57 27.5282 29.1928 26.1509C27.8156 24.7737 25.9477 24 24 24C22.0523 24 20.1844 24.7737 18.8072 26.1509C17.43 27.5282 16.6562 29.3961 16.6562 31.3438Z" fill="#FFB0CA"/>
<path d="M17.7822 35.2409C17.7822 35.6935 17.9431 36.1417 18.2555 36.5598C18.568 36.978 19.026 37.358 19.6034 37.678C20.1807 37.9981 20.8662 38.2519 21.6205 38.4252C22.3749 38.5984 23.1834 38.6875 23.9999 38.6875C24.8165 38.6875 25.625 38.5984 26.3793 38.4252C27.1337 38.2519 27.8192 37.9981 28.3965 37.678C28.9739 37.358 29.4319 36.978 29.7443 36.5598C30.0568 36.1417 30.2176 35.6935 30.2176 35.2409C30.2176 34.7882 30.0568 34.34 29.7443 33.9219C29.4319 33.5037 28.9739 33.1237 28.3965 32.8037C27.8192 32.4836 27.1337 32.2298 26.3793 32.0566C25.625 31.8833 24.8165 31.7942 23.9999 31.7942C23.1834 31.7942 22.3749 31.8833 21.6205 32.0566C20.8662 32.2298 20.1807 32.4836 19.6034 32.8037C19.026 33.1237 18.568 33.5037 18.2555 33.9219C17.9431 34.34 17.7822 34.7882 17.7822 35.2409Z" fill="#FF866E"/>
</svg>
