<svg viewBox="-0.5 -0.5 48 48" xmlns="http://www.w3.org/2000/svg"><path d="M3.9166666666666665 21.052083333333332a19.583333333333332 19.583333333333332 0 1 0 39.166666666666664 0 19.583333333333332 19.583333333333332 0 1 0 -39.166666666666664 0Z" fill="#ffe500" stroke-width="1"></path><path d="M23.5 1.46875a19.583333333333332 19.583333333333332 0 1 0 19.583333333333332 19.583333333333332 19.583333333333332 19.583333333333332 0 0 0 -19.583333333333332 -19.583333333333332Zm0 36.229166666666664a17.869791666666664 17.869791666666664 0 1 1 17.869791666666664 -17.869791666666664A17.869791666666664 17.869791666666664 0 0 1 23.5 37.697916666666664Z" fill="#ebcb00" stroke-width="1"></path><path d="M17.625 5.385416666666666a5.875 1.46875 0 1 0 11.75 0 5.875 1.46875 0 1 0 -11.75 0Z" fill="#fff48c" stroke-width="1"></path><path d="M7.833333333333333 44.55208333333333a15.666666666666666 1.46875 0 1 0 31.333333333333332 0 15.666666666666666 1.46875 0 1 0 -31.333333333333332 0Z" fill="#45413c" opacity=".15" stroke-width="1"></path><path d="M3.9166666666666665 21.052083333333332a19.583333333333332 19.583333333333332 0 1 0 39.166666666666664 0 19.583333333333332 19.583333333333332 0 1 0 -39.166666666666664 0Z" fill="none" stroke="#45413c" stroke-linecap="round" stroke-linejoin="round" stroke-width="1"></path><path d="M37.697916666666664 25.947916666666664c0 0.8127083333333333 -1.0966666666666667 1.46875 -2.4479166666666665 1.46875s-2.4479166666666665 -0.6560416666666666 -2.4479166666666665 -1.46875S33.89875 24.479166666666664 35.25 24.479166666666664s2.4479166666666665 0.6560416666666666 2.4479166666666665 1.46875Z" fill="#ffaa54" stroke-width="1"></path><path d="M9.302083333333332 25.947916666666664c0 0.8127083333333333 1.0966666666666667 1.46875 2.4479166666666665 1.46875s2.4479166666666665 -0.6560416666666666 2.4479166666666665 -1.46875S13.10125 24.479166666666664 11.75 24.479166666666664s-2.4479166666666665 0.6560416666666666 -2.4479166666666665 1.46875Z" fill="#ffaa54" stroke-width="1"></path><path d="m11.75 18.604166666666664 3.427083333333333 3.427083333333333" fill="none" stroke="#45413c" stroke-linecap="round" stroke-linejoin="round" stroke-width="1"></path><path d="M15.177083333333332 18.604166666666664 11.75 22.03125" fill="none" stroke="#45413c" stroke-linecap="round" stroke-linejoin="round" stroke-width="1"></path><path d="m35.25 18.604166666666664 -3.427083333333333 3.427083333333333" fill="none" stroke="#45413c" stroke-linecap="round" stroke-linejoin="round" stroke-width="1"></path><path d="m31.822916666666664 18.604166666666664 3.427083333333333 3.427083333333333" fill="none" stroke="#45413c" stroke-linecap="round" stroke-linejoin="round" stroke-width="1"></path><path d="M10.447708333333333 15.666666666666666a4.367083333333333 4.367083333333333 0 0 1 2.7710416666666666 -0.9791666666666666 4.416041666666667 4.416041666666667 0 0 1 2.7710416666666666 0.9791666666666666" fill="none" stroke="#45413c" stroke-linecap="round" stroke-linejoin="round" stroke-width="1"></path><path d="M36.55229166666666 15.666666666666666a4.367083333333333 4.367083333333333 0 0 0 -2.7710416666666666 -0.9791666666666666 4.416041666666667 4.416041666666667 0 0 0 -2.7710416666666666 0.9791666666666666" fill="none" stroke="#45413c" stroke-linecap="round" stroke-linejoin="round" stroke-width="1"></path><path d="M16.15625 30.84375a7.34375 7.34375 0 1 0 14.6875 0 7.34375 7.34375 0 1 0 -14.6875 0Z" fill="#ffb0ca" stroke="#45413c" stroke-linecap="round" stroke-linejoin="round" stroke-width="1"></path><path d="M17.282291666666666 34.74083333333333a6.2177083333333325 3.4466666666666668 0 1 0 12.435416666666665 0 6.2177083333333325 3.4466666666666668 0 1 0 -12.435416666666665 0Z" fill="#ff866e" stroke="#45413c" stroke-linecap="round" stroke-linejoin="round" stroke-width="1"></path></svg>