<svg width="48" height="48" viewBox="0 0 48 48" fill="none" xmlns="http://www.w3.org/2000/svg">
<path d="M4 21.5C4 26.8043 6.10714 31.8914 9.85786 35.6421C13.6086 39.3929 18.6957 41.5 24 41.5C29.3043 41.5 34.3914 39.3929 38.1421 35.6421C41.8929 31.8914 44 26.8043 44 21.5C44 16.1957 41.8929 11.1086 38.1421 7.35786C34.3914 3.60714 29.3043 1.5 24 1.5C18.6957 1.5 13.6086 3.60714 9.85786 7.35786C6.10714 11.1086 4 16.1957 4 21.5Z" fill="#FFE7D9"/>
<path d="M38.5 26.5C38.5 27.33 37.38 28 36 28C34.62 28 33.5 27.33 33.5 26.5C33.5 25.67 34.62 25 36 25C37.38 25 38.5 25.67 38.5 26.5Z" fill="#FFAA54"/>
<path d="M9.5 26.5C9.5 27.33 10.62 28 12 28C13.38 28 14.5 27.33 14.5 26.5C14.5 25.67 13.38 25 12 25C10.62 25 9.5 25.67 9.5 26.5Z" fill="#FFAA54"/>
<path d="M17.9402 29.5C17.8051 29.5007 17.6718 29.5306 17.5492 29.5876C17.4267 29.6445 17.3179 29.7272 17.2302 29.83C17.1438 29.9351 17.0797 30.0566 17.0419 30.1873C17.004 30.318 16.9933 30.455 17.0102 30.59C17.2779 32.2538 18.1294 33.7679 19.4122 34.8608C20.695 35.9537 22.325 36.5539 24.0102 36.5539C25.6954 36.5539 27.3255 35.9537 28.6083 34.8608C29.891 33.7679 30.7426 32.2538 31.0102 30.59C31.0272 30.455 31.0164 30.318 30.9786 30.1873C30.9408 30.0566 30.8767 29.9351 30.7902 29.83C30.7026 29.7272 30.5938 29.6445 30.4712 29.5876C30.3487 29.5306 30.2153 29.5007 30.0802 29.5H17.9402Z" fill="#FFB0CA"/>
<path d="M29.5702 33.84C27.8555 32.9356 25.9382 32.4847 24.0002 32.53C22.0622 32.4847 20.1448 32.9356 18.4302 33.84C19.1013 34.6709 19.9499 35.3411 20.9137 35.8016C21.8775 36.262 22.9321 36.501 24.0002 36.501C25.0683 36.501 26.1229 36.262 27.0867 35.8016C28.0505 35.3411 28.899 34.6709 29.5702 33.84Z" fill="#FF87AF"/>
<path d="M10.6401 22.4999C11.1126 21.5508 11.9425 20.8281 12.9476 20.4906C13.9526 20.1531 15.0506 20.2284 16.0001 20.6999" stroke="#45413C" stroke-width="0.5" stroke-linecap="round" stroke-linejoin="round"/>
<path d="M37.36 22.4999C36.8875 21.5508 36.0576 20.8281 35.0525 20.4906C34.0475 20.1531 32.9496 20.2284 32 20.6999" stroke="#45413C" stroke-width="0.5" stroke-linecap="round" stroke-linejoin="round"/>
</svg>
