<svg width="48" height="48" viewBox="0 0 48 48" fill="none" xmlns="http://www.w3.org/2000/svg">
<path d="M4 21.5C4 26.8043 6.10714 31.8914 9.85786 35.6421C13.6086 39.3929 18.6957 41.5 24 41.5C29.3043 41.5 34.3914 39.3929 38.1421 35.6421C41.8929 31.8914 44 26.8043 44 21.5C44 16.1957 41.8929 11.1086 38.1421 7.35786C34.3914 3.60714 29.3043 1.5 24 1.5C18.6957 1.5 13.6086 3.60714 9.85786 7.35786C6.10714 11.1086 4 16.1957 4 21.5Z" fill="#FFE7D9"/>
<path d="M38.5 26.5C38.5 27.33 37.38 28 36 28C34.62 28 33.5 27.33 33.5 26.5C33.5 25.67 34.62 25 36 25C37.38 25 38.5 25.67 38.5 26.5Z" fill="#FFAA54"/>
<path d="M9.5 26.5C9.5 27.33 10.62 28 12 28C13.38 28 14.5 27.33 14.5 26.5C14.5 25.67 13.38 25 12 25C10.62 25 9.5 25.67 9.5 26.5Z" fill="#FFAA54"/>
<path d="M19 31H29" stroke="#45413C" stroke-width="0.5" stroke-linecap="round" stroke-linejoin="round"/>
<path d="M16.5 22H11" stroke="#45413C" stroke-width="0.5" stroke-linecap="round" stroke-linejoin="round"/>
<path d="M37 22H31.5" stroke="#45413C" stroke-width="0.5" stroke-linecap="round" stroke-linejoin="round"/>
</svg>
