<svg viewBox="0 0 48 48" xmlns="http://www.w3.org/2000/svg"><path d="M4 21.5a20 20 0 1 0 40 0 20 20 0 1 0 -40 0Z" fill="#ffe500" stroke-width="1"></path><path d="M24 1.5a20 20 0 1 0 20 20 20 20 0 0 0 -20 -20Zm0 37a18.25 18.25 0 1 1 18.25 -18.25A18.25 18.25 0 0 1 24 38.5Z" fill="#ebcb00" stroke-width="1"></path><path d="M18 5.5a6 1.5 0 1 0 12 0 6 1.5 0 1 0 -12 0Z" fill="#fff48c" stroke-width="1"></path><path d="M4 21.5a20 20 0 1 0 40 0 20 20 0 1 0 -40 0Z" fill="none" stroke="#45413c" stroke-linecap="round" stroke-linejoin="round" stroke-width="1"></path><path d="M8 45.5a16 1.5 0 1 0 32 0 16 1.5 0 1 0 -32 0Z" fill="#45413c" opacity=".15" stroke-width="1"></path><path d="M10.75 15.5a11.43 11.43 0 0 1 3.37 1.1A11.35 11.35 0 0 1 17 18.66" fill="none" stroke="#45413c" stroke-linecap="round" stroke-linejoin="round" stroke-width="1"></path><path d="M37.25 15.5A11.65 11.65 0 0 0 31 18.66" fill="none" stroke="#45413c" stroke-linecap="round" stroke-linejoin="round" stroke-width="1"></path><path d="M38.5 26.5c0 0.83 -1.12 1.5 -2.5 1.5s-2.5 -0.67 -2.5 -1.5S34.62 25 36 25s2.5 0.67 2.5 1.5Z" fill="#ffaa54" stroke-width="1"></path><path d="M9.5 26.5c0 0.83 1.12 1.5 2.5 1.5s2.5 -0.67 2.5 -1.5S13.38 25 12 25s-2.5 0.67 -2.5 1.5Z" fill="#ffaa54" stroke-width="1"></path><path d="M19 31.5a9 9 0 0 1 10 0" fill="none" stroke="#45413c" stroke-linecap="round" stroke-width="1"></path><path d="M38 20.5a1.75 1.75 0 0 1 -3.5 0" fill="none" stroke="#45413c" stroke-linecap="round" stroke-linejoin="round" stroke-width="1"></path><path d="M13.5 20.5a1.75 1.75 0 0 1 -3.5 0" fill="none" stroke="#45413c" stroke-linecap="round" stroke-linejoin="round" stroke-width="1"></path><path d="M41.69 34.86a2.62 2.62 0 0 0 -3.54 -1.09 2.55 2.55 0 0 0 -0.85 0.74L31 26a1.17 1.17 0 0 0 -2 1.08l3.55 10a2.55 2.55 0 0 0 -1.09 0.3A2.62 2.62 0 0 0 33.82 42a4.05 4.05 0 0 0 6.88 -3.65 2.62 2.62 0 0 0 0.99 -3.49Z" fill="#ffffff" stroke="#45413c" stroke-linecap="round" stroke-linejoin="round" stroke-width="1"></path><path d="M6.31 34.86a2.62 2.62 0 0 1 3.54 -1.09 2.55 2.55 0 0 1 0.85 0.74L17 26a1.17 1.17 0 0 1 2 1.08L15.46 37a2.55 2.55 0 0 1 1.09 0.3 2.62 2.62 0 0 1 -2.37 4.7 4.05 4.05 0 0 1 -6.88 -3.65 2.62 2.62 0 0 1 -0.99 -3.49Z" fill="#ffffff" stroke="#45413c" stroke-linecap="round" stroke-linejoin="round" stroke-width="1"></path></svg>