<svg width="48" height="48" viewBox="0 0 48 48" fill="none" xmlns="http://www.w3.org/2000/svg">
<path d="M1.96875 21.3072C1.96875 26.501 4.03199 31.4821 7.70458 35.1547C11.3772 38.8273 16.3583 40.8905 21.5521 40.8905C26.7459 40.8905 31.727 38.8273 35.3996 35.1547C39.0722 31.4821 41.1354 26.501 41.1354 21.3072C41.1354 16.1134 39.0722 11.1323 35.3996 7.4597C31.727 3.78712 26.7459 1.72388 21.5521 1.72388C16.3583 1.72388 11.3772 3.78712 7.70458 7.4597C4.03199 11.1323 1.96875 16.1134 1.96875 21.3072Z" fill="#FFE7D9"/>
<path d="M45.5418 29.5127C45.8678 30.1342 46.0454 30.8227 46.0607 31.5243C46.076 32.226 45.9285 32.9216 45.6299 33.5567C45.308 34.2897 44.8398 34.9493 44.2538 35.4949C43.6678 36.0404 42.9765 36.4604 42.2224 36.7292L34.1442 39.4415L30.8053 31.6081C30.5044 30.863 30.3596 30.064 30.3798 29.2606C30.4 28.4573 30.5848 27.6666 30.9228 26.9375C31.1996 26.2918 31.6221 25.7189 32.1572 25.2636C32.6923 24.8084 33.3254 24.4831 34.0072 24.3133C34.9032 24.1053 35.845 24.2507 36.6365 24.7194C37.4281 25.1882 38.0084 25.944 38.2568 26.8298L38.8834 28.8958L40.8418 28.0244C41.6664 27.6215 42.6145 27.5513 43.4895 27.8284C44.3644 28.1055 45.0993 28.7086 45.5418 29.5127Z" fill="#FF6242"/>
<path d="M32.3327 28.0733C33.2276 27.8623 34.1694 28.0053 34.9614 28.4725C35.7533 28.9396 36.3341 29.6947 36.5823 30.5799L37.209 32.597L39.1673 31.7256C39.9951 31.3225 40.9467 31.2554 41.8228 31.5384C42.6989 31.8213 43.4316 32.4322 43.8673 33.2433C44.2177 33.8886 44.3933 34.6144 44.3765 35.3485C44.8981 34.831 45.3226 34.2241 45.6298 33.5566C45.9285 32.9215 46.0759 32.2259 46.0606 31.5243C46.0453 30.8227 45.8677 30.1341 45.5417 29.5126C45.1042 28.7034 44.3715 28.094 43.496 27.8113C42.6206 27.5286 41.6699 27.5944 40.8417 27.9949L38.8834 28.8664L38.2567 26.8493C38.0083 25.9636 37.428 25.2077 36.6365 24.739C35.845 24.2703 34.9032 24.1248 34.0071 24.3329C33.3274 24.5006 32.6954 24.8229 32.1605 25.2746C31.6255 25.7264 31.202 26.2954 30.9227 26.9374C30.6193 27.6137 30.4465 28.3413 30.4136 29.0818C30.9521 28.5808 31.6147 28.2326 32.3327 28.0733Z" fill="#FF866E"/>
<path d="M7.354 26.2031C7.354 27.0158 8.45067 27.6719 9.80192 27.6719C11.1532 27.6719 12.2498 27.0158 12.2498 26.2031C12.2498 25.3904 11.1532 24.7344 9.80192 24.7344C8.45067 24.7344 7.354 25.3904 7.354 26.2031Z" fill="#FFAA54"/>
<g filter="url(#filter0_d_2236_9612)">
<path d="M29.875 21.5522C29.875 21.0977 30.0555 20.6619 30.3769 20.3405C30.6982 20.0192 31.1341 19.8386 31.5885 19.8386C32.043 19.8386 32.4788 20.0192 32.8002 20.3405C33.1215 20.6619 33.3021 21.0977 33.3021 21.5522" stroke="#45413C" stroke-width="0.5" stroke-linecap="round" stroke-linejoin="round" shape-rendering="crispEdges"/>
</g>
<g filter="url(#filter1_d_2236_9612)">
<path d="M9.80225 20.328C9.80225 20.5217 9.85967 20.711 9.96727 20.872C10.0749 21.0331 10.2278 21.1586 10.4067 21.2327C10.5856 21.3068 10.7825 21.3262 10.9724 21.2884C11.1624 21.2506 11.3368 21.1574 11.4738 21.0204C11.6107 20.8835 11.704 20.709 11.7418 20.5191C11.7795 20.3291 11.7602 20.1323 11.686 19.9533C11.6119 19.7744 11.4864 19.6215 11.3254 19.5139C11.1644 19.4063 10.9751 19.3489 10.7814 19.3489C10.6528 19.3489 10.5255 19.3742 10.4067 19.4234C10.2879 19.4726 10.18 19.5447 10.089 19.6357C9.99811 19.7266 9.92599 19.8345 9.87678 19.9533C9.82757 20.0721 9.80225 20.1995 9.80225 20.328Z" fill="#45413C"/>
<path d="M9.80225 20.328C9.80225 20.5217 9.85967 20.711 9.96727 20.872C10.0749 21.0331 10.2278 21.1586 10.4067 21.2327C10.5856 21.3068 10.7825 21.3262 10.9724 21.2884C11.1624 21.2506 11.3368 21.1574 11.4738 21.0204C11.6107 20.8835 11.704 20.709 11.7418 20.5191C11.7795 20.3291 11.7602 20.1323 11.686 19.9533C11.6119 19.7744 11.4864 19.6215 11.3254 19.5139C11.1644 19.4063 10.9751 19.3489 10.7814 19.3489C10.6528 19.3489 10.5255 19.3742 10.4067 19.4234C10.2879 19.4726 10.18 19.5447 10.089 19.6357C9.99811 19.7266 9.92599 19.8345 9.87678 19.9533C9.82757 20.0721 9.80225 20.1995 9.80225 20.328Z" stroke="#45413C" stroke-width="0.5" stroke-linecap="round" stroke-linejoin="round"/>
</g>
<g filter="url(#filter2_d_2236_9612)">
<path d="M21.562 27.9167C21.8595 27.7441 22.1972 27.653 22.5412 27.6523C23.0606 27.6523 23.5587 27.8587 23.9259 28.2259C24.2932 28.5932 24.4995 29.0913 24.4995 29.6107C24.4995 30.1301 24.2932 30.6282 23.9259 30.9954C23.5587 31.3627 23.0606 31.569 22.5412 31.569C23.0606 31.569 23.5587 31.7753 23.9259 32.1426C24.2932 32.5099 24.4995 33.008 24.4995 33.5273C24.4995 34.0467 24.2932 34.5448 23.9259 34.9121C23.5587 35.2794 23.0606 35.4857 22.5412 35.4857C22.1972 35.4851 21.8595 35.3939 21.562 35.2213" stroke="#45413C" stroke-width="0.5" stroke-linecap="round" stroke-linejoin="round" shape-rendering="crispEdges"/>
</g>
<defs>
<filter id="filter0_d_2236_9612" x="25.625" y="19.5886" width="11.9272" height="10.2136" filterUnits="userSpaceOnUse" color-interpolation-filters="sRGB">
<feFlood flood-opacity="0" result="BackgroundImageFix"/>
<feColorMatrix in="SourceAlpha" type="matrix" values="0 0 0 0 0 0 0 0 0 0 0 0 0 0 0 0 0 0 127 0" result="hardAlpha"/>
<feOffset dy="4"/>
<feGaussianBlur stdDeviation="2"/>
<feComposite in2="hardAlpha" operator="out"/>
<feColorMatrix type="matrix" values="0 0 0 0 0 0 0 0 0 0 0 0 0 0 0 0 0 0 0.25 0"/>
<feBlend mode="normal" in2="BackgroundImageFix" result="effect1_dropShadow_2236_9612"/>
<feBlend mode="normal" in="SourceGraphic" in2="effect1_dropShadow_2236_9612" result="shape"/>
</filter>
<filter id="filter1_d_2236_9612" x="5.55225" y="19.0989" width="10.4585" height="10.4583" filterUnits="userSpaceOnUse" color-interpolation-filters="sRGB">
<feFlood flood-opacity="0" result="BackgroundImageFix"/>
<feColorMatrix in="SourceAlpha" type="matrix" values="0 0 0 0 0 0 0 0 0 0 0 0 0 0 0 0 0 0 127 0" result="hardAlpha"/>
<feOffset dy="4"/>
<feGaussianBlur stdDeviation="2"/>
<feComposite in2="hardAlpha" operator="out"/>
<feColorMatrix type="matrix" values="0 0 0 0 0 0 0 0 0 0 0 0 0 0 0 0 0 0 0.25 0"/>
<feBlend mode="normal" in2="BackgroundImageFix" result="effect1_dropShadow_2236_9612"/>
<feBlend mode="normal" in="SourceGraphic" in2="effect1_dropShadow_2236_9612" result="shape"/>
</filter>
<filter id="filter2_d_2236_9612" x="17.312" y="27.4023" width="11.4375" height="16.3333" filterUnits="userSpaceOnUse" color-interpolation-filters="sRGB">
<feFlood flood-opacity="0" result="BackgroundImageFix"/>
<feColorMatrix in="SourceAlpha" type="matrix" values="0 0 0 0 0 0 0 0 0 0 0 0 0 0 0 0 0 0 127 0" result="hardAlpha"/>
<feOffset dy="4"/>
<feGaussianBlur stdDeviation="2"/>
<feComposite in2="hardAlpha" operator="out"/>
<feColorMatrix type="matrix" values="0 0 0 0 0 0 0 0 0 0 0 0 0 0 0 0 0 0 0.25 0"/>
<feBlend mode="normal" in2="BackgroundImageFix" result="effect1_dropShadow_2236_9612"/>
<feBlend mode="normal" in="SourceGraphic" in2="effect1_dropShadow_2236_9612" result="shape"/>
</filter>
</defs>
</svg>
