<svg width="48" height="48" viewBox="0 0 48 48" fill="none" xmlns="http://www.w3.org/2000/svg">
<path d="M4 21.5C4 26.8043 6.10714 31.8914 9.85786 35.6421C13.6086 39.3929 18.6957 41.5 24 41.5C29.3043 41.5 34.3914 39.3929 38.1421 35.6421C41.8929 31.8914 44 26.8043 44 21.5C44 16.1957 41.8929 11.1086 38.1421 7.35786C34.3914 3.60714 29.3043 1.5 24 1.5C18.6957 1.5 13.6086 3.60714 9.85786 7.35786C6.10714 11.1086 4 16.1957 4 21.5Z" fill="#FFE500"/>
<path d="M4 21.5C4 26.8043 6.10714 31.8914 9.85786 35.6421C13.6086 39.3929 18.6957 41.5 24 41.5C29.3043 41.5 34.3914 39.3929 38.1421 35.6421C41.8929 31.8914 44 26.8043 44 21.5C44 16.1957 41.8929 11.1086 38.1421 7.35786C34.3914 3.60714 29.3043 1.5 24 1.5C18.6957 1.5 13.6086 3.60714 9.85786 7.35786C6.10714 11.1086 4 16.1957 4 21.5Z" fill="#FFE7D9"/>
<path d="M38.5 26.5C38.5 27.33 37.38 28 36 28C34.62 28 33.5 27.33 33.5 26.5C33.5 25.67 34.62 25 36 25C37.38 25 38.5 25.67 38.5 26.5Z" fill="#FFAA54"/>
<path d="M9.5 26.5C9.5 27.33 10.62 28 12 28C13.38 28 14.5 27.33 14.5 26.5C14.5 25.67 13.38 25 12 25C10.62 25 9.5 25.67 9.5 26.5Z" fill="#FFAA54"/>
<path d="M19 31.5001C20.48 30.5112 22.22 29.9834 24 29.9834C25.78 29.9834 27.52 30.5112 29 31.5001" stroke="#45413C" stroke-width="0.5" stroke-linecap="round"/>
<path d="M38 20.5C38 20.9641 37.8156 21.4092 37.4874 21.7374C37.1592 22.0656 36.7141 22.25 36.25 22.25C35.7859 22.25 35.3408 22.0656 35.0126 21.7374C34.6844 21.4092 34.5 20.9641 34.5 20.5" stroke="#45413C" stroke-width="0.5" stroke-linecap="round" stroke-linejoin="round"/>
<path d="M13.5 20.5C13.5 20.9641 13.3156 21.4092 12.9874 21.7374C12.6592 22.0656 12.2141 22.25 11.75 22.25C11.2859 22.25 10.8408 22.0656 10.5126 21.7374C10.1844 21.4092 10 20.9641 10 20.5" stroke="#45413C" stroke-width="0.5" stroke-linecap="round" stroke-linejoin="round"/>
<path d="M41.6898 34.8601C41.3647 34.2463 40.8093 33.7867 40.1455 33.5823C39.4816 33.3779 38.7638 33.4455 38.1498 33.7701C37.8148 33.9503 37.5244 34.2031 37.2998 34.5101L30.9998 26.0001C30.8241 25.8058 30.5884 25.6761 30.3302 25.6317C30.0721 25.5873 29.8065 25.6308 29.576 25.7553C29.3455 25.8797 29.1635 26.0779 29.059 26.3181C28.9545 26.5583 28.9337 26.8267 28.9998 27.0801L32.5498 37.0801C32.1686 37.0973 31.7961 37.1998 31.4598 37.3801C30.9439 37.7434 30.5763 38.2806 30.4248 38.8932C30.2732 39.5057 30.3478 40.1523 30.6349 40.7143C30.9219 41.2762 31.4021 41.7157 31.9873 41.9519C32.5724 42.1881 33.2231 42.2052 33.8198 42.0001C34.43 42.6343 35.2302 43.0525 36.0992 43.1914C36.9683 43.3302 37.8589 43.1822 38.6364 42.7698C39.4138 42.3573 40.0357 41.7029 40.408 40.9054C40.7804 40.108 40.8828 39.211 40.6998 38.3501C41.2832 38.0085 41.712 37.4546 41.8965 36.8042C42.081 36.1537 42.007 35.4572 41.6898 34.8601Z" fill="white" stroke="#45413C" stroke-width="0.1" stroke-linecap="round" stroke-linejoin="round"/>
<path d="M6.31008 34.8601C6.63514 34.2463 7.19063 33.7867 7.85444 33.5823C8.51825 33.3779 9.23606 33.4455 9.85008 33.7701C10.1851 33.9503 10.4755 34.2031 10.7001 34.5101L17.0001 26.0001C17.1757 25.8058 17.4115 25.6761 17.6697 25.6317C17.9278 25.5873 18.1934 25.6308 18.4239 25.7553C18.6544 25.8797 18.8364 26.0779 18.9409 26.3181C19.0454 26.5583 19.0662 26.8267 19.0001 27.0801L15.4601 37.0001C15.8413 37.0173 16.2138 37.1198 16.5501 37.3001C16.8587 37.4557 17.1336 37.6706 17.3592 37.9325C17.5847 38.1943 17.7565 38.4981 17.8647 38.8263C17.9729 39.1546 18.0153 39.5009 17.9897 39.8456C17.964 40.1903 17.8707 40.5265 17.7151 40.8351C17.5595 41.1437 17.3446 41.4186 17.0827 41.6442C16.8208 41.8698 16.5171 42.0416 16.1889 42.1497C15.5259 42.3682 14.8033 42.3144 14.1801 42.0001C13.5699 42.6343 12.7697 43.0525 11.9007 43.1914C11.0316 43.3302 10.141 43.1822 9.36354 42.7698C8.58609 42.3573 7.96415 41.7029 7.59184 40.9054C7.21953 40.108 7.11711 39.211 7.30008 38.3501C6.71665 38.0085 6.28786 37.4546 6.10336 36.8042C5.91886 36.1537 5.99293 35.4572 6.31008 34.8601Z" fill="white" stroke="#45413C" stroke-width="0.1" stroke-linecap="round" stroke-linejoin="round"/>
</svg>
