<svg viewBox="-0.5 -0.5 48 48" xmlns="http://www.w3.org/2000/svg"><path d="M1.46875 20.807291666666664a19.583333333333332 19.583333333333332 0 1 0 39.166666666666664 0 19.583333333333332 19.583333333333332 0 1 0 -39.166666666666664 0Z" fill="#ffe500" stroke-width="1"></path><path d="M21.052083333333332 1.2239583333333333a19.583333333333332 19.583333333333332 0 1 0 19.583333333333332 19.583333333333332 19.583333333333332 19.583333333333332 0 0 0 -19.583333333333332 -19.583333333333332Zm0 36.229166666666664A17.869791666666664 17.869791666666664 0 1 1 38.921875 19.583333333333332 17.869791666666664 17.869791666666664 0 0 1 21.052083333333332 37.453125Z" fill="#ebcb00" stroke-width="1"></path><path d="M15.177083333333332 5.140625a5.875 1.46875 0 1 0 11.75 0 5.875 1.46875 0 1 0 -11.75 0Z" fill="#fff48c" stroke-width="1"></path><path d="M38.569375 29.561041666666668a19.583333333333332 19.583333333333332 0 0 1 -8.019374999999998 8.352291666666666l-1.0966666666666667 -2.5654166666666667 -0.5385416666666667 -1.263125a7.236041666666666 7.236041666666666 0 0 1 0.15666666666666668 -5.688958333333333 5.5910416666666665 5.5910416666666665 0 0 1 3.8187499999999996 -3.250833333333333 4.367083333333333 4.367083333333333 0 0 1 4.52375 1.6547916666666667 4.788124999999999 4.788124999999999 0 0 1 0.7735416666666667 1.4197916666666666Z" fill="#ebcb00" stroke-width="1"></path><path d="M5.385416666666666 44.307291666666664a15.666666666666666 1.46875 0 1 0 31.333333333333332 0 15.666666666666666 1.46875 0 1 0 -31.333333333333332 0Z" fill="#45413c" opacity=".15" stroke-width="1"></path><path d="M1.46875 20.807291666666664a19.583333333333332 19.583333333333332 0 1 0 39.166666666666664 0 19.583333333333332 19.583333333333332 0 1 0 -39.166666666666664 0Z" fill="none" stroke="#45413c" stroke-linecap="round" stroke-linejoin="round" stroke-width="1"></path><path d="M45.041666666666664 29.012708333333332a4.543333333333333 4.543333333333333 0 0 1 0.088125 4.043958333333333A5.875 5.875 0 0 1 41.72229166666666 36.229166666666664l-8.078125 2.7122916666666668 -3.3389583333333333 -7.833333333333333a5.875 5.875 0 0 1 0.1175 -4.670624999999999 4.5531250000000005 4.5531250000000005 0 0 1 3.0843749999999996 -2.6241666666666665 3.573958333333333 3.573958333333333 0 0 1 4.249583333333333 2.516458333333333L38.38333333333333 28.395833333333332l1.9583333333333333 -0.8714583333333333a3.573958333333333 3.573958333333333 0 0 1 4.699999999999999 1.4883333333333333Z" fill="#ff6242" stroke-width="1"></path><path d="M31.83270833333333 27.573333333333334a3.5641666666666665 3.5641666666666665 0 0 1 4.249583333333333 2.506666666666667l0.6266666666666667 2.0170833333333333 1.9583333333333333 -0.8714583333333333a3.5641666666666665 3.5641666666666665 0 0 1 4.699999999999999 1.5177083333333332 4.210416666666666 4.210416666666666 0 0 1 0.5091666666666667 2.105208333333333 6.139374999999999 6.139374999999999 0 0 0 1.2533333333333334 -1.791875 4.543333333333333 4.543333333333333 0 0 0 -0.088125 -4.043958333333333 3.573958333333333 3.573958333333333 0 0 0 -4.699999999999999 -1.5177083333333332l-1.9583333333333333 0.8714583333333333 -0.6266666666666667 -2.0170833333333333a3.573958333333333 3.573958333333333 0 0 0 -4.249583333333333 -2.516458333333333A4.5531250000000005 4.5531250000000005 0 0 0 30.422708333333333 26.4375a5.875 5.875 0 0 0 -0.5091666666666667 2.1443749999999997 4.132083333333333 4.132083333333333 0 0 1 1.9191666666666665 -1.0085416666666667Z" fill="#ff866e" stroke-width="1"></path><path d="M45.041666666666664 29.012708333333332a4.543333333333333 4.543333333333333 0 0 1 0.088125 4.043958333333333A5.875 5.875 0 0 1 41.72229166666666 36.229166666666664l-8.078125 2.7122916666666668 -3.3389583333333333 -7.833333333333333a5.875 5.875 0 0 1 0.1175 -4.670624999999999 4.5531250000000005 4.5531250000000005 0 0 1 3.0843749999999996 -2.6241666666666665 3.573958333333333 3.573958333333333 0 0 1 4.249583333333333 2.516458333333333L38.38333333333333 28.395833333333332l1.9583333333333333 -0.8714583333333333a3.573958333333333 3.573958333333333 0 0 1 4.699999999999999 1.4883333333333333Z" fill="none" stroke="#45413c" stroke-linecap="round" stroke-linejoin="round" stroke-width="1"></path><path d="M6.854166666666666 25.703125c0 0.8127083333333333 1.0966666666666667 1.46875 2.4479166666666665 1.46875s2.4479166666666665 -0.6560416666666666 2.4479166666666665 -1.46875 -1.0966666666666667 -1.46875 -2.4479166666666665 -1.46875 -2.4479166666666665 0.6560416666666666 -2.4479166666666665 1.46875Z" fill="#ffaa54" stroke-width="1"></path><path d="M29.375 21.052083333333332a1.7135416666666665 1.7135416666666665 0 0 1 3.427083333333333 0" fill="none" stroke="#45413c" stroke-linecap="round" stroke-linejoin="round" stroke-width="1"></path><path d="M9.302083333333332 19.828125a0.9791666666666666 0.9791666666666666 0 1 0 0.9791666666666666 -0.9791666666666666 0.9791666666666666 0.9791666666666666 0 0 0 -0.9791666666666666 0.9791666666666666Z" fill="#45413c" stroke="#45413c" stroke-linecap="round" stroke-linejoin="round" stroke-width="1"></path><path d="M21.061875 27.416666666666664a1.9583333333333333 1.9583333333333333 0 0 1 0.9791666666666666 -0.264375 1.9583333333333333 1.9583333333333333 0 1 1 0 3.9166666666666665 1.9583333333333333 1.9583333333333333 0 1 1 0 3.9166666666666665 1.9583333333333333 1.9583333333333333 0 0 1 -0.9791666666666666 -0.264375" fill="none" stroke="#45413c" stroke-linecap="round" stroke-linejoin="round" stroke-width="1"></path></svg>