<svg width="48" height="48" viewBox="0 0 48 48" fill="none" xmlns="http://www.w3.org/2000/svg">
<path d="M4 21.5C4 26.8043 6.10714 31.8914 9.85786 35.6421C13.6086 39.3929 18.6957 41.5 24 41.5C29.3043 41.5 34.3914 39.3929 38.1421 35.6421C41.8929 31.8914 44 26.8043 44 21.5C44 16.1957 41.8929 11.1086 38.1421 7.35786C34.3914 3.60714 29.3043 1.5 24 1.5C18.6957 1.5 13.6086 3.60714 9.85786 7.35786C6.10714 11.1086 4 16.1957 4 21.5Z" fill="#FFE7D9"/>
<path d="M38.5 26.5C38.5 27.33 37.38 28 36 28C34.62 28 33.5 27.33 33.5 26.5C33.5 25.67 34.62 25 36 25C37.38 25 38.5 25.67 38.5 26.5Z" fill="#FFAA54"/>
<path d="M9.5 26.5C9.5 27.33 10.62 28 12 28C13.38 28 14.5 27.33 14.5 26.5C14.5 25.67 13.38 25 12 25C10.62 25 9.5 25.67 9.5 26.5Z" fill="#FFAA54"/>
<path d="M10 22.75C10 22.2859 10.1844 21.8408 10.5126 21.5126C10.8408 21.1844 11.2859 21 11.75 21C12.2141 21 12.6592 21.1844 12.9874 21.5126C13.3156 21.8408 13.5 22.2859 13.5 22.75" stroke="#45413C" stroke-width="0.5" stroke-linecap="round" stroke-linejoin="round"/>
<path d="M34.5 22.75C34.5 22.2859 34.6844 21.8408 35.0126 21.5126C35.3408 21.1844 35.7859 21 36.25 21C36.7141 21 37.1592 21.1844 37.4874 21.5126C37.8156 21.8408 38 22.2859 38 22.75" stroke="#45413C" stroke-width="0.5" stroke-linecap="round" stroke-linejoin="round"/>
<path d="M16.1099 29.5C18.2874 31.433 21.0981 32.5006 24.0099 32.5006C26.9216 32.5006 29.7323 31.433 31.9099 29.5" stroke="#45413C" stroke-width="0.5" stroke-linecap="round" stroke-linejoin="round"/>
<path d="M30.9998 30.24C28.9856 31.6897 26.5715 32.4793 24.0898 32.5C27.0898 34.99 26.3098 38.75 29.3198 38.39C33.4398 37.89 32.7298 32.54 30.9998 30.24Z" fill="#FF6242"/>
<path d="M29.84 38.29C33.37 37.42 32.65 32.44 30.99 30.29C30.5298 30.6228 30.0451 30.9204 29.54 31.18C30.62 33.11 31.12 36.48 29.84 38.29Z" fill="#FF866E"/>
<path d="M30.9998 30.24C28.9856 31.6897 26.5715 32.4793 24.0898 32.5C27.0898 34.99 26.3098 38.75 29.3198 38.39C33.4398 37.89 32.7298 32.54 30.9998 30.24Z" stroke="#45413C" stroke-width="0.5" stroke-linecap="round" stroke-linejoin="round"/>
</svg>
