<svg xmlns="http://www.w3.org/2000/svg" fill="none" viewBox="0 0 14 14" id="Location-Pin-Favorite-Flag--Streamline-Flex.svg"><desc>Location Pin Favorite Flag Streamline Icon: https://streamlinehq.com</desc><g id="Location-Pin-Favorite-Flag--Streamline-Flex.svg"><path id="Union" fill="#fed7ed" fill-rule="evenodd" d="M6.93319 0.25c-3.04193 0 -5.56667 2.35084 -5.7834 5.38503 -0.10317 1.44442 0.22027 2.94315 1.12982 4.13748 1.08185 1.42059 2.18356 2.39619 3.90622 3.54319 0.49284 0.3282 1.13549 0.3282 1.62833 0 1.72265 -1.147 2.82434 -2.1226 3.90624 -3.54319 0.9095 -1.19433 1.233 -2.69306 1.1298 -4.13748C12.6335 2.60084 10.1087 0.25 7.0668 0.25h-0.13361Z" clip-rule="evenodd" stroke-width="1"></path><path id="Union_2" fill="#c93f8d" fill-rule="evenodd" d="M9.42323 3.76623c0.10355 -0.16462 0.10225 -0.37434 -0.00333 -0.53767 -0.10558 -0.16332 -0.29629 -0.2506 -0.48891 -0.22376 -1.35875 0.18934 -2.07665 0.21905 -3.3469 0.00234 -0.14521 -0.02478 -0.29396 0.01574 -0.40655 0.11074C5.06496 3.21289 5 3.3527 5 3.50001v2.8964c-0.00562 0.03369 -0.00854 0.0683 -0.00854 0.10359v3c0 0.34518 0.27982 0.625 0.625 0.625 0.34517 0 0.625 -0.27982 0.625 -0.625V7.1483c0.88464 0.11817 1.66041 0.05076 2.84444 -0.15572 0.16901 -0.02947 0.3111 -0.14354 0.37643 -0.30217s0.04477 -0.33968 -0.05447 -0.47962l-0.8067 -1.13762 0.82207 -1.30694Z" clip-rule="evenodd" stroke-width="1"></path></g></svg>