<svg xmlns="http://www.w3.org/2000/svg" fill="none" viewBox="0 0 14 14"><g id="small-caps"><path id="Union" fill="#d5713a" fill-rule="evenodd" d="M7.75 7.125c0-.69.56-1.25 1.25-1.25h3.5c.69 0 1.25.56 1.25 1.25v.25a.75.75 0 0 1-1.5 0h-.75l0 3.25h.25a.75.75 0 0 1 0 1.5h-2a.75.75 0 0 1 0-1.5H10l0-3.25h-.75a.75.75 0 0 1-1.5 0v-.25Z" clip-rule="evenodd"></path><path id="Union_2" fill="#f2a46f" fill-rule="evenodd" d="M.25 3.125c0-.69.56-1.25 1.25-1.25H8c.69 0 1.25.56 1.25 1.25v.882a.75.75 0 0 1-1.5 0v-.632H5.5l0 7.25h.917a.75.75 0 0 1 0 1.5H3.083a.75.75 0 0 1 0-1.5H4l0-7.25H1.75v.632a.75.75 0 0 1-1.5 0v-.882Z" clip-rule="evenodd"></path></g></svg>