<svg width="48" height="48" viewBox="0 0 48 48" fill="none" xmlns="http://www.w3.org/2000/svg">
<path d="M2.8584 22.1501C2.8584 38.4249 20.4764 48.5967 34.5708 40.4593C41.112 36.6827 45.1416 29.7033 45.1416 22.1501C45.1416 5.87534 27.5236 -4.29637 13.4292 3.84103C6.888 7.61763 2.8584 14.597 2.8584 22.1501Z" fill="#FFE7D9"/>
<path d="M14.4862 22.1501C14.4862 22.9639 13.6053 23.4724 12.9006 23.0656C12.1959 22.6587 12.1959 21.6415 12.9006 21.2347C13.0613 21.1419 13.2435 21.093 13.4291 21.093C14.0129 21.0931 14.4862 21.5663 14.4862 22.1501Z" fill="#45413C" stroke="#45413C" stroke-width="0.5" stroke-linecap="round" stroke-linejoin="round"/>
<path d="M33.5137 22.1501C33.5137 22.9639 34.3946 23.4724 35.0993 23.0656C35.8041 22.6587 35.8041 21.6415 35.0993 21.2347C34.9386 21.1419 34.7563 21.093 34.5708 21.093C33.987 21.093 33.5137 21.5663 33.5137 22.1501Z" fill="#45413C" stroke="#45413C" stroke-width="0.5" stroke-linecap="round" stroke-linejoin="round"/>
<path d="M18.3342 30.1838C18.3343 31.72 17.0796 32.9604 15.5435 32.9428" stroke="#45413C" stroke-width="0.5" stroke-linecap="round"/>
<path d="M30.3427 31.981C28.4667 33.2383 26.2586 33.9081 24.0002 33.9049C21.7418 33.9081 19.5337 33.2383 17.6577 31.981" stroke="#45413C" stroke-width="0.5" stroke-linecap="round"/>
<path d="M29.666 30.1838C29.6659 31.72 30.9206 32.9604 32.4567 32.9428" stroke="#45413C" stroke-width="0.5" stroke-linecap="round"/>
<path d="M39 27.5C39 28.33 37.88 29 36.5 29C35.12 29 34 28.33 34 27.5C34 26.67 35.12 26 36.5 26C37.88 26 39 26.67 39 27.5Z" fill="#FFAA54"/>
<path d="M9 27.5C9 28.33 10.12 29 11.5 29C12.88 29 14 28.33 14 27.5C14 26.67 12.88 26 11.5 26C10.12 26 9 26.67 9 27.5Z" fill="#FFAA54"/>
</svg>
