<svg width="14" height="14" viewBox="0 0 14 14" fill="none" xmlns="http://www.w3.org/2000/svg">
<path fill-rule="evenodd" clip-rule="evenodd" d="M2.89072 0.109859C2.77231 0.0516647 2.6357 0.0426307 2.51066 0.0847255C2.38562 0.12682 2.28228 0.216632 2.22317 0.334587C2.16406 0.452543 2.15397 0.589081 2.1951 0.714445C2.23622 0.839809 2.32523 0.943837 2.44272 1.00386L2.66672 1.11586V8.91586L2.44272 9.02786C2.38396 9.05721 2.33155 9.09785 2.28849 9.14745C2.24542 9.19706 2.21256 9.25466 2.19176 9.31697C2.17095 9.37928 2.16263 9.44507 2.16726 9.5106C2.17189 9.57612 2.18937 9.64009 2.21872 9.69886C2.24807 9.75763 2.28871 9.81004 2.33832 9.8531C2.38792 9.89616 2.44552 9.92903 2.50783 9.94983C2.57014 9.97063 2.63594 9.97895 2.70146 9.97433C2.76699 9.9697 2.83096 9.95221 2.88972 9.92286L11.8087 5.46286C11.8917 5.42129 11.9614 5.35746 12.0101 5.27852C12.0589 5.19958 12.0847 5.10863 12.0847 5.01586C12.0847 4.92308 12.0589 4.83214 12.0101 4.7532C11.9614 4.67425 11.8917 4.61043 11.8087 4.56886L2.88972 0.107859L2.89072 0.109859Z" fill="#FFE1C8"/>
<path fill-rule="evenodd" clip-rule="evenodd" d="M2.66602 0.0429688C2.86493 0.0429688 3.05569 0.121986 3.19635 0.262639C3.337 0.403291 3.41602 0.594056 3.41602 0.792969V13.205C3.41602 13.4039 3.337 13.5946 3.19635 13.7353C3.05569 13.876 2.86493 13.955 2.66602 13.955C2.4671 13.955 2.27634 13.876 2.13569 13.7353C1.99503 13.5946 1.91602 13.4039 1.91602 13.205V0.792969C1.91602 0.594056 1.99503 0.403291 2.13569 0.262639C2.27634 0.121986 2.4671 0.0429688 2.66602 0.0429688Z" fill="#ED7732"/>
</svg>
