<svg xmlns="http://www.w3.org/2000/svg" fill="none" viewBox="0 0 24 24" id="Google-Drive-Logo--Streamline-Ultimate.svg"><desc>Google Drive Logo Streamline Icon: https://streamlinehq.com</desc><path fill="#c2f3ff" d="M4.2723 21.9165H19.8686L23.2629 15.9633H7.6606L4.2723 21.9165Z" stroke-width="1"></path><path fill="#66e1ff" d="M7.6606 15.9633L4.2723 21.9165H9.5537L7.6606 15.9633Z" stroke-width="1"></path><path stroke="#191919" stroke-linecap="round" stroke-linejoin="round" d="M4.2723 21.9165H19.8686L23.2629 15.9633H7.6606L4.2723 21.9165Z" stroke-width="1"></path><path fill="#ffef5e" stroke="#191919" stroke-linecap="round" stroke-linejoin="round" d="M16.2431 15.9633H23.2639L15.5089 2.0835H8.4871C8.8136 2.6431 16.2431 15.9633 16.2431 15.9633Z" stroke-width="1"></path><path fill="#c9f7ca" d="M8.4871 2.0835L0.7361 15.5377L4.2723 21.9165S11.6741 8.9088 11.9975 8.3552L8.4871 2.0835Z" stroke-width="1"></path><path fill="#78eb7b" d="M9.7383 12.315C10.9359 10.2116 11.8864 8.5447 11.9975 8.3552L8.4871 2.0835L9.7383 12.315Z" stroke-width="1"></path><path stroke="#191919" stroke-linecap="round" stroke-linejoin="round" d="M8.4871 2.0835L0.7361 15.5377L4.2723 21.9165S11.6741 8.9088 11.9975 8.3552L8.4871 2.0835Z" stroke-width="1"></path></svg>