<svg xmlns="http://www.w3.org/2000/svg" fill="none" viewBox="0 0 48 48" id="Google-Drive-Logo--Streamline-Plump.svg"><desc>Google Drive Logo Streamline Icon: https://streamlinehq.com</desc><g id="Google-Drive-Logo--Streamline-Plump.svg"><path id="Intersect" fill="#cde4e4" fill-rule="evenodd" d="M15.678 6.677c-2.32 3.577 -7.162 11.328 -13.01 22.332 -0.831 1.562 -0.917 3.42 -0.084 4.98a48.837 48.837 0 0 0 5.385 8.016 4.63 4.63 0 0 0 3.253 1.693c1.99 0.14 5.816 0.302 12.846 0.302 7.202 0 11.04 -0.17 12.989 -0.313A4.135 4.135 0 0 0 40.05 42.1c1.074 -1.377 2.849 -3.868 5.186 -7.895a5.637 5.637 0 0 0 0.099 -5.487C43.306 24.91 39.085 17.3 32.406 6.701c-0.904 -1.435 -2.385 -2.418 -4.076 -2.548a55.728 55.728 0 0 0 -8.504 0.02c-1.701 0.133 -3.22 1.073 -4.149 2.505Zm0.265 24.806 8.125 -14.611 8.124 14.61H15.943Z" clip-rule="evenodd" stroke-width="1"></path><path id="Intersect_2" fill="#469595" d="M9.432 43.193a4.747 4.747 0 0 1 -1.463 -1.188 48.832 48.832 0 0 1 -5.385 -8.016 4.999 4.999 0 0 1 -0.582 -2.507h13.941l-6.511 11.71Z" stroke-width="1"></path><path id="Intersect_3" fill="#469595" d="M45.998 31.482a5.634 5.634 0 0 1 -0.761 2.722c-2.338 4.027 -4.113 6.518 -5.187 7.895a4.12 4.12 0 0 1 -1.333 1.119L32.19 31.482h13.807Z" stroke-width="1"></path><path id="Intersect_4" fill="#469595" d="M17.44 4.952a5.346 5.346 0 0 1 2.387 -0.78 55.73 55.73 0 0 1 8.504 -0.02c0.858 0.066 1.66 0.351 2.362 0.804l-6.626 11.916 -6.628 -11.92Z" stroke-width="1"></path></g></svg>