<svg width="48" height="48" viewBox="0 0 48 48" fill="none" xmlns="http://www.w3.org/2000/svg">
<path d="M4.4165 21.5521C4.4165 24.1238 4.92304 26.6703 5.9072 29.0463C6.89135 31.4223 8.33385 33.5811 10.1523 35.3996C11.9708 37.2181 14.1297 38.6606 16.5056 39.6447C18.8816 40.6289 21.4281 41.1354 23.9998 41.1354C26.5716 41.1354 29.1181 40.6289 31.4941 39.6447C33.87 38.6606 36.0289 37.2181 37.8473 35.3996C39.6658 33.5811 41.1083 31.4223 42.0925 29.0463C43.0766 26.6703 43.5832 24.1238 43.5832 21.5521C43.5832 18.9804 43.0766 16.4338 42.0925 14.0579C41.1083 11.6819 39.6658 9.52306 37.8473 7.70458C36.0289 5.88609 33.87 4.4436 31.4941 3.45944C29.1181 2.47529 26.5716 1.96875 23.9998 1.96875C21.4281 1.96875 18.8816 2.47529 16.5056 3.45944C14.1297 4.4436 11.9708 5.88609 10.1523 7.70458C8.33385 9.52306 6.89135 11.6819 5.9072 14.0579C4.92304 16.4338 4.4165 18.9804 4.4165 21.5521Z" fill="#FFE7D9"/>
<path d="M38.1981 26.448C38.1981 27.2607 37.1014 27.9167 35.7502 27.9167C34.3989 27.9167 33.3022 27.2607 33.3022 26.448C33.3022 25.6353 34.3989 24.9792 35.7502 24.9792C37.1014 24.9792 38.1981 25.6353 38.1981 26.448Z" fill="#FFAA54"/>
<path d="M9.80225 26.448C9.80225 27.2607 10.8989 27.9167 12.2502 27.9167C13.6014 27.9167 14.6981 27.2607 14.6981 26.448C14.6981 25.6353 13.6014 24.9792 12.2502 24.9792C10.8989 24.9792 9.80225 25.6353 9.80225 26.448Z" fill="#FFAA54"/>
<path d="M18.0662 29.3855C17.9339 29.3862 17.8033 29.4155 17.6834 29.4712C17.5634 29.527 17.4569 29.608 17.371 29.7086C17.2864 29.8115 17.2236 29.9305 17.1866 30.0585C17.1495 30.1865 17.139 30.3206 17.1556 30.4528C17.4177 32.0819 18.2515 33.5645 19.5075 34.6346C20.7635 35.7047 22.3597 36.2924 24.0098 36.2924C25.6598 36.2924 27.256 35.7047 28.512 34.6346C29.768 33.5645 30.6018 32.0819 30.8639 30.4528C30.8805 30.3206 30.87 30.1865 30.8329 30.0585C30.7959 29.9305 30.7331 29.8115 30.6485 29.7086C30.5627 29.608 30.4561 29.527 30.3361 29.4712C30.2162 29.4155 30.0856 29.3862 29.9533 29.3855H18.0662Z" fill="#FFB0CA"/>
<path d="M29.4538 33.6351C27.7749 32.7496 25.8975 32.3081 23.9999 32.3524C22.1022 32.3081 20.2248 32.7496 18.5459 33.6351C19.2031 34.4487 20.0339 35.105 20.9777 35.5559C21.9214 36.0067 22.954 36.2407 23.9999 36.2407C25.0457 36.2407 26.0784 36.0067 27.0221 35.5559C27.9658 35.105 28.7966 34.4487 29.4538 33.6351Z" fill="#FF87AF"/>
<path d="M36.0044 18.125L32.8613 19.7015C32.7009 19.7836 32.5663 19.9085 32.4723 20.0622C32.3783 20.216 32.3286 20.3927 32.3286 20.5729C32.3286 20.7531 32.3783 20.9298 32.4723 21.0836C32.5663 21.2374 32.7009 21.3622 32.8613 21.4444L36.0044 23.0208" stroke="#45413C" stroke-width="0.5" stroke-linecap="round" stroke-linejoin="round"/>
<path d="M11.9956 18.125L15.1877 19.7015C15.3481 19.7836 15.4827 19.9085 15.5767 20.0622C15.6707 20.216 15.7204 20.3927 15.7204 20.5729C15.7204 20.7531 15.6707 20.9298 15.5767 21.0836C15.4827 21.2374 15.3481 21.3622 15.1877 21.4444L11.9956 23.0208" stroke="#45413C" stroke-width="0.5" stroke-linecap="round" stroke-linejoin="round"/>
</svg>
