<svg width="48" height="48" viewBox="0 0 48 48" fill="none" xmlns="http://www.w3.org/2000/svg">
<path d="M4.4165 21.5521C4.4165 24.1238 4.92304 26.6703 5.9072 29.0463C6.89135 31.4223 8.33385 33.5811 10.1523 35.3996C11.9708 37.2181 14.1297 38.6606 16.5056 39.6447C18.8816 40.6289 21.4281 41.1354 23.9998 41.1354C26.5716 41.1354 29.1181 40.6289 31.4941 39.6447C33.87 38.6606 36.0289 37.2181 37.8473 35.3996C39.6658 33.5811 41.1083 31.4223 42.0925 29.0463C43.0766 26.6703 43.5832 24.1238 43.5832 21.5521C43.5832 18.9804 43.0766 16.4338 42.0925 14.0579C41.1083 11.6819 39.6658 9.52306 37.8473 7.70458C36.0289 5.88609 33.87 4.4436 31.4941 3.45944C29.1181 2.47529 26.5716 1.96875 23.9998 1.96875C21.4281 1.96875 18.8816 2.47529 16.5056 3.45944C14.1297 4.4436 11.9708 5.88609 10.1523 7.70458C8.33385 9.52306 6.89135 11.6819 5.9072 14.0579C4.92304 16.4338 4.4165 18.9804 4.4165 21.5521Z" fill="#FFE7D9"/>
<path d="M38.1981 26.448C38.1981 27.2607 37.1014 27.9167 35.7502 27.9167C34.3989 27.9167 33.3022 27.2607 33.3022 26.448C33.3022 25.6353 34.3989 24.9792 35.7502 24.9792C37.1014 24.9792 38.1981 25.6353 38.1981 26.448Z" fill="#FFAA54"/>
<path d="M9.80225 26.448C9.80225 27.2607 10.8989 27.9167 12.2502 27.9167C13.6014 27.9167 14.6981 27.2607 14.6981 26.448C14.6981 25.6353 13.6014 24.9792 12.2502 24.9792C10.8989 24.9792 9.80225 25.6353 9.80225 26.448Z" fill="#FFAA54"/>
<path d="M18.0662 29.3855C17.9339 29.3862 17.8033 29.4155 17.6834 29.4712C17.5634 29.527 17.4569 29.608 17.371 29.7086C17.2864 29.8115 17.2236 29.9305 17.1866 30.0585C17.1495 30.1865 17.139 30.3206 17.1556 30.4528C17.4177 32.0819 18.2515 33.5645 19.5075 34.6346C20.7635 35.7047 22.3597 36.2924 24.0098 36.2924C25.6598 36.2924 27.256 35.7047 28.512 34.6346C29.768 33.5645 30.6018 32.0819 30.8639 30.4528C30.8805 30.3206 30.87 30.1865 30.8329 30.0585C30.7959 29.9305 30.7331 29.8115 30.6485 29.7086C30.5627 29.608 30.4561 29.527 30.3361 29.4712C30.2162 29.4155 30.0856 29.3862 29.9533 29.3855H18.0662Z" fill="#FFB0CA"/>
<path d="M29.4538 33.6351C27.7749 32.7496 25.8975 32.3081 23.9999 32.3524C22.1022 32.3081 20.2248 32.7496 18.5459 33.6351C19.2031 34.4487 20.0339 35.105 20.9777 35.5559C21.9214 36.0067 22.954 36.2407 23.9999 36.2407C25.0457 36.2407 26.0784 36.0067 27.0221 35.5559C27.9658 35.105 28.7966 34.4487 29.4538 33.6351Z" fill="#FF87AF"/>
<path d="M10.2915 22.776C10.2915 22.3216 10.472 21.8857 10.7934 21.5644C11.1147 21.243 11.5506 21.0625 12.005 21.0625C12.4595 21.0625 12.8954 21.243 13.2167 21.5644C13.5381 21.8857 13.7186 22.3216 13.7186 22.776" stroke="#45413C" stroke-width="0.5" stroke-linecap="round" stroke-linejoin="round"/>
<path d="M34.2812 22.776C34.2812 22.3216 34.4618 21.8857 34.7831 21.5644C35.1045 21.243 35.5403 21.0625 35.9948 21.0625C36.4493 21.0625 36.8851 21.243 37.2064 21.5644C37.5278 21.8857 37.7083 22.3216 37.7083 22.776" stroke="#45413C" stroke-width="0.5" stroke-linecap="round" stroke-linejoin="round"/>
<path d="M47.0104 33.3021C47.0104 34.6005 46.4946 35.8458 45.5765 36.764C44.6583 37.6821 43.413 38.1979 42.1146 38.1979C40.8161 38.1979 39.5709 37.6821 38.6527 36.764C37.7346 35.8458 37.2188 34.6005 37.2188 33.3021C37.2188 30.5996 42.1146 22.5312 42.1146 22.5312C42.1146 22.5312 47.0104 30.5996 47.0104 33.3021Z" fill="#4ACFFF"/>
<path d="M42.1146 35.7501C41.0439 35.7447 40.0044 35.3884 39.1555 34.7358C38.3066 34.0832 37.6951 33.1703 37.4146 32.137C37.2976 32.5149 37.2318 32.9068 37.2188 33.3022C37.2188 34.6006 37.7346 35.8459 38.6527 36.764C39.5709 37.6822 40.8161 38.198 42.1146 38.198C43.413 38.198 44.6583 37.6822 45.5765 36.764C46.4946 35.8459 47.0104 34.6006 47.0104 33.3022C46.9974 32.9068 46.9315 32.5149 46.8146 32.137C46.5341 33.1703 45.9225 34.0832 45.0736 34.7358C44.2247 35.3884 43.1853 35.7447 42.1146 35.7501Z" fill="#4ACFFF"/>
</svg>
