<svg viewBox="-0.5 -0.5 48 48" xmlns="http://www.w3.org/2000/svg"><path d="M3.9166666666666665 21.052083333333332a19.583333333333332 19.583333333333332 0 1 0 39.166666666666664 0 19.583333333333332 19.583333333333332 0 1 0 -39.166666666666664 0Z" fill="#ffe500" stroke-width="1"></path><path d="M23.5 1.46875a19.583333333333332 19.583333333333332 0 1 0 19.583333333333332 19.583333333333332 19.583333333333332 19.583333333333332 0 0 0 -19.583333333333332 -19.583333333333332Zm0 36.229166666666664a17.869791666666664 17.869791666666664 0 1 1 17.869791666666664 -17.869791666666664A17.869791666666664 17.869791666666664 0 0 1 23.5 37.697916666666664Z" fill="#ebcb00" stroke-width="1"></path><path d="M17.625 5.385416666666666a5.875 1.46875 0 1 0 11.75 0 5.875 1.46875 0 1 0 -11.75 0Z" fill="#fff48c" stroke-width="1"></path><path d="M7.833333333333333 44.55208333333333a15.666666666666666 1.46875 0 1 0 31.333333333333332 0 15.666666666666666 1.46875 0 1 0 -31.333333333333332 0Z" fill="#45413c" opacity=".15" stroke-width="1"></path><path d="M3.9166666666666665 21.052083333333332a19.583333333333332 19.583333333333332 0 1 0 39.166666666666664 0 19.583333333333332 19.583333333333332 0 1 0 -39.166666666666664 0Z" fill="none" stroke="#45413c" stroke-linecap="round" stroke-linejoin="round" stroke-width="1"></path><path d="M37.697916666666664 25.947916666666664c0 0.8127083333333333 -1.0966666666666667 1.46875 -2.4479166666666665 1.46875s-2.4479166666666665 -0.6560416666666666 -2.4479166666666665 -1.46875S33.89875 24.479166666666664 35.25 24.479166666666664s2.4479166666666665 0.6560416666666666 2.4479166666666665 1.46875Z" fill="#ffaa54" stroke-width="1"></path><path d="M9.302083333333332 25.947916666666664c0 0.8127083333333333 1.0966666666666667 1.46875 2.4479166666666665 1.46875s2.4479166666666665 -0.6560416666666666 2.4479166666666665 -1.46875S13.10125 24.479166666666664 11.75 24.479166666666664s-2.4479166666666665 0.6560416666666666 -2.4479166666666665 1.46875Z" fill="#ffaa54" stroke-width="1"></path><path d="M17.56625 28.885416666666664a0.9204166666666665 0.9204166666666665 0 0 0 -0.6952083333333333 0.323125 0.9791666666666666 0.9791666666666666 0 0 0 -0.21541666666666667 0.7441666666666666 6.942291666666666 6.942291666666666 0 0 0 13.708333333333332 0 0.9791666666666666 0.9791666666666666 0 0 0 -0.21541666666666667 -0.7441666666666666 0.9204166666666665 0.9204166666666665 0 0 0 -0.6952083333333333 -0.323125Z" fill="#ffb0ca" stroke="#45413c" stroke-linecap="round" stroke-linejoin="round" stroke-width="1"></path><path d="M28.953958333333333 33.135000000000005A11.133124999999998 11.133124999999998 0 0 0 23.5 31.852291666666666a11.133124999999998 11.133124999999998 0 0 0 -5.4539583333333335 1.2827083333333333 7.010833333333333 7.010833333333333 0 0 0 10.907916666666667 0Z" fill="#ff87af" stroke="#45413c" stroke-linecap="round" stroke-linejoin="round" stroke-width="1"></path><path d="M9.791666666666666 22.276041666666664a1.7135416666666665 1.7135416666666665 0 0 1 3.427083333333333 0" fill="none" stroke="#45413c" stroke-linecap="round" stroke-linejoin="round" stroke-width="1"></path><path d="M33.78125 22.276041666666664a1.7135416666666665 1.7135416666666665 0 0 1 3.427083333333333 0" fill="none" stroke="#45413c" stroke-linecap="round" stroke-linejoin="round" stroke-width="1"></path></svg>