<svg width="14" height="13" viewBox="0 0 14 13" fill="none" xmlns="http://www.w3.org/2000/svg">
<path fill-rule="evenodd" clip-rule="evenodd" d="M13.5 4.08304C13.477 2.50104 12.58 0.943041 11.203 0.301041C10.4629 -0.0449326 9.61856 -0.0946654 8.843 0.162041C8.138 0.386041 7.431 0.845041 6.75 1.56704C6.069 0.845041 5.362 0.387041 4.657 0.162041C3.88144 -0.0946654 3.03706 -0.0449326 2.297 0.301041C0.92 0.943041 0.023 2.50104 0 4.08304V4.09104C0 6.39804 1.372 8.44204 2.826 9.87704C3.48618 10.5329 4.21851 11.112 5.009 11.603C5.347 11.808 5.666 11.973 5.949 12.089C6.22 12.199 6.502 12.283 6.75 12.283C6.998 12.283 7.28 12.199 7.55 12.089C7.834 11.974 8.153 11.809 8.49 11.603C9.28083 11.112 10.0135 10.533 10.674 9.87704C12.128 8.44204 13.5 6.39804 13.5 4.09204V4.08304Z" fill="url(#paint0_linear_1242_4)"/>
<defs>
<linearGradient id="paint0_linear_1242_4" x1="6.75" y1="0" x2="6.75" y2="12.283" gradientUnits="userSpaceOnUse">
<stop stop-color="#FF97C9"/>
<stop offset="1" stop-color="#F97F76"/>
</linearGradient>
</defs>
</svg>
