<svg width="48" height="48" viewBox="0 0 48 48" fill="none" xmlns="http://www.w3.org/2000/svg">
<path d="M4 21.5C4 26.8043 6.10714 31.8914 9.85786 35.6421C13.6086 39.3929 18.6957 41.5 24 41.5C29.3043 41.5 34.3914 39.3929 38.1421 35.6421C41.8929 31.8914 44 26.8043 44 21.5C44 16.1957 41.8929 11.1086 38.1421 7.35786C34.3914 3.60714 29.3043 1.5 24 1.5C18.6957 1.5 13.6086 3.60714 9.85786 7.35786C6.10714 11.1086 4 16.1957 4 21.5Z" fill="#FFE7D9"/>
<path d="M38.5 26.5C38.5 27.33 37.38 28 36 28C34.62 28 33.5 27.33 33.5 26.5C33.5 25.67 34.62 25 36 25C37.38 25 38.5 25.67 38.5 26.5Z" fill="#FFAA54"/>
<path d="M9.5 26.5C9.5 27.33 10.62 28 12 28C13.38 28 14.5 27.33 14.5 26.5C14.5 25.67 13.38 25 12 25C10.62 25 9.5 25.67 9.5 26.5Z" fill="#FFAA54"/>
<path d="M14.5 21C14.5 21.1978 14.4414 21.3911 14.3315 21.5556C14.2216 21.72 14.0654 21.8482 13.8827 21.9239C13.7 21.9996 13.4989 22.0194 13.3049 21.9808C13.1109 21.9422 12.9327 21.847 12.7929 21.7071C12.653 21.5673 12.5578 21.3891 12.5192 21.1951C12.4806 21.0011 12.5004 20.8 12.5761 20.6173C12.6518 20.4346 12.78 20.2784 12.9444 20.1685C13.1089 20.0586 13.3022 20 13.5 20C13.7652 20 14.0196 20.1054 14.2071 20.2929C14.3946 20.4804 14.5 20.7348 14.5 21Z" fill="#45413C" stroke="#45413C" stroke-linecap="round" stroke-linejoin="round"/>
<path d="M33.5 21C33.5 21.1978 33.5586 21.3911 33.6685 21.5556C33.7784 21.72 33.9346 21.8482 34.1173 21.9239C34.3 21.9996 34.5011 22.0194 34.6951 21.9808C34.8891 21.9422 35.0673 21.847 35.2071 21.7071C35.347 21.5673 35.4422 21.3891 35.4808 21.1951C35.5194 21.0011 35.4996 20.8 35.4239 20.6173C35.3482 20.4346 35.22 20.2784 35.0556 20.1685C34.8911 20.0586 34.6978 20 34.5 20C34.2348 20 33.9804 20.1054 33.7929 20.2929C33.6054 20.4804 33.5 20.7348 33.5 21Z" fill="#45413C" stroke="#45413C" stroke-linecap="round" stroke-linejoin="round"/>
<path d="M25.5 32C25.5 32.2967 25.412 32.5867 25.2472 32.8334C25.0824 33.08 24.8481 33.2723 24.574 33.3858C24.2999 33.4993 23.9983 33.5291 23.7074 33.4712C23.4164 33.4133 23.1491 33.2704 22.9393 33.0607C22.7296 32.8509 22.5867 32.5836 22.5288 32.2926C22.4709 32.0017 22.5007 31.7001 22.6142 31.426C22.7277 31.1519 22.92 30.9176 23.1666 30.7528C23.4133 30.588 23.7033 30.5 24 30.5C24.3978 30.5 24.7794 30.658 25.0607 30.9393C25.342 31.2206 25.5 31.6022 25.5 32Z" fill="#FFB0CA"/>
</svg>
