<svg width="14" height="14" viewBox="0 0 14 14" fill="none" xmlns="http://www.w3.org/2000/svg">
<g clip-path="url(#clip0_1458_4)">
<path fill-rule="evenodd" clip-rule="evenodd" d="M10.1034 1.52275C10.1477 1.43464 10.2089 1.35612 10.2835 1.29168C10.3581 1.22725 10.4447 1.17816 10.5384 1.14723C10.632 1.1163 10.7308 1.10414 10.8291 1.11143C10.9274 1.11873 11.0234 1.14534 11.1114 1.18975C11.7958 1.52995 12.3853 2.03428 12.8274 2.65775C12.8852 2.73807 12.9266 2.82905 12.9491 2.92544C12.9716 3.02183 12.9748 3.12172 12.9586 3.21935C12.9423 3.31698 12.9068 3.41042 12.8543 3.49429C12.8017 3.57816 12.7331 3.6508 12.6523 3.70801C12.5715 3.76522 12.4802 3.80588 12.3837 3.82764C12.2871 3.8494 12.1872 3.85183 12.0897 3.8348C11.9922 3.81776 11.899 3.78159 11.8156 3.72838C11.7321 3.67517 11.66 3.60596 11.6034 3.52475C11.3029 3.10147 10.9019 2.75955 10.4364 2.52975C10.2587 2.44037 10.1238 2.28406 10.0614 2.09521C9.99891 1.90637 10.014 1.70045 10.1034 1.52275Z" fill="#469595"/>
<path fill-rule="evenodd" clip-rule="evenodd" d="M13.0169 9.02049C12.821 8.98766 12.6461 8.87847 12.5306 8.71687C12.4151 8.55526 12.3685 8.35445 12.4009 8.15849C12.4609 7.80249 12.4909 7.41749 12.4909 7.00049C12.4909 6.58349 12.4609 6.19749 12.4009 5.84249C12.3681 5.64623 12.4147 5.44499 12.5303 5.28306C12.6459 5.12112 12.8211 5.01174 13.0174 4.97899C13.2136 4.94623 13.4149 4.99279 13.5768 5.1084C13.7387 5.22402 13.8481 5.39923 13.8809 5.59549C13.9549 6.04049 13.9909 6.50949 13.9909 7.00049C13.9909 7.49049 13.9549 7.96049 13.8809 8.40549C13.8646 8.50268 13.8294 8.59573 13.7772 8.6793C13.7249 8.76287 13.6568 8.83533 13.5765 8.89253C13.4963 8.94974 13.4056 8.99058 13.3095 9.0127C13.2135 9.03483 13.114 9.03682 13.0169 9.02049Z" fill="#469595"/>
<path fill-rule="evenodd" clip-rule="evenodd" d="M2.905 2.905C2.021 3.79 1.5 5.138 1.5 7C1.5 8.862 2.021 10.21 2.905 11.095C3.79 11.979 5.138 12.5 7 12.5C9.365 12.5 10.915 11.664 11.742 10.254C11.8458 10.0889 12.0097 9.97075 12.1991 9.92451C12.3885 9.87827 12.5885 9.90762 12.7567 10.0063C12.9248 10.105 13.0479 10.2653 13.0999 10.4532C13.1518 10.6412 13.1286 10.8419 13.035 11.013C11.867 13.005 9.738 14 7 14C4.862 14 3.086 13.396 1.845 12.155C0.604 10.915 0 9.138 0 7C0 4.862 0.604 3.086 1.845 1.845C3.085 0.604 4.862 0 7 0H7.006C7.326 0.003 8.15 0.03 8.656 0.144C8.75458 0.162998 8.84834 0.201596 8.93173 0.257504C9.01512 0.313412 9.08644 0.385493 9.14145 0.469474C9.19646 0.553455 9.23405 0.647626 9.252 0.746405C9.26994 0.845184 9.26787 0.94656 9.24591 1.04452C9.22394 1.14249 9.18254 1.23504 9.12414 1.31671C9.06574 1.39837 8.99154 1.46748 8.90594 1.51993C8.82034 1.57239 8.72507 1.60712 8.6258 1.62208C8.52652 1.63704 8.42526 1.63191 8.328 1.607C7.998 1.533 7.324 1.503 6.997 1.5C5.137 1.5 3.789 2.022 2.905 2.905Z" fill="#C6DFDF"/>
<path fill-rule="evenodd" clip-rule="evenodd" d="M7 4C7.19891 4 7.38968 4.07902 7.53033 4.21967C7.67098 4.36032 7.75 4.55109 7.75 4.75V6.972L9.63 9.164C9.75633 9.31532 9.81801 9.51029 9.8017 9.70674C9.78538 9.90318 9.69238 10.0853 9.54282 10.2137C9.39325 10.3421 9.19915 10.4065 9.00249 10.3929C8.80584 10.3793 8.62245 10.2888 8.492 10.141L6.431 7.738C6.31435 7.60215 6.25015 7.42906 6.25 7.25V4.75C6.25 4.55109 6.32902 4.36032 6.46967 4.21967C6.61032 4.07902 6.80109 4 7 4Z" fill="#469595"/>
</g>
<defs>
<clipPath id="clip0_1458_4">
<rect width="14" height="14" fill="white"/>
</clipPath>
</defs>
</svg>
