<svg viewBox="0 0 48 48" xmlns="http://www.w3.org/2000/svg"><path d="M1.5 24.83a15.33 15.33 0 1 0 30.66 0 15.33 15.33 0 1 0 -30.66 0Z" fill="#ffe500" stroke-width="1"></path><path d="M16.83 9.5a15.33 15.33 0 1 0 15.33 15.33A15.33 15.33 0 0 0 16.83 9.5Zm0 28.36a14 14 0 1 1 14 -14 14 14 0 0 1 -14 14Z" fill="#ebcb00" stroke-width="1"></path><path d="M12.23 12.57a4.6 1.15 0 1 0 9.2 0 4.6 1.15 0 1 0 -9.2 0Z" fill="#fff48c" stroke-width="1"></path><path d="M4.57 45.5a12.26 1.5 0 1 0 24.52 0 12.26 1.5 0 1 0 -24.52 0Z" fill="#45413c" opacity=".15" stroke-width="1"></path><path d="M1.5 24.83a15.33 15.33 0 1 0 30.66 0 15.33 15.33 0 1 0 -30.66 0Z" fill="none" stroke="#45413c" stroke-linecap="round" stroke-linejoin="round" stroke-width="1"></path><path d="M16.83 29.63a1.53 1.53 0 1 1 0.77 2.86 1.54 1.54 0 0 1 0 3.07 1.57 1.57 0 0 1 -0.78 -0.21" fill="none" stroke="#45413c" stroke-linecap="round" stroke-linejoin="round" stroke-width="1"></path><path d="M5.72 28.66c0 0.64 0.85 1.15 1.91 1.15s1.92 -0.51 1.92 -1.15 -0.86 -1.15 -1.92 -1.15 -1.91 0.49 -1.91 1.15Z" fill="#ffaa54" stroke-width="1"></path><path d="M27.94 28.66c0 0.64 -0.86 1.15 -1.91 1.15s-1.92 -0.51 -1.92 -1.15 0.89 -1.15 1.89 -1.15 1.94 0.49 1.94 1.15Z" fill="#ffaa54" stroke-width="1"></path><path d="M9.55 24.45a0.77 0.77 0 1 1 -0.77 -0.77 0.77 0.77 0 0 1 0.77 0.77Z" fill="#45413c" stroke="#45413c" stroke-linecap="round" stroke-linejoin="round" stroke-width="1"></path><path d="M24.11 24.45a0.77 0.77 0 1 0 0.77 -0.77 0.76 0.76 0 0 0 -0.77 0.77Z" fill="#45413c" stroke="#45413c" stroke-linecap="round" stroke-linejoin="round" stroke-width="1"></path><path d="M37.88 17a1.65 1.65 0 1 1 -1.64 -1.64A1.65 1.65 0 0 1 37.88 17Z" fill="none" stroke="#48cf3e" stroke-linecap="round" stroke-linejoin="round" stroke-width="1"></path><path d="M46.09 15.31a1.65 1.65 0 1 1 -1.64 -1.65 1.65 1.65 0 0 1 1.64 1.65Z" fill="none" stroke="#48cf3e" stroke-linecap="round" stroke-linejoin="round" stroke-width="1"></path><path d="m37.88 16.95 0 -7.39 8.21 -3.29 0 9.03" fill="none" stroke="#48cf3e" stroke-linecap="round" stroke-linejoin="round" stroke-width="1"></path><path d="M36.11 40.55a1.62 1.62 0 1 1 -1.61 -1.61 1.62 1.62 0 0 1 1.61 1.61Z" fill="none" stroke="#ff4064" stroke-linecap="round" stroke-linejoin="round" stroke-width="1"></path><path d="m36.11 40.55 0 -7.27 2.42 1.62" fill="none" stroke="#ff4064" stroke-linecap="round" stroke-linejoin="round" stroke-width="1"></path><path d="M27.1 7.36a1 1 0 1 1 -1.05 -1 1 1 0 0 1 1.05 1Z" fill="none" stroke="#ffb700" stroke-linecap="round" stroke-linejoin="round" stroke-width="1"></path><path d="m27.1 7.36 0 -4.7 1.57 1.04" fill="none" stroke="#ffb700" stroke-linecap="round" stroke-linejoin="round" stroke-width="1"></path><path d="m38.81 23.83 0 -0.58" fill="none" stroke="#00aed9" stroke-linecap="round" stroke-linejoin="round" stroke-width="1"></path><path d="m40.03 24.33 0.4 -0.4" fill="none" stroke="#00aed9" stroke-linecap="round" stroke-linejoin="round" stroke-width="1"></path><path d="m40.53 25.55 0.58 0" fill="none" stroke="#00aed9" stroke-linecap="round" stroke-linejoin="round" stroke-width="1"></path><path d="m40.03 26.77 0.4 0.41" fill="none" stroke="#00aed9" stroke-linecap="round" stroke-linejoin="round" stroke-width="1"></path><path d="m38.81 27.28 0 0.57" fill="none" stroke="#00aed9" stroke-linecap="round" stroke-linejoin="round" stroke-width="1"></path><path d="m37.59 26.77 -0.41 0.41" fill="none" stroke="#00aed9" stroke-linecap="round" stroke-linejoin="round" stroke-width="1"></path><path d="m37.08 25.55 -0.57 0" fill="none" stroke="#00aed9" stroke-linecap="round" stroke-linejoin="round" stroke-width="1"></path><path d="m37.59 24.33 -0.41 -0.4" fill="none" stroke="#00aed9" stroke-linecap="round" stroke-linejoin="round" stroke-width="1"></path><path d="m44.47 32 0 -3.06" fill="none" stroke="#00aed9" stroke-linecap="round" stroke-linejoin="round" stroke-width="1"></path><path d="m42.94 30.47 3.07 0" fill="none" stroke="#00aed9" stroke-linecap="round" stroke-linejoin="round" stroke-width="1"></path><path d="m41.11 4.19 0 -1.53" fill="none" stroke="#00aed9" stroke-linecap="round" stroke-linejoin="round" stroke-width="1"></path><path d="m40.34 3.43 1.53 0" fill="none" stroke="#00aed9" stroke-linecap="round" stroke-linejoin="round" stroke-width="1"></path><path d="m42.15 39.26 0 -1.54" fill="none" stroke="#00aed9" stroke-linecap="round" stroke-linejoin="round" stroke-width="1"></path><path d="m41.38 38.49 1.53 0" fill="none" stroke="#00aed9" stroke-linecap="round" stroke-linejoin="round" stroke-width="1"></path><path d="m31.23 9.37 0 -1.54" fill="none" stroke="#00aed9" stroke-linecap="round" stroke-linejoin="round" stroke-width="1"></path><path d="m30.46 8.6 1.53 0" fill="none" stroke="#00aed9" stroke-linecap="round" stroke-linejoin="round" stroke-width="1"></path></svg>