<svg width="48" height="48" viewBox="0 0 48 48" fill="none" xmlns="http://www.w3.org/2000/svg">
<path d="M1.5 24.83C1.5 26.8432 1.89652 28.8366 2.66693 30.6965C3.43733 32.5565 4.56653 34.2464 5.99005 35.6699C7.41357 37.0935 9.10354 38.2227 10.9635 38.9931C12.8234 39.7635 14.8168 40.16 16.83 40.16C18.8432 40.16 20.8366 39.7635 22.6965 38.9931C24.5565 38.2227 26.2464 37.0935 27.6699 35.6699C29.0935 34.2464 30.2227 32.5565 30.9931 30.6965C31.7635 28.8366 32.16 26.8432 32.16 24.83C32.16 22.8168 31.7635 20.8234 30.9931 18.9635C30.2227 17.1035 29.0935 15.4136 27.6699 13.9901C26.2464 12.5665 24.5565 11.4373 22.6965 10.6669C20.8366 9.89652 18.8432 9.5 16.83 9.5C14.8168 9.5 12.8234 9.89652 10.9635 10.6669C9.10354 11.4373 7.41358 12.5665 5.99005 13.9901C4.56653 15.4136 3.43733 17.1035 2.66693 18.9635C1.89652 20.8234 1.5 22.8168 1.5 24.83Z" fill="#FFE7D9"/>
<path d="M16.8298 29.6301C17.033 29.5146 17.2599 29.4472 17.4931 29.433C17.7263 29.4188 17.9597 29.4582 18.1754 29.5482C18.391 29.6382 18.5832 29.7765 18.7371 29.9523C18.891 30.1281 19.0027 30.3368 19.0634 30.5624C19.1242 30.7881 19.1324 31.0246 19.0876 31.2539C19.0427 31.4833 18.9459 31.6993 18.8046 31.8854C18.6633 32.0715 18.4812 32.2227 18.2724 32.3276C18.0636 32.4324 17.8335 32.488 17.5998 32.4901C17.9855 32.5213 18.3454 32.6965 18.6078 32.9809C18.8701 33.2654 19.0158 33.6381 19.0158 34.0251C19.0158 34.4121 18.8701 34.7849 18.6078 35.0693C18.3454 35.3537 17.9855 35.529 17.5998 35.5601C17.326 35.5593 17.0571 35.4869 16.8198 35.3501" stroke="#45413C" stroke-width="0.5" stroke-linecap="round" stroke-linejoin="round"/>
<path d="M5.72021 28.66C5.72021 29.3 6.57022 29.81 7.63022 29.81C8.69022 29.81 9.55022 29.3 9.55022 28.66C9.55022 28.02 8.69022 27.51 7.63022 27.51C6.57022 27.51 5.72021 28 5.72021 28.66Z" fill="#FFAA54"/>
<path d="M27.9399 28.66C27.9399 29.3 27.0799 29.81 26.0299 29.81C24.9799 29.81 24.1099 29.3 24.1099 28.66C24.1099 28.02 24.9999 27.51 25.9999 27.51C26.9999 27.51 27.9399 28 27.9399 28.66Z" fill="#FFAA54"/>
<path d="M9.54977 24.4499C9.54977 24.6022 9.50461 24.7511 9.42 24.8777C9.33539 25.0043 9.21513 25.103 9.07443 25.1613C8.93373 25.2196 8.77891 25.2348 8.62955 25.2051C8.48018 25.1754 8.34298 25.1021 8.23529 24.9944C8.12761 24.8867 8.05427 24.7495 8.02456 24.6002C7.99485 24.4508 8.0101 24.296 8.06838 24.1553C8.12666 24.0146 8.22535 23.8943 8.35198 23.8097C8.4786 23.7251 8.62747 23.6799 8.77977 23.6799C8.98398 23.6799 9.17984 23.7611 9.32424 23.9055C9.46864 24.0499 9.54977 24.2457 9.54977 24.4499Z" fill="#45413C" stroke="#45413C" stroke-width="0.4" stroke-linecap="round" stroke-linejoin="round"/>
<path d="M24.1099 24.45C24.1099 24.6023 24.1551 24.7512 24.2397 24.8778C24.3243 25.0044 24.4446 25.1031 24.5853 25.1614C24.726 25.2197 24.8808 25.2349 25.0301 25.2052C25.1795 25.1755 25.3167 25.1022 25.4244 24.9945C25.5321 24.8868 25.6054 24.7496 25.6351 24.6002C25.6648 24.4509 25.6496 24.296 25.5913 24.1553C25.533 24.0146 25.4343 23.8944 25.3077 23.8098C25.1811 23.7252 25.0322 23.68 24.8799 23.68C24.7784 23.6787 24.6777 23.6977 24.5837 23.7359C24.4897 23.7741 24.4042 23.8308 24.3325 23.9025C24.2607 23.9743 24.204 24.0597 24.1658 24.1537C24.1276 24.2478 24.1086 24.3485 24.1099 24.45Z" fill="#45413C" stroke="#45413C" stroke-width="0.4" stroke-linecap="round" stroke-linejoin="round"/>
<path d="M37.88 16.9999C37.882 17.3271 37.7867 17.6475 37.6061 17.9203C37.4256 18.1932 37.168 18.4062 36.8661 18.5324C36.5642 18.6585 36.2316 18.692 35.9106 18.6286C35.5896 18.5653 35.2947 18.4079 35.0634 18.1766C34.832 17.9452 34.6746 17.6503 34.6113 17.3293C34.548 17.0083 34.5815 16.6757 34.7076 16.3738C34.8337 16.0719 35.0467 15.8143 35.3196 15.6338C35.5925 15.4533 35.9129 15.3579 36.24 15.3599C36.6742 15.3625 37.0898 15.5361 37.3968 15.8431C37.7038 16.1501 37.8774 16.5657 37.88 16.9999Z" stroke="#48CF3E" stroke-linecap="round" stroke-linejoin="round"/>
<path d="M46.09 15.3099C46.09 15.6367 45.993 15.9561 45.8113 16.2277C45.6295 16.4992 45.3712 16.7107 45.0691 16.8353C44.7671 16.9599 44.4348 16.9919 44.1144 16.9275C43.7941 16.863 43.5001 16.7048 43.2698 16.4731C43.0394 16.2413 42.8831 15.9464 42.8205 15.6257C42.758 15.3049 42.7921 14.9729 42.9185 14.6716C43.0449 14.3702 43.258 14.1132 43.5306 13.9331C43.8033 13.753 44.1233 13.658 44.45 13.6599C44.8859 13.6626 45.303 13.8376 45.6103 14.1467C45.9176 14.4559 46.09 14.8741 46.09 15.3099Z" stroke="#48CF3E" stroke-linecap="round" stroke-linejoin="round"/>
<path d="M37.8799 16.95V9.56002L46.0899 6.27002V15.3" stroke="#48CF3E" stroke-linecap="round" stroke-linejoin="round"/>
<path d="M36.1101 40.55C36.1121 40.8712 36.0185 41.1858 35.8412 41.4537C35.664 41.7217 35.4111 41.9309 35.1147 42.0547C34.8182 42.1786 34.4917 42.2115 34.1765 42.1493C33.8613 42.0871 33.5718 41.9326 33.3446 41.7055C33.1174 41.4783 32.9629 41.1887 32.9008 40.8735C32.8386 40.5584 32.8715 40.2318 32.9953 39.9354C33.1192 39.639 33.3284 39.3861 33.5963 39.2088C33.8643 39.0316 34.1788 38.938 34.5001 38.94C34.9263 38.9426 35.3343 39.1131 35.6356 39.4144C35.937 39.7158 36.1075 40.1238 36.1101 40.55Z" stroke="#FF4064" stroke-linecap="round" stroke-linejoin="round"/>
<path d="M36.1099 40.55V33.28L38.5299 34.9" stroke="#FF4064" stroke-linecap="round" stroke-linejoin="round"/>
<path d="M27.1001 7.35989C27.0999 7.55549 27.0422 7.74672 26.9344 7.90992C26.8266 8.07311 26.6733 8.2011 26.4934 8.27803C26.3136 8.35497 26.1152 8.37748 25.9227 8.34278C25.7302 8.30807 25.5521 8.21768 25.4104 8.08278C25.2688 7.94788 25.1698 7.77441 25.1258 7.58384C25.0817 7.39326 25.0945 7.19396 25.1626 7.01059C25.2307 6.82722 25.3511 6.66784 25.5088 6.55219C25.6665 6.43653 25.8547 6.36967 26.0501 6.35989C26.1856 6.35311 26.321 6.37396 26.4482 6.42117C26.5753 6.46838 26.6915 6.54096 26.7898 6.6345C26.888 6.72805 26.9661 6.84059 27.0195 6.9653C27.0728 7.09 27.1003 7.22426 27.1001 7.35989Z" stroke="#FFB700" stroke-linecap="round" stroke-linejoin="round"/>
<path d="M27.1001 7.35991V2.65991L28.6701 3.69991" stroke="#FFB700" stroke-linecap="round" stroke-linejoin="round"/>
<path d="M38.8101 23.83V23.25" stroke="#00AED9" stroke-linecap="round" stroke-linejoin="round"/>
<path d="M40.0298 24.3299L40.4298 23.9299" stroke="#00AED9" stroke-linecap="round" stroke-linejoin="round"/>
<path d="M40.5298 25.55H41.1098" stroke="#00AED9" stroke-linecap="round" stroke-linejoin="round"/>
<path d="M40.0298 26.77L40.4298 27.18" stroke="#00AED9" stroke-linecap="round" stroke-linejoin="round"/>
<path d="M38.8101 27.28V27.85" stroke="#00AED9" stroke-linecap="round" stroke-linejoin="round"/>
<path d="M37.5902 26.77L37.1802 27.18" stroke="#00AED9" stroke-linecap="round" stroke-linejoin="round"/>
<path d="M37.0798 25.55H36.5098" stroke="#00AED9" stroke-linecap="round" stroke-linejoin="round"/>
<path d="M37.5902 24.3299L37.1802 23.9299" stroke="#00AED9" stroke-linecap="round" stroke-linejoin="round"/>
<path d="M44.4702 31.9999V28.9399" stroke="#00AED9" stroke-linecap="round" stroke-linejoin="round"/>
<path d="M42.9399 30.47H46.0099" stroke="#00AED9" stroke-linecap="round" stroke-linejoin="round"/>
<path d="M41.1099 4.18991V2.65991" stroke="#00AED9" stroke-linecap="round" stroke-linejoin="round"/>
<path d="M40.3398 3.42993H41.8698" stroke="#00AED9" stroke-linecap="round" stroke-linejoin="round"/>
<path d="M42.1499 39.26V37.72" stroke="#00AED9" stroke-linecap="round" stroke-linejoin="round"/>
<path d="M41.3799 38.49H42.9099" stroke="#00AED9" stroke-linecap="round" stroke-linejoin="round"/>
<path d="M31.23 9.37008V7.83008" stroke="#00AED9" stroke-linecap="round" stroke-linejoin="round"/>
<path d="M30.46 8.6001H31.99" stroke="#00AED9" stroke-linecap="round" stroke-linejoin="round"/>
</svg>
