<svg viewBox="0 0 48 48" xmlns="http://www.w3.org/2000/svg"><path d="M8 45.5a16 1.5 0 1 0 32 0 16 1.5 0 1 0 -32 0Z" fill="#45413c" opacity=".15" stroke-width="1"></path><path d="M4 21.5a20 20 0 1 0 40 0 20 20 0 1 0 -40 0Z" fill="#ffe500" stroke-width="1"></path><path d="M24 1.5a20 20 0 1 0 20 20 20 20 0 0 0 -20 -20Zm0 37a18.25 18.25 0 1 1 18.25 -18.25A18.25 18.25 0 0 1 24 38.5Z" fill="#ebcb00" stroke-width="1"></path><path d="M18 5.5a6 1.5 0 1 0 12 0 6 1.5 0 1 0 -12 0Z" fill="#fff48c" stroke-width="1"></path><path d="m17 21.5 -8.5 0" fill="none" stroke="#45413c" stroke-linecap="round" stroke-linejoin="round" stroke-width="1"></path><path d="m31 21.5 8.5 0" fill="none" stroke="#45413c" stroke-linecap="round" stroke-linejoin="round" stroke-width="1"></path><path d="M17.94 29.5a0.94 0.94 0 0 0 -0.71 0.33 1 1 0 0 0 -0.22 0.76 7.09 7.09 0 0 0 14 0 1 1 0 0 0 -0.22 -0.76 0.94 0.94 0 0 0 -0.71 -0.33Z" fill="#ffb0ca" stroke="#45413c" stroke-linecap="round" stroke-linejoin="round" stroke-width="1"></path><path d="M29.57 33.84A11.37 11.37 0 0 0 24 32.53a11.37 11.37 0 0 0 -5.57 1.31 7.16 7.16 0 0 0 11.14 0Z" fill="#ff87af" stroke="#45413c" stroke-linecap="round" stroke-linejoin="round" stroke-width="1"></path><path d="M10.5 36.26a20 20 0 0 0 5 3.35V21.5h-5Z" fill="#4aeff7" stroke="#45413c" stroke-linecap="round" stroke-linejoin="round" stroke-width="1"></path><path d="M37.5 36.26a20 20 0 0 1 -5 3.35V21.5h5Z" fill="#4aeff7" stroke="#45413c" stroke-linecap="round" stroke-linejoin="round" stroke-width="1"></path><path d="M4 21.5a20 20 0 1 0 40 0 20 20 0 1 0 -40 0Z" fill="none" stroke="#45413c" stroke-linecap="round" stroke-linejoin="round" stroke-width="1"></path></svg>