<svg width="48" height="48" viewBox="0 0 48 48" fill="none" xmlns="http://www.w3.org/2000/svg">
<path d="M4 21.5C4 26.8043 6.10714 31.8914 9.85786 35.6421C13.6086 39.3929 18.6957 41.5 24 41.5C29.3043 41.5 34.3914 39.3929 38.1421 35.6421C41.8929 31.8914 44 26.8043 44 21.5C44 16.1957 41.8929 11.1086 38.1421 7.35786C34.3914 3.60714 29.3043 1.5 24 1.5C18.6957 1.5 13.6086 3.60714 9.85786 7.35786C6.10714 11.1086 4 16.1957 4 21.5Z" fill="#FFE7D9"/>
<path d="M38.5 27C38.5 27.83 37.38 28.5 36 28.5C34.62 28.5 33.5 27.83 33.5 27C33.5 26.17 34.62 25.5 36 25.5C37.38 25.5 38.5 26.17 38.5 27Z" fill="#FFAA54"/>
<path d="M9.5 27C9.5 27.83 10.62 28.5 12 28.5C13.38 28.5 14.5 27.83 14.5 27C14.5 26.17 13.38 25.5 12 25.5C10.62 25.5 9.5 26.17 9.5 27Z" fill="#FFAA54"/>
<path d="M14.5 21.5C14.5 21.6978 14.4414 21.8911 14.3315 22.0556C14.2216 22.22 14.0654 22.3482 13.8827 22.4239C13.7 22.4996 13.4989 22.5194 13.3049 22.4808C13.1109 22.4422 12.9327 22.347 12.7929 22.2071C12.653 22.0673 12.5578 21.8891 12.5192 21.6951C12.4806 21.5011 12.5004 21.3 12.5761 21.1173C12.6518 20.9346 12.78 20.7784 12.9444 20.6685C13.1089 20.5586 13.3022 20.5 13.5 20.5C13.7652 20.5 14.0196 20.6054 14.2071 20.7929C14.3946 20.9804 14.5 21.2348 14.5 21.5Z" fill="#45413C" stroke="#45413C" stroke-width="0.5" stroke-linecap="round" stroke-linejoin="round"/>
<path d="M33.5 21.5C33.5 21.6978 33.5586 21.8911 33.6685 22.0556C33.7784 22.22 33.9346 22.3482 34.1173 22.4239C34.3 22.4996 34.5011 22.5194 34.6951 22.4808C34.8891 22.4422 35.0673 22.347 35.2071 22.2071C35.347 22.0673 35.4422 21.8891 35.4808 21.6951C35.5194 21.5011 35.4996 21.3 35.4239 21.1173C35.3482 20.9346 35.22 20.7784 35.0556 20.6685C34.8911 20.5586 34.6978 20.5 34.5 20.5C34.2348 20.5 33.9804 20.6054 33.7929 20.7929C33.6054 20.9804 33.5 21.2348 33.5 21.5Z" fill="#45413C" stroke="#45413C" stroke-width="0.5" stroke-linecap="round" stroke-linejoin="round"/>
<path d="M18.5 29.02H29.5" stroke="#45413C" stroke-width="0.5" stroke-linecap="round" stroke-linejoin="round"/>
<path d="M30.54 31.54C29.8853 30.8726 29.5186 29.975 29.5186 29.04C29.5186 28.1051 29.8853 27.2075 30.54 26.54" stroke="#45413C" stroke-width="0.5" stroke-linecap="round" stroke-linejoin="round"/>
<path d="M17.46 26.5C18.1147 27.1674 18.4815 28.0651 18.4815 29C18.4815 29.9349 18.1147 30.8326 17.46 31.5" stroke="#45413C" stroke-width="0.5" stroke-linecap="round" stroke-linejoin="round"/>
</svg>
