<svg width="48" height="48" viewBox="0 0 48 48" fill="none" xmlns="http://www.w3.org/2000/svg">
<path d="M4.4165 21.5521C4.4165 24.1238 4.92304 26.6703 5.9072 29.0463C6.89135 31.4223 8.33385 33.5811 10.1523 35.3996C11.9708 37.2181 14.1297 38.6606 16.5056 39.6447C18.8816 40.6289 21.4281 41.1354 23.9998 41.1354C26.5716 41.1354 29.1181 40.6289 31.4941 39.6447C33.87 38.6606 36.0289 37.2181 37.8473 35.3996C39.6658 33.5811 41.1083 31.4223 42.0925 29.0463C43.0766 26.6703 43.5832 24.1238 43.5832 21.5521C43.5832 18.9804 43.0766 16.4338 42.0925 14.0579C41.1083 11.6819 39.6658 9.52306 37.8473 7.70458C36.0289 5.88609 33.87 4.4436 31.4941 3.45944C29.1181 2.47529 26.5716 1.96875 23.9998 1.96875C21.4281 1.96875 18.8816 2.47529 16.5056 3.45944C14.1297 4.4436 11.9708 5.88609 10.1523 7.70458C8.33385 9.52306 6.89135 11.6819 5.9072 14.0579C4.92304 16.4338 4.4165 18.9804 4.4165 21.5521Z" fill="#FFE7D9"/>
<path d="M14.6981 20.5729C14.6981 20.7666 14.6407 20.9559 14.5331 21.1169C14.4255 21.2779 14.2725 21.4034 14.0936 21.4775C13.9147 21.5517 13.7178 21.571 13.5279 21.5333C13.3379 21.4955 13.1635 21.4022 13.0265 21.2653C12.8896 21.1284 12.7963 20.9539 12.7586 20.7639C12.7208 20.574 12.7402 20.3771 12.8143 20.1982C12.8884 20.0193 13.0139 19.8664 13.1749 19.7588C13.3359 19.6512 13.5253 19.5938 13.7189 19.5938C13.9786 19.5938 14.2277 19.6969 14.4113 19.8805C14.5949 20.0642 14.6981 20.3132 14.6981 20.5729Z" fill="#45413C" stroke="#45413C" stroke-width="0.5" stroke-linecap="round" stroke-linejoin="round"/>
<path d="M33.3022 20.5729C33.3022 20.7666 33.3597 20.9559 33.4673 21.1169C33.5749 21.2779 33.7278 21.4034 33.9067 21.4775C34.0856 21.5517 34.2825 21.571 34.4724 21.5333C34.6624 21.4955 34.8369 21.4022 34.9738 21.2653C35.1107 21.1284 35.204 20.9539 35.2418 20.7639C35.2795 20.574 35.2602 20.3771 35.186 20.1982C35.1119 20.0193 34.9864 19.8664 34.8254 19.7588C34.6644 19.6512 34.4751 19.5938 34.2814 19.5938C34.0217 19.5938 33.7727 19.6969 33.589 19.8805C33.4054 20.0642 33.3022 20.3132 33.3022 20.5729Z" fill="#45413C" stroke="#45413C" stroke-width="0.5" stroke-linecap="round" stroke-linejoin="round"/>
<path d="M38.1981 26.448C38.1981 27.2607 37.1014 27.9167 35.7502 27.9167C34.3989 27.9167 33.3022 27.2607 33.3022 26.448C33.3022 25.6353 34.3989 24.9792 35.7502 24.9792C37.1014 24.9792 38.1981 25.6353 38.1981 26.448Z" fill="#FFAA54"/>
<path d="M9.80225 26.448C9.80225 27.2607 10.8989 27.9167 12.2502 27.9167C13.6014 27.9167 14.6981 27.2607 14.6981 26.448C14.6981 25.6353 13.6014 24.9792 12.2502 24.9792C10.8989 24.9792 9.80225 25.6353 9.80225 26.448Z" fill="#FFAA54"/>
<path d="M19.104 30.8542H28.8957" stroke="#45413C" stroke-width="0.5" stroke-linecap="round" stroke-linejoin="round"/>
</svg>
