<svg xmlns="http://www.w3.org/2000/svg" viewBox="0 0 14 14" version="1.1">
	<path d="M10.960992000000001 0.31542000000000003C10.53087 0.38248 10.174066000000002 0.55125 9.879226000000001 0.827106C9.731078 0.96572 6.059704 5.125638 5.994716 5.22851C5.951484 5.29697 5.9308760000000005 5.38398 5.681032 6.553386C5.427099999999999 7.74193 5.413603999999999 7.812755999999999 5.41324 7.9590000000000005C5.412792 8.141392 5.436592 8.243970000000001 5.51782 8.409548000000001C5.652528 8.684172 5.917422 8.899253999999999 6.214740000000001 8.975427999999999C6.353984 9.011099999999999 6.565174 9.010764 6.706 8.974644000000001C6.860966 8.934898 9.119292000000002 8.223166 9.190818 8.191526000000001C9.22446 8.176644000000001 9.299164 8.118236000000001 9.356816 8.061732C9.414468 8.005228 10.247706 7.13055 11.208456 6.118C12.169206 5.10545 13.013798000000001 4.215554 13.085324000000002 4.140458000000001C13.378148 3.833074 13.529558000000002 3.5673540000000004 13.623204000000001 3.196536C13.751346000000002 2.689162 13.684566 2.140138 13.434708 1.6467640000000001C13.016164 0.820316 12.163452 0.288806 11.266598 0.295358C11.16451 0.2961 11.027002000000001 0.30513 10.960992000000001 0.31542000000000003M11.158 1.30312C11.10025 1.308524 11.0215 1.320746 10.983 1.33028C10.876992 1.356544 10.697932000000002 1.444744 10.614996000000001 1.511566C10.535742 1.57542 6.92776 5.65908 6.894188000000001 5.722934C6.88317 5.743864 6.76935 6.258168 6.641236 6.865838C6.374116 8.13274 6.382124 8.028202 6.5563400000000005 7.973994C6.611696 7.956774 7.115766 7.798574000000001 7.676494000000001 7.622454L8.695988000000002 7.302232 10.58785 5.311278000000001C12.60525 3.188206 12.559092 3.239922 12.637912 3.01385C12.672982 2.91326 12.675824 2.888536 12.67539 2.688C12.674956000000002 2.492406 12.671134 2.458568 12.636610000000001 2.345C12.541662 2.032548 12.367292 1.780394 12.11546 1.5913940000000002C11.824358 1.372924 11.489562 1.272124 11.158 1.30312M5.25 1.9136180000000003C4.594086 1.9514460000000002 3.191202 2.083214 2.73 2.150316C2.250654 2.22005 1.8141200000000002 2.4095120000000003 1.44354 2.708636C1.342138 2.79048 1.1258940000000002 3.008572 1.04755 3.108C0.882448 3.3175380000000003 0.70231 3.6492820000000004 0.62566 3.8850000000000002C0.538622 4.15261 0.519946 4.260256 0.455644 4.865C0.20335 7.237958 0.20339200000000002 8.402254 0.45588200000000006 10.766C0.513408 11.30465 0.5435080000000001 11.485082 0.610806 11.6949C0.856562 12.461064 1.44984 13.075818 2.205 13.346788C2.476334 13.444158 2.613744 13.468728 3.311 13.544552C4.694564000000001 13.69501 5.1959740000000005 13.726776000000001 6.188 13.726776000000001C7.067144 13.726776000000001 7.482706 13.704866 8.463000000000001 13.606866C9.343376000000001 13.518848 9.720144000000001 13.472465999999999 9.891 13.431040000000001C10.622094 13.253786 11.237954 12.774258 11.589858 12.108222000000001C11.718588 11.864608 11.807376 11.600386 11.850384 11.333C11.925466 10.866268000000002 12.070912 9.23811 12.073628000000001 8.834C12.074832 8.655402 12.071472000000002 8.623426 12.045614 8.568C12.003012 8.476664 11.896024 8.364944 11.811842 8.323896C11.599154 8.220212 11.37339 8.263262 11.213734 8.437954C11.10725 8.554462000000001 11.091738000000001 8.612828 11.066566000000002 8.991793999999999C11.004644 9.923998 10.88962 11.069842 10.83635 11.285274000000001C10.687082 11.888842 10.199014 12.355602000000001 9.601368 12.466328C9.383108 12.506774 8.205204 12.629932 7.595 12.676118C6.88177 12.730102 5.98689 12.744760000000001 5.362 12.712686C4.685142000000001 12.677938000000001 3.25808 12.544336 2.803248 12.473118000000001C2.201766 12.378954 1.6736440000000001 11.880302 1.532734 11.273514C1.4992180000000002 11.129216 1.385034 10.050376 1.3375180000000002 9.429C1.292886 8.845564000000001 1.285942 8.683150000000001 1.27827 8.043000000000001C1.266328 7.046242 1.301328 6.42607 1.449336 5.0120000000000005C1.503754 4.49204 1.5253700000000001 4.354602 1.576988 4.200196C1.707706 3.8091899999999996 2.0171900000000003 3.463026 2.396884 3.283168C2.622648 3.176222 2.734732 3.154494 3.479 3.07342C4.059062 3.010224 4.860576000000001 2.941232 5.2780000000000005 2.9185659999999998C5.546002 2.90402 5.648244000000001 2.866962 5.75918 2.744168C5.788902 2.711268 5.829712000000001 2.6489540000000003 5.849858 2.60568C5.880616 2.539656 5.8864540000000005 2.50761 5.886132 2.406432C5.885796 2.299192 5.880742 2.2756860000000003 5.8403659999999995 2.193674C5.793004 2.097466 5.704748 2.00648 5.613552 1.959832C5.559442000000001 1.932154 5.419792 1.902488 5.362924 1.90659C5.34317 1.9080180000000002 5.29235 1.9111820000000002 5.25 1.9136180000000003" stroke="none" fill="#c5c5c5" fill-rule="evenodd"></path>
</svg>