<svg width="48" height="48" viewBox="0 0 48 48" fill="none" xmlns="http://www.w3.org/2000/svg">
<path d="M4 21.5C4 26.8043 6.10714 31.8914 9.85786 35.6421C13.6086 39.3929 18.6957 41.5 24 41.5C29.3043 41.5 34.3914 39.3929 38.1421 35.6421C41.8929 31.8914 44 26.8043 44 21.5C44 16.1957 41.8929 11.1086 38.1421 7.35786C34.3914 3.60714 29.3043 1.5 24 1.5C18.6957 1.5 13.6086 3.60714 9.85786 7.35786C6.10714 11.1086 4 16.1957 4 21.5Z" fill="#FFE7D9"/>
<path d="M14.5 22.5C14.5 22.7652 14.6054 23.0196 14.7929 23.2071C14.9804 23.3946 15.2348 23.5 15.5 23.5C15.7652 23.5 16.0196 23.3946 16.2071 23.2071C16.3946 23.0196 16.5 22.7652 16.5 22.5C16.5 22.2348 16.3946 21.9804 16.2071 21.7929C16.0196 21.6054 15.7652 21.5 15.5 21.5C15.2348 21.5 14.9804 21.6054 14.7929 21.7929C14.6054 21.9804 14.5 22.2348 14.5 22.5Z" fill="#45413C" stroke="#45413C" stroke-width="0.5" stroke-linecap="round" stroke-linejoin="round"/>
<path d="M31.5 22.5C31.5 22.7652 31.6054 23.0196 31.7929 23.2071C31.9804 23.3946 32.2348 23.5 32.5 23.5C32.7652 23.5 33.0196 23.3946 33.2071 23.2071C33.3946 23.0196 33.5 22.7652 33.5 22.5C33.5 22.2348 33.3946 21.9804 33.2071 21.7929C33.0196 21.6054 32.7652 21.5 32.5 21.5C32.2348 21.5 31.9804 21.6054 31.7929 21.7929C31.6054 21.9804 31.5 22.2348 31.5 22.5Z" fill="#45413C" stroke="#45413C" stroke-width="0.5" stroke-linecap="round" stroke-linejoin="round"/>
<path d="M19 31.5001C20.48 30.5112 22.22 29.9834 24 29.9834C25.78 29.9834 27.52 30.5112 29 31.5001" stroke="#45413C" stroke-width="0.5" stroke-linecap="round"/>
<path d="M30.92 8.37012C30.7962 9.02161 30.4196 9.59763 29.8725 9.97237C29.3254 10.3471 28.6522 10.4901 28 10.3701" stroke="#45413C" stroke-width="0.5" stroke-linecap="round" stroke-linejoin="round"/>
<path d="M34.4 13.0001C34.0627 12.795 33.7692 12.5254 33.5363 12.2067C33.3034 11.8879 33.1356 11.5264 33.0427 11.1427C32.9498 10.759 32.9336 10.3608 32.9949 9.9708C33.0562 9.58082 33.1939 9.20678 33.4 8.87012" stroke="#45413C" stroke-width="0.5" stroke-linecap="round" stroke-linejoin="round"/>
<path d="M28.54 12.7699C29.2416 12.3947 30.0634 12.3135 30.8247 12.5442C31.5861 12.7748 32.2247 13.2985 32.6 13.9999" stroke="#45413C" stroke-width="0.5" stroke-linecap="round" stroke-linejoin="round"/>
<path d="M38.5 27C38.5 27.83 37.38 28.5 36 28.5C34.62 28.5 33.5 27.83 33.5 27C33.5 26.17 34.62 25.5 36 25.5C37.38 25.5 38.5 26.17 38.5 27Z" fill="#FFAA54"/>
<path d="M9.5 27C9.5 27.83 10.62 28.5 12 28.5C13.38 28.5 14.5 27.83 14.5 27C14.5 26.17 13.38 25.5 12 25.5C10.62 25.5 9.5 26.17 9.5 27Z" fill="#FFAA54"/>
</svg>
