<svg width="164" height="167" viewBox="0 0 164 167" fill="none" xmlns="http://www.w3.org/2000/svg">
<path fill-rule="evenodd" clip-rule="evenodd" d="M137.238 104.641C137.238 102.183 136.262 99.8256 134.523 98.0875C132.785 96.3495 130.428 95.373 127.97 95.373C125.512 95.373 123.155 96.3495 121.417 98.0875C119.679 99.8256 118.702 102.183 118.702 104.641V121.669H101.674C99.2161 121.669 96.8588 122.645 95.1207 124.384C93.3827 126.122 92.4063 128.479 92.4062 130.937C92.4063 133.395 93.3827 135.752 95.1207 137.49C96.8588 139.228 99.2161 140.205 101.674 140.205H118.702V157.233C118.702 159.691 119.679 162.048 121.417 163.786C123.155 165.524 125.512 166.501 127.97 166.501C130.428 166.501 132.785 165.524 134.523 163.786C136.262 162.048 137.238 159.691 137.238 157.233V140.205H154.266C156.724 140.205 159.081 139.228 160.819 137.49C162.558 135.752 163.534 133.395 163.534 130.937C163.534 128.479 162.558 126.122 160.819 124.384C159.081 122.645 156.724 121.669 154.266 121.669H137.238V104.641Z" fill="#9260F4"/>
<path fill-rule="evenodd" clip-rule="evenodd" d="M35.8851 0C30.2009 0 24.7143 0.519 19.5737 1.08743C14.8325 1.62993 10.4162 3.76686 7.04852 7.148C3.68085 10.5291 1.56157 14.954 1.038 19.6973C0.481928 24.8008 0 30.2626 0 35.8851C0 41.5076 0.494286 46.9571 1.038 52.073C1.5642 56.8141 3.68463 61.2361 7.05207 64.6147C10.4195 67.9934 14.8344 70.1285 19.5737 70.6705C24.7143 71.2513 30.2009 71.7703 35.8851 71.7703C41.5694 71.7703 47.056 71.2513 52.1966 70.6705C56.9359 70.1285 61.3508 67.9934 64.7182 64.6147C68.0857 61.2361 70.2061 56.8141 70.7323 52.073C71.2884 46.9571 71.7703 41.5076 71.7703 35.8851C71.7703 30.2626 71.276 24.8008 70.7323 19.6973C70.2087 14.954 68.0894 10.5291 64.7218 7.148C61.3541 3.76686 56.9378 1.62993 52.1966 1.08743C46.7839 0.42201 41.3383 0.0589697 35.8851 0ZM35.8851 95.0511C30.2009 95.0511 24.7143 95.5701 19.5737 96.1509C14.8344 96.6929 10.4195 98.828 7.05207 102.207C3.68463 105.585 1.5642 110.007 1.038 114.748C0.481928 119.864 0 125.314 0 130.936C0 136.571 0.494286 142.021 1.038 147.124C1.56157 151.867 3.68085 156.292 7.04852 159.673C10.4162 163.055 14.8325 165.191 19.5737 165.734C24.7143 166.302 30.2009 166.821 35.8851 166.821C41.5694 166.821 47.056 166.302 52.1966 165.734C56.9359 165.192 61.3508 163.057 64.7182 159.678C68.0857 156.3 70.2061 151.878 70.7323 147.136C71.2884 142.021 71.7703 136.571 71.7703 130.949C71.7703 125.314 71.276 119.864 70.7323 114.748C70.2061 110.007 68.0857 105.585 64.7182 102.207C61.3508 98.828 56.9359 96.6929 52.1966 96.1509C47.056 95.5701 41.5694 95.0511 35.8851 95.0511ZM111.659 1.08743C116.8 0.519 122.286 0 127.971 0C133.655 0 139.141 0.519 144.282 1.08743C149.023 1.62993 153.44 3.76686 156.807 7.148C160.175 10.5291 162.294 14.954 162.818 19.6973C163.374 24.8008 163.856 30.2626 163.856 35.8851C163.856 41.5076 163.361 46.9571 162.818 52.073C162.292 56.8141 160.171 61.2361 156.804 64.6147C153.436 67.9934 149.021 70.1285 144.282 70.6705C139.141 71.2513 133.655 71.7703 127.971 71.7703C122.286 71.7703 116.8 71.2513 111.659 70.6705C106.92 70.1285 102.505 67.9934 99.1375 64.6147C95.7701 61.2361 93.6496 56.8141 93.1234 52.073C92.489 46.6994 92.1425 41.2957 92.0854 35.8851C92.0854 30.2626 92.5797 24.8008 93.1234 19.6973C93.647 14.954 95.7663 10.5291 99.1339 7.148C102.502 3.76686 106.918 1.62993 111.659 1.08743Z" fill="#EDE4FF"/>
</svg>
