<svg width="180" height="180" viewBox="0 0 180 180" fill="none" xmlns="http://www.w3.org/2000/svg">
<path d="M130.686 44.3008C135.19 44.3008 139.51 46.1483 142.695 49.437C145.879 52.7256 147.669 57.186 147.669 61.8369V120.291C147.669 124.941 145.879 129.402 142.695 132.69C139.51 135.979 135.19 137.827 130.686 137.827H51.4354C46.9315 137.827 42.6119 135.979 39.4271 132.69C36.2423 129.402 34.4531 124.941 34.4531 120.291V61.8369C34.4531 57.186 36.2423 52.7256 39.4271 49.437C42.6119 46.1483 46.9315 44.3008 51.4354 44.3008H130.686ZM108.043 67.6822H102.382C100.881 67.6822 99.4413 68.2981 98.3797 69.3943C97.3181 70.4905 96.7216 71.9773 96.7216 73.5276V108.6C96.7216 110.15 97.3181 111.637 98.3797 112.733C99.4413 113.829 100.881 114.445 102.382 114.445H108.043C112.547 114.445 116.867 112.598 120.052 109.309C123.236 106.02 125.026 101.56 125.026 96.9091V85.2183C125.026 80.5675 123.236 76.1071 120.052 72.8184C116.867 69.5298 112.547 67.6822 108.043 67.6822ZM71.2482 67.6822C67.4948 67.6822 63.8952 69.2219 61.2412 71.9624C58.5872 74.703 57.0962 78.4199 57.0962 82.2957V108.6C57.0962 110.15 57.6926 111.637 58.7542 112.733C59.8158 113.829 61.2557 114.445 62.757 114.445C64.2583 114.445 65.6982 113.829 66.7598 112.733C67.8214 111.637 68.4178 110.15 68.4178 108.6V102.754H74.0785V108.6C74.0787 110.032 74.5878 111.413 75.5091 112.483C76.4305 113.553 77.7 114.237 79.077 114.404L79.7393 114.445C81.2407 114.445 82.6805 113.829 83.7421 112.733C84.8037 111.637 85.4001 110.15 85.4001 108.6V82.2957C85.4001 78.4199 83.9091 74.703 81.2551 71.9624C78.6011 69.2219 75.0015 67.6822 71.2482 67.6822ZM108.043 79.373C109.545 79.373 110.984 79.9888 112.046 81.085C113.108 82.1813 113.704 83.668 113.704 85.2183V96.9091C113.704 98.3408 113.195 99.7227 112.273 100.793C111.352 101.862 110.082 102.546 108.706 102.714L108.043 102.754V79.373ZM71.2482 79.373C71.9988 79.373 72.7188 79.6809 73.2495 80.229C73.7803 80.7771 74.0785 81.5205 74.0785 82.2957V91.0637H68.4178V82.2957C68.4176 81.6116 68.6497 80.9491 69.0738 80.4236C69.4979 79.8981 70.0871 79.5429 70.7387 79.4197L71.2482 79.373Z" fill="#61AE72"/>
<path d="M1.41121 91.4373C1.21663 79.1919 3.35671 67.6379 7.83145 56.7756C12.3129 45.9196 18.4768 36.4384 26.3233 28.3318C34.1633 20.2253 43.434 13.7601 54.1355 8.93618C64.837 4.11222 76.3137 1.6029 88.5657 1.40822C100.811 1.21363 112.365 3.35371 123.227 7.82845C134.083 12.3099 143.565 18.4738 151.671 26.3203C159.778 34.1602 166.243 43.431 171.067 54.1325C175.891 64.834 178.4 76.3107 178.595 88.5627C178.789 100.808 176.649 112.362 172.175 123.224C167.693 134.08 161.529 143.562 153.683 151.668C145.843 159.775 136.572 166.24 125.871 171.064C115.169 175.888 103.692 178.397 91.4403 178.592C79.1949 178.786 67.6409 176.646 56.7786 172.172C45.9226 167.69 36.4414 161.526 28.3348 153.68C20.2284 145.84 13.7631 136.569 8.93918 125.868C4.11522 115.166 1.6059 103.689 1.41121 91.4373ZM11.2543 91.2513C11.4071 100.865 13.2407 110.091 16.755 118.93C20.2694 127.768 25.3 135.779 31.8469 142.961L141.089 30.1906C133.718 24.0062 125.556 19.2654 116.602 15.9681C107.649 12.6708 98.3656 11.0986 88.7517 11.2513C66.7677 11.6007 48.2681 19.5253 33.253 35.0253C18.2379 50.5253 10.905 69.2673 11.2543 91.2513ZM38.9169 149.809C46.2902 156.125 54.453 160.899 63.4052 164.13C72.3574 167.362 81.6404 168.901 91.2543 168.749C113.238 168.399 131.738 160.475 146.753 144.975C161.768 129.475 169.101 110.733 168.752 88.7487C168.598 79.0954 166.794 69.8228 163.337 60.9309C159.881 52.0456 154.822 44.0851 148.159 37.0493L38.9169 149.809Z" fill="#E5EED8"/>
</svg>
