<svg width="171" height="171" viewBox="0 0 171 171" fill="none" xmlns="http://www.w3.org/2000/svg">
<path fill-rule="evenodd" clip-rule="evenodd" d="M32.5067 2.99157C47.1986 1.32414 63.4305 0 78.4279 0C93.4008 0 109.657 1.32414 124.361 2.99157C130.504 3.6912 136.225 6.46808 140.584 10.865C144.943 15.2618 147.679 21.0166 148.342 27.1816C149.931 41.833 151.239 58.1028 151.239 73.0361V74.9488C142.879 70.866 133.626 69.1986 124.52 69.1986C110.256 69.1986 95.6376 73.2936 84.6126 84.3526C73.5999 95.4116 69.5052 110.075 69.5052 124.383C69.4422 131.754 70.6539 139.08 73.0865 146.035C61.7559 145.763 50.4407 145.035 39.1682 143.853L6.89992 151.553C5.97844 151.774 5.01612 151.757 4.10308 151.503C3.19004 151.249 2.35615 150.767 1.67952 150.102C1.00289 149.436 0.50565 148.61 0.234373 147.699C-0.0369036 146.789 -0.0733418 145.824 0.128471 144.895L7.63329 110.259C6.38318 97.8939 5.71019 85.4767 5.61652 73.0484C5.61652 58.1028 6.93658 41.833 8.53777 27.1939C9.19731 21.0271 11.9302 15.2693 16.2868 10.8682C20.6433 6.46699 26.3638 3.697 32.5067 2.99157Z" fill="#FFF1D8"/>
<path fill-rule="evenodd" clip-rule="evenodd" d="M37.395 52.3523C37.395 48.1224 40.8174 44.6895 45.0221 44.6895H99.2548C101.281 44.6895 103.224 45.4968 104.657 46.9338C106.089 48.3709 106.894 50.32 106.894 52.3523C106.894 54.3846 106.089 56.3337 104.657 57.7707C103.224 59.2078 101.281 60.0151 99.2548 60.0151H45.0221C42.996 60.0151 41.0529 59.2078 39.6203 57.7707C38.1877 56.3337 37.395 54.3846 37.395 52.3523ZM37.395 85.8236C37.395 81.5937 40.8174 78.1608 45.0221 78.1608H61.5962C63.6223 78.1608 65.5654 78.9681 66.998 80.4052C68.4306 81.8422 69.2355 83.7913 69.2355 85.8236C69.2355 87.8559 68.4306 89.805 66.998 91.2421C65.5654 92.6791 63.6223 93.4864 61.5962 93.4864H45.0221C42.996 93.4864 41.0529 92.6791 39.6203 91.2421C38.1877 89.805 37.395 87.8559 37.395 85.8236ZM108.385 108.199C105.366 111.215 103.129 116.267 103.129 124.383C103.129 132.5 105.366 137.539 108.385 140.567C111.404 143.595 116.428 145.839 124.519 145.839C132.611 145.839 137.634 143.595 140.653 140.567C143.672 137.539 145.909 132.5 145.909 124.383C145.909 117.272 144.198 112.527 141.754 109.425C141.411 108.996 141.043 108.586 140.653 108.199C137.83 105.367 133.234 103.209 125.998 102.939C125.505 102.922 125.012 102.914 124.519 102.915C117.43 102.915 112.7 104.644 109.607 107.108C109.175 107.443 108.767 107.807 108.385 108.199ZM95.429 95.2029C102.799 87.7976 113.054 84.5362 124.519 84.5362C135.984 84.5362 146.239 87.7976 153.61 95.2029C160.992 102.596 164.243 112.883 164.243 124.383C164.243 132.426 162.655 139.868 159.183 146.158L168.204 155.194C169.079 156.042 169.777 157.057 170.257 158.18C170.737 159.302 170.989 160.508 170.999 161.729C171.009 162.95 170.776 164.161 170.315 165.291C169.853 166.421 169.172 167.447 168.311 168.31C167.45 169.173 166.426 169.855 165.299 170.317C164.173 170.779 162.965 171.011 161.748 171C160.531 170.989 159.328 170.735 158.21 170.252C157.092 169.77 156.081 169.069 155.235 168.19L146.215 159.154C140.348 162.428 133.454 164.034 126.011 164.218C125.514 164.228 125.016 164.232 124.519 164.23C114.497 164.23 105.378 161.741 98.3136 156.15C97.2984 155.35 96.3311 154.49 95.4168 153.575C88.0464 146.17 84.7829 135.883 84.7829 124.383C84.7829 112.883 88.0586 102.596 95.429 95.2029Z" fill="#ECBE61"/>
</svg>
