<svg width="180" height="152" viewBox="0 0 180 152" fill="none" xmlns="http://www.w3.org/2000/svg">
<path fill-rule="evenodd" clip-rule="evenodd" d="M90.4145 2.15626e-06H89.5858C68.7159 -0.00016251 46.0577 -0.000339369 26.8539 3.84636C14.9656 6.22782 5.76421 16.2236 3.0335 28.8981C-0.000548516 42.9807 -0.00035644 54.1313 7.92408e-06 75.2889V76.7111C-0.00035644 97.8687 -0.000548516 109.019 3.0335 123.102C5.76421 135.777 14.9656 145.772 26.8539 148.153C46.0577 152 68.7159 152 89.5858 152H90.4145C111.284 152 133.943 152 153.146 148.153C165.035 145.772 174.236 135.777 176.967 123.102C180.001 109.019 180.001 97.8688 180 76.7112V75.2888C180.001 54.1313 180.001 42.9807 176.967 28.8981C174.236 16.2236 165.035 6.22782 153.146 3.84636C133.943 -0.000339369 111.284 -0.00016251 90.4145 2.15626e-06Z" fill="#EAFAFF"/>
<path d="M80.9119 90C74.1373 97.4637 64.2731 104 53.2247 104C37.284 104 24.3594 91.4583 24.3594 76C24.3594 60.5417 37.284 48 53.2247 48C76.1992 48 90.3373 76 90.3373 76C90.3373 76 104.475 104 127.45 104C143.391 104 156.315 91.4583 156.315 76C156.315 60.5417 143.391 48 127.45 48C116.401 48 106.537 54.5362 99.7627 62" stroke="#BBEAFF" stroke-width="13" stroke-miterlimit="10" stroke-linecap="round"/>
</svg>
