<svg width="14" height="14" viewBox="0 0 14 14" fill="none" xmlns="http://www.w3.org/2000/svg">
<path fill-rule="evenodd" clip-rule="evenodd" d="M9.965 0.75C9.965 0.551088 9.88598 0.360322 9.74533 0.21967C9.60468 0.0790176 9.41391 0 9.215 0C9.01609 0 8.82532 0.0790176 8.68467 0.21967C8.54402 0.360322 8.465 0.551088 8.465 0.75V3.023C8.465 3.22191 8.54402 3.41268 8.68467 3.55333C8.82532 3.69398 9.01609 3.773 9.215 3.773C9.41391 3.773 9.60468 3.69398 9.74533 3.55333C9.88598 3.41268 9.965 3.22191 9.965 3.023V0.75ZM4.321 0.756C4.321 0.557088 4.24198 0.366322 4.10133 0.22567C3.96068 0.0850177 3.76991 0.00600003 3.571 0.00600003C3.37209 0.00600003 3.18132 0.0850177 3.04067 0.22567C2.90002 0.366322 2.821 0.557088 2.821 0.756V9.708C2.821 9.90691 2.90002 10.0977 3.04067 10.2383C3.18132 10.379 3.37209 10.458 3.571 10.458C3.76991 10.458 3.96068 10.379 4.10133 10.2383C4.24198 10.0977 4.321 9.90691 4.321 9.708V0.756ZM1.5 2.498C1.5 2.39951 1.4806 2.30198 1.44291 2.21099C1.40522 2.11999 1.34997 2.03731 1.28033 1.96767C1.21069 1.89803 1.12801 1.84278 1.03701 1.80509C0.946018 1.7674 0.848491 1.748 0.75 1.748C0.651509 1.748 0.553982 1.7674 0.462987 1.80509C0.371993 1.84278 0.289314 1.89803 0.21967 1.96767C0.150026 2.03731 0.0947814 2.11999 0.0570903 2.21099C0.0193993 2.30198 -1.46764e-09 2.39951 0 2.498V8.073C2.96403e-09 8.27191 0.0790176 8.46268 0.21967 8.60333C0.360322 8.74398 0.551088 8.823 0.75 8.823C0.948912 8.823 1.13968 8.74398 1.28033 8.60333C1.42098 8.46268 1.5 8.27191 1.5 8.073V2.498ZM6.393 1.748C6.59191 1.748 6.78268 1.82702 6.92333 1.96767C7.06398 2.10832 7.143 2.29909 7.143 2.498V3.679C7.143 3.87791 7.06398 4.06868 6.92333 4.20933C6.78268 4.34998 6.59191 4.429 6.393 4.429C6.19409 4.429 6.00332 4.34998 5.86267 4.20933C5.72202 4.06868 5.643 3.87791 5.643 3.679V2.498C5.643 2.29909 5.72202 2.10832 5.86267 1.96767C6.00332 1.82702 6.19409 1.748 6.393 1.748Z" fill="#EFEBE9"/>
<path fill-rule="evenodd" clip-rule="evenodd" d="M6.79983 9.05625C6.79983 8.14625 7.05283 7.54125 7.43083 7.16225C7.80983 6.78425 8.41483 6.53125 9.32483 6.53125C10.2348 6.53125 10.8398 6.78425 11.2178 7.16225C11.5968 7.54125 11.8498 8.14625 11.8498 9.05625C11.8498 9.96625 11.5968 10.5713 11.2178 10.9493C10.8398 11.3283 10.2348 11.5813 9.32483 11.5813C8.41483 11.5813 7.80983 11.3283 7.43083 10.9493C7.05283 10.5713 6.79983 9.96625 6.79983 9.05625ZM9.32483 5.03125C8.13883 5.03125 7.10583 5.36625 6.37083 6.10125C5.63483 6.83725 5.29883 7.87025 5.29883 9.05625C5.29883 10.2422 5.63483 11.2753 6.37083 12.0103C7.10583 12.7453 8.13883 13.0813 9.32483 13.0813C10.2208 13.0813 11.0288 12.8902 11.6878 12.4792L12.6648 13.4572C12.7335 13.5309 12.8163 13.59 12.9083 13.631C13.0003 13.672 13.0996 13.6941 13.2003 13.6958C13.301 13.6976 13.401 13.6791 13.4944 13.6414C13.5878 13.6037 13.6726 13.5475 13.7439 13.4763C13.8151 13.4051 13.8712 13.3202 13.909 13.2268C13.9467 13.1335 13.9652 13.0334 13.9634 12.9327C13.9616 12.832 13.9396 12.7327 13.8986 12.6407C13.8576 12.5487 13.7985 12.4659 13.7248 12.3973L12.7478 11.4193C13.1578 10.7593 13.3498 9.95225 13.3498 9.05625C13.3498 7.87025 13.0138 6.83725 12.2788 6.10225C11.5438 5.36625 10.5108 5.03125 9.32483 5.03125Z" fill="#BCAAA4"/>
</svg>
