<svg width="14" height="14" viewBox="0 0 14 14" fill="none" xmlns="http://www.w3.org/2000/svg">
<g clip-path="url(#clip0_2518_12667)">
<path d="M7 0.25C4.908 0.25 3.203 0.84 2.021 2.021C0.84 3.203 0.25 4.908 0.25 7C0.25 9.092 0.84 10.797 2.021 11.979C3.203 13.16 4.908 13.75 7 13.75C9.092 13.75 10.797 13.16 11.979 11.979C13.16 10.797 13.75 9.092 13.75 7C13.75 4.908 13.16 3.203 11.979 2.021C10.797 0.84 9.092 0.25 7 0.25Z" fill="#D6DAF0"/>
<path fill-rule="evenodd" clip-rule="evenodd" d="M8.57592 4.33324C8.72126 4.32623 8.86647 4.34971 9.0022 4.40217C9.13792 4.45463 9.26118 4.53492 9.36402 4.63786C9.46687 4.7408 9.54704 4.86412 9.59938 4.9999C9.65171 5.13568 9.67506 5.2809 9.66792 5.42624C9.59992 7.00124 8.92591 8.65624 8.02291 10.1882C7.94705 10.3173 7.83335 10.4199 7.69723 10.4821C7.5611 10.5444 7.40914 10.5633 7.26192 10.5362C7.11587 10.5127 6.97934 10.4486 6.86782 10.3514C6.75629 10.2542 6.67423 10.1277 6.63092 9.98624C6.52744 9.63969 6.40219 9.30002 6.25592 8.96924C6.10692 8.64324 5.94791 8.37824 5.78591 8.21624C5.62391 8.05424 5.35792 7.89424 5.03192 7.74624C4.70114 7.59997 4.36147 7.47472 4.01491 7.37124C3.87345 7.32793 3.74695 7.24586 3.64974 7.13434C3.55254 7.02281 3.48851 6.88629 3.46491 6.74024C3.43809 6.59281 3.45729 6.44069 3.51991 6.30455C3.58252 6.1684 3.68552 6.05483 3.81492 5.97924C5.34392 5.07524 6.99991 4.40124 8.57491 4.33324H8.57592Z" fill="#B2BAE6"/>
</g>
<defs>
<clipPath id="clip0_2518_12667">
<rect width="14" height="14" fill="white"/>
</clipPath>
</defs>
</svg>
