<svg xmlns="http://www.w3.org/2000/svg" fill="none" viewBox="0 0 14 14"><g id="recycle-bin--sign-environment-protect-save-arrows"><path id="Union" fill="#cde4e4" fill-rule="evenodd" d="M1.926.25C1.148.25.478.85.454 1.657c-.071 2.341.06 6.84.926 9.988.373 1.36 1.665 2.105 2.974 2.105h5.292c1.308 0 2.6-.746 2.974-2.105.865-3.148.997-7.647.926-9.988A1.46 1.46 0 0 0 12.074.25H1.926Z" clip-rule="evenodd"></path><path id="Union_2" fill="#469595" fill-rule="evenodd" d="M4.178 5.335a.625.625 0 1 0 1.146.498 2.007 2.007 0 0 1 3.603-.164.625.625 0 0 0 1.171-.258c.034-.493.026-1.46-.046-1.995a.625.625 0 0 0-1.15-.245l-.326.525a3.257 3.257 0 0 0-4.398 1.64Zm5.888 3.081a.625.625 0 0 0-1.147-.498 2.007 2.007 0 0 1-3.602.164.625.625 0 0 0-1.172.258c-.034.493-.025 1.46.047 1.995a.625.625 0 0 0 1.127.281l.389-.541a3.257 3.257 0 0 0 4.358-1.659Z" clip-rule="evenodd"></path></g></svg>