<svg xmlns="http://www.w3.org/2000/svg" fill="none" viewBox="0 0 14 14"><g id="pencil-square--change-document-edit-modify-paper-pencil-write-writing"><path id="Union" fill="#fed7ed" fill-rule="evenodd" d="M.078 6.525c.042-.843.13-1.665.216-2.442a3.086 3.086 0 0 1 1.241-2.14 3.08 3.08 0 0 1 1.498-.598 37.35 37.35 0 0 1 2.623-.237c.066-.003.13.001.194.01.206-.007.414-.01.623-.01 1.212 0 2.385.13 3.466.255a3.094 3.094 0 0 1 2.713 2.72l-.88.099.88-.099c.12 1.079.243 2.244.243 3.446 0 .255-.005.509-.015.76a.996.996 0 0 1 .014.226 39.97 39.97 0 0 1-.217 2.441 3.086 3.086 0 0 1-1.24 2.14 3.08 3.08 0 0 1-1.498.6c-.83.095-1.715.194-2.623.235a.96.96 0 0 1-.194-.01c-.207.008-.415.011-.624.011-1.211 0-2.385-.13-3.465-.255a3.094 3.094 0 0 1-2.714-2.72C.2 9.877.076 8.712.076 7.51c0-.255.006-.509.016-.76a1.003 1.003 0 0 1-.014-.226Z" clip-rule="evenodd"></path><path id="Union_2" fill="#c93f8d" fill-rule="evenodd" d="M10.553.69a1.944 1.944 0 1 1 2.748 2.747L9.726 6.751a1.5 1.5 0 0 1-.545.323l-1.498.5a1 1 0 0 1-1.265-1.266l.5-1.498a1.5 1.5 0 0 1 .322-.545L10.553.69Z" clip-rule="evenodd"></path></g></svg>