<svg width="48" height="48" viewBox="0 0 48 48" fill="none" xmlns="http://www.w3.org/2000/svg">
<path d="M10.04 26.96C10.04 30.6624 11.5108 34.2132 14.1288 36.8312C16.7468 39.4492 20.2976 40.92 24 40.92C27.7025 40.92 31.2532 39.4492 33.8713 36.8312C36.4893 34.2132 37.96 30.6624 37.96 26.96C37.96 23.2576 36.4893 19.7068 33.8713 17.0888C31.2532 14.4708 27.7025 13 24 13C20.2976 13 16.7468 14.4708 14.1288 17.0888C11.5108 19.7068 10.04 23.2576 10.04 26.96Z" fill="#FFE7D9"/>
<path d="M34.1199 30.45C34.1199 31.03 33.3399 31.5 32.3799 31.5C31.4199 31.5 30.6299 31.03 30.6299 30.45C30.6299 29.87 31.4099 29.45 32.3799 29.45C33.3499 29.45 34.1199 29.88 34.1199 30.45Z" fill="#FFAA54"/>
<path d="M13.8799 30.45C13.8799 31.03 14.6599 31.5 15.6199 31.5C16.5799 31.5 17.3699 31.03 17.3699 30.45C17.3699 29.87 16.5899 29.45 15.6199 29.45C14.6499 29.45 13.8799 29.88 13.8799 30.45Z" fill="#FFAA54"/>
<path d="M24 1.5C16.83 1.5 11 3.38 11 5.69C11 8 16.82 9.88 24 9.88C31.18 9.88 37 8 37 5.69C37 3.38 31.17 1.5 24 1.5ZM24 7.36C18.91 7.36 14.78 6.61 14.78 5.69C14.78 4.77 18.91 4 24 4C29.09 4 33.22 4.75 33.22 5.68C33.22 6.61 29.09 7.36 24 7.36Z" fill="#FEF3ED"/>
<path d="M14.23 27.8401C14.23 27.5166 14.3585 27.2062 14.5873 26.9774C14.8161 26.7487 15.1264 26.6201 15.45 26.6201C15.7735 26.6201 16.0839 26.7487 16.3127 26.9774C16.5414 27.2062 16.67 27.5166 16.67 27.8401" stroke="#45413C" stroke-width="0.5" stroke-linecap="round" stroke-linejoin="round"/>
<path d="M31.3301 27.8401C31.3301 27.6799 31.3616 27.5213 31.4229 27.3732C31.4843 27.2252 31.5741 27.0907 31.6874 26.9774C31.8007 26.8642 31.9352 26.7743 32.0832 26.713C32.2312 26.6517 32.3899 26.6201 32.5501 26.6201C32.7103 26.6201 32.8689 26.6517 33.017 26.713C33.165 26.7743 33.2995 26.8642 33.4127 26.9774C33.526 27.0907 33.6159 27.2252 33.6772 27.3732C33.7385 27.5213 33.7701 27.6799 33.7701 27.8401" stroke="#45413C" stroke-width="0.5" stroke-linecap="round" stroke-linejoin="round"/>
<path d="M19.7701 32.3501C19.6751 32.3502 19.5813 32.3708 19.495 32.4105C19.4087 32.4502 19.332 32.508 19.2701 32.5801C19.209 32.6528 19.164 32.7376 19.1381 32.829C19.1123 32.9203 19.1061 33.0162 19.1201 33.1101C19.303 34.2729 19.8951 35.3322 20.7898 36.0972C21.6845 36.8622 22.823 37.2825 24.0001 37.2825C25.1772 37.2825 26.3157 36.8622 27.2104 36.0972C28.1051 35.3322 28.6972 34.2729 28.8801 33.1101C28.8941 33.0162 28.8879 32.9203 28.8621 32.829C28.8362 32.7376 28.7912 32.6528 28.7301 32.5801C28.6682 32.508 28.5915 32.4502 28.5052 32.4105C28.4189 32.3708 28.3251 32.3502 28.2301 32.3501H19.7701Z" fill="#FFB0CA"/>
<path d="M27.8899 35.38C26.6921 34.7496 25.3529 34.4364 23.9999 34.47C22.6468 34.4364 21.3076 34.7496 20.1099 35.38C20.5697 35.9737 21.1593 36.4544 21.8336 36.785C22.5079 37.1157 23.2489 37.2876 23.9999 37.2876C24.7509 37.2876 25.4919 37.1157 26.1661 36.785C26.8404 36.4544 27.4301 35.9737 27.8899 35.38Z" fill="#FF87AF"/>
<path d="M23.9998 2.72998C18.9098 2.72998 14.7798 4.05998 14.7798 5.72998C14.7798 4.75998 18.9098 3.99998 23.9998 3.99998C29.0898 3.99998 33.2198 4.74998 33.2198 5.67998C33.2198 4.05998 29.0898 2.72998 23.9998 2.72998Z" fill="#FEE7DA"/>
</svg>
