<svg viewBox="0 0 48 48" xmlns="http://www.w3.org/2000/svg"><path d="M13 45.5a11 1.5 0 1 0 22 0 11 1.5 0 1 0 -22 0Z" fill="#45413c" opacity=".15" stroke-width="1"></path><path d="M10.04 26.96a13.96 13.96 0 1 0 27.92 0 13.96 13.96 0 1 0 -27.92 0Z" fill="#ffe500" stroke-width="1"></path><path d="M24 13a14 14 0 1 0 14 14 14 14 0 0 0 -14 -14Zm0 25.83a12.74 12.74 0 1 1 12.74 -12.74A12.74 12.74 0 0 1 24 38.83Z" fill="#ebcb00" stroke-width="1"></path><path d="M19.81 15.79a4.19 1.05 0 1 0 8.38 0 4.19 1.05 0 1 0 -8.38 0Z" fill="#fff48c" stroke-width="1"></path><path d="M10.04 26.96a13.96 13.96 0 1 0 27.92 0 13.96 13.96 0 1 0 -27.92 0Z" fill="none" stroke="#45413c" stroke-linecap="round" stroke-linejoin="round" stroke-width="1"></path><path d="M34.12 30.45c0 0.58 -0.78 1.05 -1.74 1.05s-1.75 -0.47 -1.75 -1.05 0.78 -1 1.75 -1 1.74 0.43 1.74 1Z" fill="#ffaa54" stroke-width="1"></path><path d="M13.88 30.45c0 0.58 0.78 1.05 1.74 1.05s1.75 -0.47 1.75 -1.05 -0.78 -1 -1.75 -1 -1.74 0.43 -1.74 1Z" fill="#ffaa54" stroke-width="1"></path><path d="M24 1.5c-7.17 0 -13 1.88 -13 4.19s5.82 4.19 13 4.19S37 8 37 5.69 31.17 1.5 24 1.5Zm0 5.86c-5.09 0 -9.22 -0.75 -9.22 -1.67S18.91 4 24 4s9.22 0.75 9.22 1.68S29.09 7.36 24 7.36Z" fill="#fff48c" stroke-width="1"></path><path d="M14.23 27.84a1.22 1.22 0 1 1 2.44 0" fill="none" stroke="#45413c" stroke-linecap="round" stroke-linejoin="round" stroke-width="1"></path><path d="M31.33 27.84a1.22 1.22 0 1 1 2.44 0" fill="none" stroke="#45413c" stroke-linecap="round" stroke-linejoin="round" stroke-width="1"></path><path d="M19.77 32.35a0.66 0.66 0 0 0 -0.5 0.23 0.67 0.67 0 0 0 -0.15 0.53 4.94 4.94 0 0 0 9.76 0 0.67 0.67 0 0 0 -0.15 -0.53 0.66 0.66 0 0 0 -0.5 -0.23Z" fill="#ffb0ca" stroke="#45413c" stroke-linecap="round" stroke-linejoin="round" stroke-width="1"></path><path d="M27.89 35.38a7.93 7.93 0 0 0 -3.89 -0.91 7.93 7.93 0 0 0 -3.89 0.91 4.92 4.92 0 0 0 7.78 0Z" fill="#ff87af" stroke="#45413c" stroke-linecap="round" stroke-linejoin="round" stroke-width="1"></path><path d="M24 7.36c-5.09 0 -9.22 -0.75 -9.22 -1.67 0 1.63 4.13 3 9.22 3s9.22 -1.33 9.22 -3c0 0.92 -4.13 1.67 -9.22 1.67Z" fill="#fffacf" stroke-width="1"></path><path d="M24 2.73c-5.09 0 -9.22 1.33 -9.22 3C14.78 4.76 18.91 4 24 4s9.22 0.75 9.22 1.68c0 -1.62 -4.13 -2.95 -9.22 -2.95Z" fill="#ffe500" stroke-width="1"></path><path d="M24 1.5c-7.17 0 -13 1.88 -13 4.19s5.82 4.19 13 4.19S37 8 37 5.69 31.17 1.5 24 1.5Zm0 5.86c-5.09 0 -9.22 -0.75 -9.22 -1.67S18.91 4 24 4s9.22 0.75 9.22 1.68S29.09 7.36 24 7.36Z" fill="none" stroke="#45413c" stroke-linecap="round" stroke-linejoin="round" stroke-width="1"></path></svg>