<svg width="48" height="48" viewBox="0 0 48 48" fill="none" xmlns="http://www.w3.org/2000/svg">
<path d="M8.16309 21.4569C8.16309 35.5341 23.4021 44.3323 35.5933 37.2937C41.2513 34.0271 44.7367 27.9901 44.7367 21.4569C44.7367 7.37968 29.4977 -1.41852 17.3065 5.62008C11.6485 8.88668 8.16309 14.9237 8.16309 21.4569Z" fill="#FFE7D9"/>
<path d="M31.0267 28.7578C28.2575 30.6008 24.6525 30.6008 21.8833 28.7578" stroke="#45413C" stroke-width="0.5" stroke-linecap="round"/>
<path d="M39.6801 26.0236C39.6801 26.788 38.6511 27.3956 37.3967 27.3956C36.1423 27.3956 35.1035 26.788 35.1035 26.0236C35.1035 25.2592 36.0835 24.6516 37.3967 24.6516C38.7099 24.6516 39.6801 25.269 39.6801 26.0236Z" fill="#FFAA54"/>
<path d="M13.2202 26.0236C13.2202 26.788 14.2002 27.3956 15.5036 27.3956C16.807 27.3956 17.7968 26.788 17.7968 26.0236C17.7968 25.2592 16.7678 24.6516 15.5036 24.6516C14.2394 24.6516 13.2202 25.269 13.2202 26.0236Z" fill="#FFAA54"/>
<path d="M39.5527 24.6518H34.2313C31.6476 24.6578 29.4403 22.7907 29.0177 20.2418L28.2827 15.8416C28.0179 14.2447 29.2414 12.7885 30.8601 12.7742H42.6201C44.1995 12.7695 45.4285 14.1453 45.2465 15.7142L44.7761 19.9674C44.469 22.6246 42.2275 24.6348 39.5527 24.6518Z" fill="#656769"/>
<path d="M29.0178 20.2418C29.2623 21.6788 30.0929 22.9496 31.311 23.7502L42.2968 12.7742H30.8602C29.2296 12.7704 27.9867 14.233 28.2534 15.8416L29.0178 20.2418Z" fill="#87898C"/>
<path d="M13.3472 24.6518H18.6686C21.2523 24.6578 23.4596 22.7907 23.8822 20.2418L24.6172 15.8416C24.882 14.2447 23.6585 12.7885 22.0398 12.7742H10.2798C8.70332 12.7761 7.47823 14.1475 7.65343 15.7142L8.13362 19.9674C8.43182 22.6252 10.6728 24.6387 13.3472 24.6518Z" fill="#656769"/>
<path d="M8.09442 19.9575C8.29522 21.697 9.34502 23.2239 10.8972 24.0343L22.1476 12.7839H10.2798C8.70332 12.7858 7.47823 14.1572 7.65343 15.7239L8.09442 19.9575Z" fill="#87898C"/>
<path d="M29.1744 13.4208C27.4607 12.5576 25.4393 12.5576 23.7256 13.4208" stroke="#45413C" stroke-width="0.1" stroke-linecap="round" stroke-linejoin="round"/>
</svg>
