<svg viewBox="0 0 48 48" xmlns="http://www.w3.org/2000/svg"><path d="M4 21.5a20 20 0 1 0 40 0 20 20 0 1 0 -40 0Z" fill="#ffe500" stroke-width="1"></path><path d="M24 1.5a20 20 0 1 0 20 20 20 20 0 0 0 -20 -20Zm0 37a18.25 18.25 0 1 1 18.25 -18.25A18.25 18.25 0 0 1 24 38.5Z" fill="#ebcb00" stroke-width="1"></path><path d="M18 5.5a6 1.5 0 1 0 12 0 6 1.5 0 1 0 -12 0Z" fill="#fff48c" stroke-width="1"></path><path d="M8 45.5a16 1.5 0 1 0 32 0 16 1.5 0 1 0 -32 0Z" fill="#45413c" opacity=".15" stroke-width="1"></path><path d="M4 21.5a20 20 0 1 0 40 0 20 20 0 1 0 -40 0Z" fill="none" stroke="#45413c" stroke-linecap="round" stroke-linejoin="round" stroke-width="1"></path><path d="M38.5 26.5c0 0.83 -1.12 1.5 -2.5 1.5s-2.5 -0.67 -2.5 -1.5S34.62 25 36 25s2.5 0.67 2.5 1.5Z" fill="#ffaa54" stroke-width="1"></path><path d="M9.5 26.5c0 0.83 1.12 1.5 2.5 1.5s2.5 -0.67 2.5 -1.5S13.38 25 12 25s-2.5 0.67 -2.5 1.5Z" fill="#ffaa54" stroke-width="1"></path><path d="m36.26 18 -3.21 1.61a1 1 0 0 0 0 1.78L36.26 23" fill="none" stroke="#45413c" stroke-linecap="round" stroke-linejoin="round" stroke-width="1"></path><path d="M11.74 18 15 19.61a1 1 0 0 1 0 1.78L11.74 23" fill="none" stroke="#45413c" stroke-linecap="round" stroke-linejoin="round" stroke-width="1"></path><path d="M38.82 44c-3.87 -0.91 -0.16 -5.65 -1.13 -8.27 4.52 1.77 5 9.16 1.13 8.27Z" fill="#00b8f0" stroke-width="1"></path><path d="m37.69 35.7 0.06 0.19c3.18 2.53 3.21 8.18 -0.13 7.5a2.54 2.54 0 0 0 1.2 0.58c3.87 0.92 3.39 -6.47 -1.13 -8.27Z" fill="#4acfff" stroke-width="1"></path><path d="M38.82 44c-3.87 -0.91 -0.16 -5.65 -1.13 -8.27 4.52 1.77 5 9.16 1.13 8.27Z" fill="none" stroke="#45413c" stroke-linecap="round" stroke-linejoin="round" stroke-width="1"></path><path d="M34.11 40.39c-2.81 0.13 -1.2 -3.8 -2.37 -5.39 3.42 0.35 5.17 5.27 2.37 5.39Z" fill="#00b8f0" stroke-width="1"></path><path d="m31.74 35 0.08 0.12c2.65 1.1 3.75 4.92 1.36 5.11a1.83 1.83 0 0 0 0.93 0.16c2.8 -0.12 1.05 -5.04 -2.37 -5.39Z" fill="#4acfff" stroke-width="1"></path><path d="M34.11 40.39c-2.81 0.13 -1.2 -3.8 -2.37 -5.39 3.42 0.35 5.17 5.27 2.37 5.39Z" fill="none" stroke="#45413c" stroke-linecap="round" stroke-linejoin="round" stroke-width="1"></path><path d="m32.5 33.41 -1.79 -1.79a1 1 0 0 0 -1.42 0l-1.58 1.59a1 1 0 0 1 -1.42 0l-1.58 -1.59a1 1 0 0 0 -1.42 0l-1.58 1.59a1 1 0 0 1 -1.42 0l-1.58 -1.59a1 1 0 0 0 -1.42 0l-1.79 1.79" fill="none" stroke="#45413c" stroke-linecap="round" stroke-linejoin="round" stroke-width="1"></path><path d="M22.39 27.08a2.51 2.51 0 0 0 -3.66 -2.21C13.91 27.38 11.51 31.78 5 35.49a2 2 0 0 0 1.13 3.73 1.31 1.31 0 0 1 1 0.4 1.59 1.59 0 0 1 0.25 1.61 2 2 0 0 0 3.15 2 1.37 1.37 0 0 1 1.47 -0.1 1.4 1.4 0 0 1 0.73 1.28A1.94 1.94 0 0 0 16 46c5.5 -5 6.49 -14.4 6.39 -18.92Z" fill="#e8f4fa" stroke-width="1"></path><path d="M4.6 38.68a2 2 0 0 1 0.91 -1.13c6.53 -3.71 8.92 -8.11 13.74 -10.62a2.49 2.49 0 0 1 3.15 0.74l0 -0.59a2.51 2.51 0 0 0 -3.66 -2.21C13.91 27.38 11.51 31.78 5 35.49a2 2 0 0 0 -0.93 2.32 2.11 2.11 0 0 0 0.53 0.87Z" fill="#ffffff" stroke-width="1"></path><path d="M22.39 27.08a2.51 2.51 0 0 0 -3.66 -2.21C13.91 27.38 11.51 31.78 5 35.49a2 2 0 0 0 1.13 3.73 1.31 1.31 0 0 1 1 0.4 1.33 1.33 0 0 1 0.35 1c0 0.18 -0.06 0.38 -0.1 0.57a2 2 0 0 0 3.15 2 1.37 1.37 0 0 1 1.47 -0.06 1.4 1.4 0 0 1 0.73 1.28A1.94 1.94 0 0 0 16 46c5.5 -5 6.49 -14.4 6.39 -18.92Z" fill="none" stroke="#45413c" stroke-linejoin="round" stroke-width="1"></path><path d="M7.14 39.62a24.37 24.37 0 0 0 8.36 -8" fill="none" stroke="#45413c" stroke-linecap="round" stroke-linejoin="round" stroke-width="1"></path><path d="M12 43.13s5.15 -5.16 6 -9.69" fill="none" stroke="#45413c" stroke-linecap="round" stroke-linejoin="round" stroke-width="1"></path></svg>