<svg width="48" height="48" viewBox="0 0 48 48" fill="none" xmlns="http://www.w3.org/2000/svg">
<path d="M4 21.5C4 26.8043 6.10714 31.8914 9.85786 35.6421C13.6086 39.3929 18.6957 41.5 24 41.5C29.3043 41.5 34.3914 39.3929 38.1421 35.6421C41.8929 31.8914 44 26.8043 44 21.5C44 16.1957 41.8929 11.1086 38.1421 7.35786C34.3914 3.60714 29.3043 1.5 24 1.5C18.6957 1.5 13.6086 3.60714 9.85786 7.35786C6.10714 11.1086 4 16.1957 4 21.5Z" fill="#FFE7D9"/>
<path d="M38.5 26.5C38.5 27.33 37.38 28 36 28C34.62 28 33.5 27.33 33.5 26.5C33.5 25.67 34.62 25 36 25C37.38 25 38.5 25.67 38.5 26.5Z" fill="#FFAA54"/>
<path d="M9.5 26.5C9.5 27.33 10.62 28 12 28C13.38 28 14.5 27.33 14.5 26.5C14.5 25.67 13.38 25 12 25C10.62 25 9.5 25.67 9.5 26.5Z" fill="#FFAA54"/>
<path d="M36.2599 18L33.0499 19.61C32.8861 19.6939 32.7486 19.8214 32.6526 19.9784C32.5567 20.1355 32.5059 20.316 32.5059 20.5C32.5059 20.684 32.5567 20.8645 32.6526 21.0216C32.7486 21.1786 32.8861 21.3061 33.0499 21.39L36.2599 23" stroke="#45413C" stroke-width="0.5" stroke-linecap="round" stroke-linejoin="round"/>
<path d="M11.7402 18L15.0002 19.61C15.164 19.6939 15.3015 19.8214 15.3975 19.9784C15.4935 20.1355 15.5443 20.316 15.5443 20.5C15.5443 20.684 15.4935 20.8645 15.3975 21.0216C15.3015 21.1786 15.164 21.3061 15.0002 21.39L11.7402 23" stroke="#45413C" stroke-width="0.5" stroke-linecap="round" stroke-linejoin="round"/>
<path d="M32.5 33.41L30.71 31.62C30.617 31.5263 30.5064 31.4519 30.3846 31.4011C30.2627 31.3504 30.132 31.3242 30 31.3242C29.868 31.3242 29.7373 31.3504 29.6154 31.4011C29.4936 31.4519 29.383 31.5263 29.29 31.62L27.71 33.21C27.617 33.3037 27.5064 33.3781 27.3846 33.4289C27.2627 33.4797 27.132 33.5058 27 33.5058C26.868 33.5058 26.7373 33.4797 26.6154 33.4289C26.4936 33.3781 26.383 33.3037 26.29 33.21L24.71 31.62C24.617 31.5263 24.5064 31.4519 24.3846 31.4011C24.2627 31.3504 24.132 31.3242 24 31.3242C23.868 31.3242 23.7373 31.3504 23.6154 31.4011C23.4936 31.4519 23.383 31.5263 23.29 31.62L21.71 33.21C21.617 33.3037 21.5064 33.3781 21.3846 33.4289C21.2627 33.4797 21.132 33.5058 21 33.5058C20.868 33.5058 20.7373 33.4797 20.6154 33.4289C20.4936 33.3781 20.383 33.3037 20.29 33.21L18.71 31.62C18.617 31.5263 18.5064 31.4519 18.3846 31.4011C18.2627 31.3504 18.132 31.3242 18 31.3242C17.868 31.3242 17.7373 31.3504 17.6154 31.4011C17.4936 31.4519 17.383 31.5263 17.29 31.62L15.5 33.41" stroke="#45413C" stroke-width="0.5" stroke-linecap="round" stroke-linejoin="round"/>
<path d="M22.3899 27.0801C22.3863 26.6514 22.273 26.2308 22.0607 25.8583C21.8485 25.4859 21.5444 25.174 21.1774 24.9524C20.8104 24.7308 20.3928 24.6069 19.9644 24.5925C19.5359 24.5781 19.1109 24.6736 18.7299 24.8701C13.9099 27.3801 11.5099 31.7801 4.99988 35.4901C4.60771 35.7152 4.3034 36.0666 4.13661 36.4869C3.96983 36.9072 3.9504 37.3717 4.08151 37.8044C4.21262 38.2372 4.48653 38.6128 4.85854 38.8699C5.23054 39.127 5.6787 39.2504 6.12988 39.2201C6.31539 39.212 6.50049 39.2436 6.67289 39.3125C6.8453 39.3815 7.00107 39.4863 7.12988 39.6201C7.3129 39.8409 7.43276 40.1072 7.47677 40.3906C7.52079 40.674 7.48731 40.9641 7.37988 41.2301C7.30083 41.626 7.34346 42.0366 7.50219 42.4079C7.66091 42.7791 7.92829 43.0937 8.26916 43.3101C8.61002 43.5265 9.00841 43.6347 9.41192 43.6204C9.81543 43.6061 10.2052 43.47 10.5299 43.2301C10.7399 43.0751 10.9899 42.9833 11.2503 42.9656C11.5107 42.9479 11.7708 43.005 11.9999 43.1301C12.2285 43.2545 12.418 43.4401 12.5469 43.6662C12.6759 43.8923 12.7392 44.1499 12.7299 44.4101C12.6919 44.8039 12.7753 45.1999 12.9688 45.5451C13.1623 45.8902 13.4568 46.1679 13.8126 46.3409C14.1684 46.5139 14.5687 46.574 14.9596 46.5131C15.3506 46.4521 15.7136 46.2731 15.9999 46.0001C21.4999 41.0001 22.4899 31.6001 22.3899 27.0801Z" fill="#E8F4FA"/>
<path d="M4.60002 38.6801C4.75122 38.2028 5.07594 37.7995 5.51002 37.5501C12.04 33.8401 14.43 29.4401 19.25 26.9301C19.7772 26.658 20.3841 26.583 20.9616 26.7187C21.5391 26.8543 22.0492 27.1917 22.4 27.6701V27.0801C22.3964 26.6514 22.2831 26.2308 22.0709 25.8583C21.8586 25.4859 21.5545 25.174 21.1875 24.9524C20.8206 24.7308 20.4029 24.6069 19.9745 24.5925C19.5461 24.5781 19.1211 24.6736 18.74 24.8701C13.91 27.3801 11.51 31.7801 5.00002 35.4901C4.60456 35.7136 4.29701 36.0652 4.12797 36.4869C3.95894 36.9086 3.9385 37.3752 4.07002 37.8101C4.17298 38.139 4.35495 38.4377 4.60002 38.6801Z" fill="white"/>
<path d="M22.3899 27.0801C22.3863 26.6514 22.273 26.2308 22.0607 25.8583C21.8485 25.4859 21.5444 25.174 21.1774 24.9524C20.8104 24.7308 20.3928 24.6069 19.9644 24.5925C19.5359 24.5781 19.1109 24.6736 18.7299 24.8701C13.9099 27.3801 11.5099 31.7801 4.99988 35.4901C4.60771 35.7152 4.3034 36.0666 4.13661 36.4869C3.96983 36.9072 3.9504 37.3717 4.08151 37.8044C4.21262 38.2372 4.48653 38.6128 4.85854 38.8699C5.23054 39.127 5.6787 39.2504 6.12988 39.2201C6.31539 39.212 6.50049 39.2436 6.67289 39.3125C6.8453 39.3815 7.00107 39.4863 7.12988 39.6201C7.25363 39.7539 7.34855 39.9117 7.40875 40.0837C7.46896 40.2557 7.49317 40.4383 7.47988 40.6201C7.47988 40.8001 7.41988 41.0001 7.37988 41.1901C7.30083 41.586 7.34346 41.9966 7.50219 42.3679C7.66091 42.7391 7.92829 43.0537 8.26916 43.2701C8.61002 43.4865 9.00841 43.5947 9.41192 43.5804C9.81543 43.5661 10.2052 43.43 10.5299 43.1901C10.7438 43.0413 10.9958 42.9566 11.2561 42.946C11.5165 42.9354 11.7745 42.9992 11.9999 43.1301C12.2285 43.2545 12.418 43.4401 12.5469 43.6662C12.6759 43.8923 12.7392 44.1499 12.7299 44.4101C12.6919 44.8039 12.7753 45.1999 12.9688 45.5451C13.1623 45.8902 13.4568 46.1679 13.8126 46.3409C14.1684 46.5139 14.5687 46.574 14.9596 46.5131C15.3506 46.4521 15.7136 46.2731 15.9999 46.0001C21.4999 41.0001 22.4899 31.6001 22.3899 27.0801Z" stroke="#45413C" stroke-width="0.1" stroke-linejoin="round"/>
<path d="M7.14014 39.6201C10.5286 37.6633 13.3961 34.9193 15.5001 31.6201" stroke="#45413C" stroke-width="0.1" stroke-linecap="round" stroke-linejoin="round"/>
<path d="M12 43.1299C12 43.1299 17.15 37.9699 18 33.4399" stroke="#45413C" stroke-width="0.1" stroke-linecap="round" stroke-linejoin="round"/>
</svg>
