<svg xmlns="http://www.w3.org/2000/svg" fill="none" viewBox="0 0 14 14" height="14" width="14" id="Calendar-Jump-To-Date--Streamline-Flex.svg"><desc>Calendar Jump To Date Streamline Icon: https://streamlinehq.com</desc><g id="Calendar-Jump-To-Date--Streamline-Flex.svg"><path id="Union" fill="#e1f5fe" fill-rule="evenodd" d="M7.00004 1.98511c-0.50572 0 -1.41687 0.02626 -2.49662 0.10488V0.915283c0 -0.414213 -0.33579 -0.75 -0.75 -0.75 -0.41422 0 -0.75 0.335787 -0.75 0.75l0 1.322217C1.59081 2.50691 0.50735 3.67109 0.382704 5.13714 0.281302 6.3298 0.25 7.41536 0.25 7.91135c0 0.49591 0.031291 1.58026 0.132648 2.77205 0.132933 1.563 1.355692 2.7829 2.905222 2.9411 1.5898 0.1623 3.02514 0.2108 3.71216 0.2108 0.68703 0 2.12237 -0.0485 3.71217 -0.2108 1.5495 -0.1582 2.7723 -1.3781 2.9052 -2.9412 0.1013 -1.19171 0.1326 -2.27605 0.1326 -2.77195 0 -0.49597 -0.0313 -1.58152 -0.1327 -2.77419 -0.1248 -1.46846 -1.2116 -2.63405 -2.6276 -2.90097V0.915283c0 -0.414213 -0.3357 -0.75 -0.75 -0.75 -0.41417 0 -0.74995 0.335787 -0.74995 0.75V2.08949c-1.07673 -0.07823 -1.98508 -0.10438 -2.48971 -0.10438Z" clip-rule="evenodd" stroke-width="1"></path><path id="Union_2" fill="#4fc3f7" fill-rule="evenodd" d="M7.29607 10.3229c-0.21834 -0.1033 -0.35755 -0.32327 -0.35755 -0.56484l0 -1.09765 -2.35063 0c-0.41421 0 -0.75 -0.33579 -0.75 -0.75 0 -0.41422 0.33579 -0.75 0.75 -0.75l2.35063 0 0 -1.09961c0 -0.24157 0.13921 -0.46151 0.35755 -0.56489 0.21833 -0.10337 0.47669 -0.07167 0.66355 0.08143 0.84225 0.69006 1.2777 1.12502 1.93778 1.93819 0.1863 0.22955 0.1863 0.55825 0 0.7878 -0.66008 0.81317 -1.09553 1.24813 -1.93778 1.93817 -0.18686 0.1531 -0.44522 0.1848 -0.66355 0.0814Z" clip-rule="evenodd" stroke-width="1"></path></g></svg>