<svg width="24" height="20" viewBox="0 0 24 20" fill="none" xmlns="http://www.w3.org/2000/svg">
<path d="M5.49545 15.7075C6.43903 15.7075 7.35741 15.8383 8.25058 16.1002C9.14396 16.362 10.0222 16.7547 10.8852 17.2782V3.86404C10.0926 3.23574 9.23289 2.74881 8.30606 2.40324C7.37923 2.05768 6.44236 1.8849 5.49545 1.8849C4.82612 1.8849 4.17003 1.98436 3.52713 2.18334C2.88423 2.38232 2.23693 2.62836 1.58523 2.92159V16.5557C2.13125 16.2624 2.75213 16.0478 3.44787 15.9117C4.14361 15.7755 4.82612 15.7075 5.49545 15.7075ZM12.4705 17.2782C13.3512 16.7547 14.2142 16.362 15.0597 16.1002C15.9051 15.8383 16.8034 15.7075 17.7545 15.7075C18.4239 15.7075 19.1152 15.7703 19.8286 15.896C20.5419 16.0216 21.154 16.1892 21.6648 16.3986V2.92159C21.0659 2.56553 20.4334 2.30378 19.7673 2.13622C19.1011 1.96865 18.4302 1.8849 17.7545 1.8849C16.8034 1.8849 15.8831 2.05768 14.9936 2.40324C14.1041 2.74881 13.2631 3.23574 12.4705 3.86404V17.2782ZM11.6778 19.76C11.5451 19.76 11.4193 19.7443 11.3008 19.7129C11.1823 19.6815 11.079 19.6238 10.9909 19.5401C10.163 18.9327 9.28372 18.4615 8.35283 18.1264C7.42214 17.7913 6.46968 17.6238 5.49545 17.6238C4.85185 17.6238 4.21978 17.718 3.59926 17.9065C2.97873 18.095 2.36023 18.3254 1.74375 18.5976C1.33688 18.828 0.944531 18.7966 0.566719 18.5034C0.188906 18.2102 0 17.7914 0 17.2468V2.70169C0 2.38754 0.0616494 2.09959 0.184943 1.83777C0.308237 1.57596 0.49318 1.37176 0.739773 1.22518C1.47955 0.806315 2.24917 0.497406 3.04866 0.298442C3.84831 0.0994788 4.6639 0 5.49545 0C6.60511 0 7.68397 0.178016 8.73196 0.534054C9.77995 0.890092 10.7619 1.43459 11.6778 2.16763C12.5761 1.43459 13.5405 0.890092 14.5709 0.534054C15.6013 0.178016 16.6625 0 17.7545 0C18.5801 0 19.3897 0.0994788 20.1834 0.298442C20.9772 0.497406 21.744 0.806315 22.4838 1.22518C22.7304 1.37176 22.9197 1.57596 23.0518 1.83777C23.1839 2.09959 23.25 2.38754 23.25 2.70169V17.2468C23.25 17.8309 23.0518 18.2755 22.6555 18.5804C22.2592 18.8851 21.8673 18.8909 21.4798 18.5976C20.881 18.3044 20.2713 18.0688 19.6507 17.8908C19.0302 17.7128 18.3981 17.6238 17.7545 17.6238C16.7987 17.6238 15.8639 17.7913 14.9503 18.1264C14.0368 18.4615 13.175 18.9327 12.3648 19.5401C12.2767 19.6238 12.1734 19.6815 12.0549 19.7129C11.9363 19.7443 11.8106 19.76 11.6778 19.76ZM13.7386 6.03167C13.7386 5.91606 13.774 5.79731 13.8448 5.67542C13.9158 5.55353 13.9949 5.4733 14.0821 5.43479C14.6105 5.20439 15.1507 5.02639 15.7027 4.90073C16.2545 4.77507 16.835 4.71224 17.4441 4.71224C17.8247 4.71224 18.2006 4.73844 18.5717 4.79078C18.9428 4.84312 19.3045 4.92165 19.6568 5.02639C19.7625 5.0683 19.8594 5.14577 19.9474 5.25886C20.0355 5.37177 20.0795 5.49875 20.0795 5.63992C20.0795 5.88012 20.0135 6.06308 19.8814 6.18874C19.7493 6.3144 19.5864 6.34582 19.3926 6.28299C19.0967 6.17825 18.7849 6.09971 18.4573 6.04738C18.1297 5.99504 17.7898 5.96884 17.4375 5.96884C16.9267 5.96884 16.4335 6.02645 15.958 6.14162C15.4824 6.25679 15.0156 6.42957 14.5577 6.65997C14.3111 6.76471 14.1129 6.75943 13.9632 6.64426C13.8135 6.52909 13.7386 6.3249 13.7386 6.03167ZM13.7386 12.943C13.7386 12.8213 13.774 12.6962 13.8448 12.5679C13.9158 12.4397 13.9949 12.3553 14.0821 12.3147C14.6105 12.0843 15.1507 11.9115 15.7027 11.7963C16.2545 11.6811 16.835 11.6235 17.4441 11.6235C17.8247 11.6235 18.2006 11.6497 18.5717 11.7021C18.9428 11.7544 19.3045 11.8329 19.6568 11.9377C19.7625 11.9796 19.8594 12.0571 19.9474 12.1701C20.0355 12.2831 20.0795 12.41 20.0795 12.5512C20.0795 12.7914 20.0135 12.9744 19.8814 13.1C19.7493 13.2257 19.5864 13.2571 19.3926 13.1943C19.0967 13.0895 18.7849 13.011 18.4573 12.9587C18.1297 12.9063 17.7898 12.8801 17.4375 12.8801C16.9267 12.8801 16.4335 12.9325 15.958 13.0372C15.4824 13.1419 15.0156 13.3094 14.5577 13.5398C14.3111 13.6446 14.1129 13.6446 13.9632 13.5398C13.8135 13.4351 13.7386 13.2362 13.7386 12.943ZM13.7386 9.48731C13.7386 9.37171 13.774 9.25296 13.8448 9.13107C13.9158 9.00918 13.9949 8.92894 14.0821 8.89043C14.6105 8.66003 15.1507 8.48203 15.7027 8.35637C16.2545 8.23071 16.835 8.16789 17.4441 8.16789C17.8247 8.16789 18.2006 8.19409 18.5717 8.24642C18.9428 8.29876 19.3045 8.3773 19.6568 8.48203C19.7625 8.52394 19.8594 8.60141 19.9474 8.71451C20.0355 8.82741 20.0795 8.95439 20.0795 9.09557C20.0795 9.33577 20.0135 9.51873 19.8814 9.64439C19.7493 9.77005 19.5864 9.80146 19.3926 9.73863C19.0967 9.6339 18.7849 9.55536 18.4573 9.50302C18.1297 9.45068 17.7898 9.42448 17.4375 9.42448C16.9267 9.42448 16.4335 9.4821 15.958 9.59727C15.4824 9.71243 15.0156 9.88521 14.5577 10.1156C14.3111 10.2203 14.1129 10.2151 13.9632 10.0999C13.8135 9.98474 13.7386 9.78054 13.7386 9.48731Z" fill="black"/>
</svg>
