<svg width="22" height="21" viewBox="0 0 22 21" fill="none" xmlns="http://www.w3.org/2000/svg">
<path d="M10.7103 20.0948C2.49925 20.0948 -0.09421 17.5415 1.40135 12.9248H20.0184C21.5139 17.5415 18.9213 20.0948 10.7103 20.0948Z" stroke="black" stroke-width="1.5" stroke-linejoin="round"/>
<path d="M6.53516 6.56152C8.19204 8.69881 8.77842 10.8542 9.01343 12.8845" stroke="black" stroke-width="1.5" stroke-linecap="round" stroke-linejoin="round"/>
<path d="M2.24076 12.9149C1.33931 11.0026 1.62616 8.79697 2.87559 7.70671C2.68404 7.44078 2.51232 7.15071 2.36532 6.83886C1.3174 4.61586 1.92215 2.12821 3.71607 1.28256C5.50998 0.436915 7.81376 1.55349 8.86167 3.7765C9.00867 4.08835 9.12315 4.40541 9.2064 4.7224C10.695 4.47676 12.3447 5.35983 13.309 6.96129L13.5892 7.50535" stroke="black" stroke-width="1.5" stroke-linecap="round" stroke-linejoin="round"/>
<path d="M11.6804 12.7265H19.5578C19.6811 12.2835 19.7441 11.7886 19.7441 11.2446C19.7441 8.60463 18.2591 7.11963 15.6191 7.11963C12.9791 7.11963 11.4941 8.60463 11.4941 11.2446C11.4941 11.7886 11.5572 12.2835 11.6804 12.7265Z" stroke="black" stroke-width="1.5" stroke-linecap="round" stroke-linejoin="round"/>
</svg>
