<svg width="21" height="21" viewBox="0 0 21 21" fill="none" xmlns="http://www.w3.org/2000/svg">
<path d="M18.8721 8.33769L19.3938 8.8594L20.0283 9.49387C20.106 9.57384 20.1634 9.66041 20.2004 9.76055L19.9843 9.54452L11.4555 1.01568L11.2351 0.795276C11.3379 0.831688 11.4242 0.889758 11.5028 0.968381L12.1148 1.5804L12.6365 2.10211L13.7445 3.21008L14.2748 3.74042L17.2596 6.72515L17.7899 7.25548L18.8721 8.33769ZM20.1881 10.4014C20.1518 10.4854 20.0999 10.5582 20.033 10.6254C20.0325 10.6258 20.0321 10.6263 20.0316 10.6267L17.8188 12.8138L17.8188 12.8138L17.8146 12.818C17.7599 12.8729 17.7019 12.9175 17.6378 12.9517L17.7941 12.7954L19.9843 10.6052L20.1881 10.4014ZM16.7335 12.7954L16.8886 12.9505C16.8247 12.9163 16.7667 12.8717 16.7119 12.8169L14.7279 10.8329L14.1975 10.3025L13.6672 10.8329L10.8329 13.6672L10.3025 14.1975L10.8329 14.7279L12.8136 16.7086C12.8657 16.7623 12.9088 16.819 12.9426 16.8807L12.7954 16.7335L4.26653 8.20464L4.11253 8.05064C4.17656 8.08488 4.23413 8.12915 4.28808 8.18309L6.27213 10.1671L6.80246 10.6975L7.33279 10.1671L10.1671 7.33278L10.6975 6.80245L10.1671 6.27212L8.1831 4.28807L8.18197 4.28695C8.12708 4.23229 8.08246 4.17431 8.04826 4.11015L8.20464 4.26653L16.7335 12.7954ZM12.9734 17.6161C12.9371 17.7001 12.8852 17.7729 12.8182 17.8401C12.8178 17.8406 12.8174 17.841 12.8169 17.8414L10.6041 20.0285L10.6041 20.0285L10.5998 20.0328C10.5452 20.0876 10.4872 20.1323 10.423 20.1665L10.5794 20.0101L12.7954 17.7941L12.9734 17.6161ZM9.51875 20.0101L9.6739 20.1652C9.61 20.131 9.552 20.0864 9.4972 20.0316L7.25873 17.7932L6.73143 17.2533L6.72516 17.2596L3.74042 14.2748L3.74669 14.2686L3.20704 13.7415L0.968368 11.5028L0.967254 11.5017C0.912366 11.447 0.867748 11.389 0.833548 11.3249L0.989915 11.4813L9.51875 20.0101ZM0.971459 10.3959L3.15658 8.1851C3.22438 8.11952 3.29692 8.06844 3.37846 8.03205L3.20587 8.20464L0.989916 10.4206L0.834785 10.5757C0.869022 10.5118 0.913582 10.4538 0.968381 10.399L0.96839 10.399L0.971459 10.3959ZM8.18619 3.18121L10.3713 0.970394C10.4391 0.904808 10.5116 0.853729 10.5932 0.817334L10.3948 1.01568L8.20464 3.20587L8.04949 3.36102C8.08372 3.29712 8.12828 3.23913 8.18308 3.18434L8.18619 3.18121ZM4.65303 19.6709L0.971706 15.9896C0.919562 15.9359 0.876534 15.8792 0.842708 15.8175L0.989915 15.9647L4.88036 19.8551C4.8003 19.8041 4.7249 19.7428 4.65303 19.6709ZM0.989915 14.904L0.811922 15.082C0.848429 14.9975 0.900816 14.9243 0.968381 14.8567L1.57798 14.2471L1.61282 14.2811L0.989915 14.904ZM19.8928 6.21326C19.8362 6.31581 19.7636 6.41069 19.6748 6.5001L19.4111 6.75532L19.3809 6.72515L19.8928 6.21326ZM19.8551 4.88036L16.1187 1.14393C16.1996 1.19573 16.2753 1.25748 16.347 1.3291C16.347 1.32911 16.347 1.32911 16.347 1.32911L19.6709 4.65303C19.7428 4.7249 19.8041 4.80029 19.8551 4.88036ZM14.4741 1.29945C14.5889 1.18552 14.7139 1.09863 14.8548 1.03916L14.2748 1.61909L14.2189 1.56316L14.4741 1.29945ZM6.50403 19.6709C6.41348 19.7614 6.31732 19.8354 6.21327 19.8928L6.71888 19.3872L6.75291 19.422L6.50403 19.6709ZM9.75066 13.6199L10.281 14.1502L10.8113 13.6199L13.6199 10.8113L14.1502 10.281L13.6199 9.75065L11.2494 7.3801L10.719 6.84977L10.1887 7.3801L7.3801 10.1887L6.84977 10.719L7.3801 11.2493L9.75066 13.6199Z" fill="black" stroke="black" stroke-width="1.5"/>
</svg>
