<svg width="20" height="20" viewBox="0 0 20 20" fill="none" xmlns="http://www.w3.org/2000/svg">
<path d="M12.0396 3.27652C12.4468 2.12568 12.9025 1 12.9025 1C14.2454 1.95691 15.4457 3.36882 15.8949 5.37889C15.983 5.77282 15.8724 6.18513 15.5993 6.48228C14.2054 7.99854 12.4598 8.62102 10.8184 8.7783C10.8184 8.7783 10.9977 7.49562 11.2314 6.25764L9.90664 5.90268C8.67442 5.5725 7.35995 5.78085 6.29023 6.47587L6.22852 6.51597L7.0109 5.24916C8.05511 3.55837 10.0847 2.75272 12.0043 3.26706L12.0396 3.27652Z" stroke="black" stroke-width="1.5" stroke-linecap="round" stroke-linejoin="round"/>
<path d="M3.4223 13.8297C2.20528 13.7343 1 13.5854 1 13.5854C1.57676 12.0406 2.62987 10.5157 4.4552 9.56163C4.81292 9.37465 5.23976 9.37464 5.59751 9.5616C7.42288 10.5156 8.47594 12.0406 9.05267 13.5853C9.05267 13.5853 7.76729 13.7441 6.51101 13.8388V15.2103C6.51101 16.486 7.05247 17.7018 8.00068 18.5551L8.05538 18.6043L6.62923 18.1765C4.7258 17.6055 3.4223 15.8535 3.4223 13.8663V13.8297Z" stroke="black" stroke-width="1.5" stroke-linecap="round" stroke-linejoin="round"/>
<path d="M17.5181 16.0462C18.2091 17.0525 18.8511 18.0833 18.8511 18.0833C17.2872 18.6061 15.4394 18.746 13.5497 17.9264C13.1794 17.7658 12.911 17.4338 12.8315 17.0381C12.4257 15.0188 12.9494 13.2412 13.788 11.8215C13.788 11.8215 14.7197 12.7212 15.5832 13.6386L16.6497 12.7763C17.6416 11.9742 18.2466 10.7888 18.3141 9.51489L18.318 9.44141L18.882 10.8194C19.6347 12.6586 19.0919 14.7737 17.5466 16.0231L17.5181 16.0462Z" stroke="black" stroke-width="1.5" stroke-linecap="round" stroke-linejoin="round"/>
</svg>
