<svg width="23" height="22" viewBox="0 0 23 22" fill="none" xmlns="http://www.w3.org/2000/svg">
<path d="M15.1267 1H7.51332L5.62379 4.63582C5.25004 4.66929 4.87844 4.70351 4.50911 4.7374C2.92986 4.88226 1.62983 6.17478 1.39846 7.84057C1.18884 9.34964 1 10.9038 1 12.4911C1 14.0785 1.18884 15.6326 1.39846 17.1417C1.62983 18.8074 2.92986 20.0999 4.50911 20.2448C6.77497 20.4529 9.04387 20.66 11.32 20.66C13.5961 20.66 15.865 20.4529 18.1309 20.2448C19.7101 20.0999 21.0102 18.8074 21.2416 17.1417C21.4511 15.6326 21.64 14.0785 21.64 12.4911C21.64 10.9038 21.4511 9.34964 21.2416 7.84057C21.0102 6.17478 19.7101 4.88226 18.1309 4.7374C17.7593 4.7033 17.3878 4.6691 17.0161 4.63582L15.1267 1Z" stroke="black" stroke-width="1.7" stroke-linecap="round" stroke-linejoin="round"/>
<path d="M11.3187 15.9203C13.6964 15.9203 15.0339 14.4996 15.0339 11.9738C15.0339 9.44808 13.6964 8.02734 11.3187 8.02734C8.94099 8.02734 7.60352 9.44808 7.60352 11.9738C7.60352 14.4996 8.94099 15.9203 11.3187 15.9203Z" stroke="black" stroke-width="1.7" stroke-linecap="round" stroke-linejoin="round"/>
</svg>
