<svg width="14" height="17" viewBox="0 0 14 17" fill="none" xmlns="http://www.w3.org/2000/svg">
<path d="M7 17C5.00207 17 3.33594 16.3214 2.00156 14.9643C0.667187 13.6072 0 11.9181 0 9.89682C0 8.97284 0.211457 8.05605 0.634375 7.1465C1.05731 6.23694 1.58594 5.36347 2.22031 4.52611C2.85469 3.68876 3.54012 2.90551 4.27656 2.17643C5.01301 1.44735 5.70207 0.801274 6.34375 0.238217C6.44582 0.151592 6.55156 0.0902321 6.66094 0.0541401C6.77031 0.0180482 6.88332 0 7 0C7.11668 0 7.22969 0.0180482 7.33906 0.0541401C7.44844 0.0902321 7.55418 0.151592 7.65625 0.238217C8.29793 0.801274 8.98699 1.44735 9.72344 2.17643C10.4599 2.90551 11.1453 3.68876 11.7797 4.52611C12.4141 5.36347 12.9427 6.23694 13.3656 7.1465C13.7886 8.05605 14 8.97284 14 9.89682C14 11.9181 13.3328 13.6072 11.9984 14.9643C10.6641 16.3214 8.99793 17 7 17ZM7 15.7006C8.63332 15.7006 9.98957 15.1484 11.0687 14.0439C12.1479 12.9395 12.6875 11.5571 12.6875 9.89682C12.6875 8.75628 12.2026 7.46051 11.2328 6.00955C10.263 4.5586 8.85207 3.02461 7 1.40764C5.14793 3.02461 3.73699 4.5586 2.76719 6.00955C1.79738 7.46051 1.3125 8.75628 1.3125 9.89682C1.3125 11.5571 1.85207 12.9395 2.93125 14.0439C4.01043 15.1484 5.36668 15.7006 7 15.7006ZM6.97813 14.228C7.21144 14.228 7.39012 14.1883 7.51406 14.1089C7.63801 14.0295 7.7 13.9104 7.7 13.7516C7.7 13.5928 7.63801 13.4701 7.51406 13.3834C7.39012 13.2968 7.20418 13.2535 6.95625 13.2535C6.34375 13.2535 5.72031 13.0622 5.08594 12.6796C4.45156 12.297 4.04688 11.6221 3.87188 10.6548C3.84269 10.5248 3.77707 10.4202 3.675 10.3408C3.57293 10.2614 3.46356 10.2217 3.34687 10.2217C3.18644 10.2217 3.0625 10.283 2.975 10.4057C2.8875 10.5284 2.85832 10.6548 2.8875 10.7847C3.10625 11.9975 3.62394 12.8745 4.44062 13.4159C5.25731 13.9573 6.10313 14.228 6.97813 14.228Z" fill="black"/>
</svg>
