<svg width="14" height="14" viewBox="0 0 14 14" fill="none" xmlns="http://www.w3.org/2000/svg">
<g clip-path="url(#clip0_1243_11)">
<path fill-rule="evenodd" clip-rule="evenodd" d="M11.6013 3.09171C11.5075 2.99797 11.3804 2.94531 11.2478 2.94531C11.1152 2.94531 10.9881 2.99797 10.8943 3.09171L8.6423 5.34371C8.57254 5.41369 8.52507 5.50277 8.5059 5.59971C8.48673 5.69665 8.49672 5.79709 8.53459 5.88836C8.57247 5.97963 8.63654 6.05763 8.71872 6.1125C8.80089 6.16738 8.89748 6.19668 8.9963 6.19671H13.5003C13.5991 6.19668 13.6957 6.16738 13.7779 6.1125C13.8601 6.05763 13.9241 5.97963 13.962 5.88836C13.9999 5.79709 14.0099 5.69665 13.9907 5.59971C13.9715 5.50277 13.9241 5.41369 13.8543 5.34371L11.6013 3.09171ZM8.5343 9.10871C8.57225 9.01746 8.63639 8.9395 8.71861 8.88468C8.80084 8.82986 8.89747 8.80064 8.9963 8.80071H13.5003C13.5991 8.80073 13.6957 8.83003 13.7779 8.88491C13.8601 8.93979 13.9241 9.01778 13.962 9.10905C13.9999 9.20032 14.0099 9.30076 13.9907 9.3977C13.9715 9.49464 13.9241 9.58372 13.8543 9.65371L11.6003 11.9057C11.5065 11.9994 11.3794 12.0521 11.2468 12.0521C11.1142 12.0521 10.9871 11.9994 10.8933 11.9057L8.6423 9.65371C8.57242 9.58373 8.52486 9.4946 8.50563 9.39759C8.48641 9.30058 8.49638 9.20005 8.5343 9.10871Z" fill="#4CAF50"/>
<path fill-rule="evenodd" clip-rule="evenodd" d="M5.584 2.0305C5.584 2.56902 5.37007 3.08549 4.98928 3.46628C4.60849 3.84707 4.09202 4.061 3.5535 4.061C3.01498 4.061 2.49851 3.84707 2.11772 3.46628C1.73693 3.08549 1.523 2.56902 1.523 2.0305C1.523 1.49198 1.73693 0.975512 2.11772 0.59472C2.49851 0.213927 3.01498 0 3.5535 0C4.09202 0 4.60849 0.213927 4.98928 0.59472C5.37007 0.975512 5.584 1.49198 5.584 2.0305ZM6.067 5.9035C6.7329 6.5699 7.10697 7.47342 7.107 8.4155V9.4405C7.107 9.57311 7.05432 9.70028 6.96055 9.79405C6.86678 9.88782 6.73961 9.9405 6.607 9.9405H5.585L5.133 13.5635C5.11787 13.6846 5.05899 13.7959 4.96744 13.8766C4.8759 13.9573 4.75802 14.0017 4.636 14.0015H2.472C2.35015 14.0015 2.23251 13.9569 2.14118 13.8763C2.04985 13.7956 1.99111 13.6844 1.976 13.5635L1.523 9.9405H0.5C0.367392 9.9405 0.240215 9.88782 0.146447 9.79405C0.0526784 9.70028 0 9.57311 0 9.4405V8.4155C0.00022046 7.71269 0.208814 7.02572 0.59941 6.44144C0.990006 5.85716 1.54507 5.40181 2.19442 5.13295C2.84377 4.86409 3.55826 4.79379 4.24756 4.93095C4.93686 5.0681 5.57002 5.40655 6.067 5.9035Z" fill="#D0E8D2"/>
</g>
<defs>
<clipPath id="clip0_1243_11">
<rect width="14" height="14" fill="white"/>
</clipPath>
</defs>
</svg>
