<svg width="14" height="14" viewBox="0 0 14 14" fill="none" xmlns="http://www.w3.org/2000/svg">
<path fill-rule="evenodd" clip-rule="evenodd" d="M6.99936 3.20312C5.73277 3.20312 4.65011 3.59776 3.94805 4.5004C3.30599 5.32591 3.20117 6.31031 3.20117 7.00131C3.20117 7.69231 3.30599 8.67672 3.94805 9.50223C4.65011 10.4049 5.73277 10.7995 6.99936 10.7995C8.26595 10.7995 9.34861 10.4049 10.0507 9.50223C10.6927 8.67672 10.7975 7.69231 10.7975 7.00131C10.7975 6.31031 10.6927 5.32591 10.0507 4.5004C9.34861 3.59776 8.26595 3.20312 6.99936 3.20312Z" fill="#26C6DA"/>
<path fill-rule="evenodd" clip-rule="evenodd" d="M10.7635 7.64336C10.3094 7.82371 9.77735 7.91671 9.17296 7.91671C6.96351 7.91671 5.7207 6.6739 5.7207 4.46446C5.7207 4.05099 5.76423 3.67139 5.84946 3.32744C6.20988 3.24334 6.59543 3.20312 6.99973 3.20312C8.26632 3.20312 9.34898 3.59776 10.051 4.5004C10.6931 5.32591 10.7979 6.31031 10.7979 7.00131C10.7979 7.1955 10.7896 7.41287 10.7635 7.64336Z" fill="#80DEEA"/>
<path fill-rule="evenodd" clip-rule="evenodd" d="M7.00008 0C7.4143 0 7.75008 0.335786 7.75008 0.75V1.27083C7.75008 1.68505 7.4143 2.02083 7.00008 2.02083C6.58587 2.02083 6.25008 1.68505 6.25008 1.27083V0.75C6.25008 0.335786 6.58587 0 7.00008 0ZM3.11098 2.05024C2.81808 1.75734 2.34321 1.75734 2.05032 2.05024C1.75742 2.34313 1.75742 2.818 2.05032 3.1109L2.4186 3.47918C2.7115 3.77207 3.18637 3.77207 3.47926 3.47918C3.77216 3.18629 3.77216 2.71141 3.47926 2.41852L3.11098 2.05024ZM11.5814 10.5209C11.2885 10.228 10.8137 10.228 10.5208 10.5209C10.2279 10.8138 10.2279 11.2887 10.5208 11.5816L10.8891 11.9499C11.182 12.2428 11.6568 12.2428 11.9497 11.9499C12.2426 11.657 12.2426 11.1821 11.9497 10.8892L11.5814 10.5209ZM7.75008 12.729C7.75008 12.3148 7.4143 11.979 7.00008 11.979C6.58587 11.979 6.25008 12.3148 6.25008 12.729V13.2498C6.25008 13.6641 6.58587 13.9998 7.00008 13.9998C7.4143 13.9998 7.75008 13.6641 7.75008 13.2498V12.729ZM14.0001 7C14.0001 7.41421 13.6643 7.75 13.2501 7.75H12.7292C12.315 7.75 11.9792 7.41421 11.9792 7C11.9792 6.58579 12.315 6.25 12.7292 6.25H13.2501C13.6643 6.25 14.0001 6.58579 14.0001 7ZM1.27083 7.75C1.68505 7.75 2.02083 7.41421 2.02083 7C2.02083 6.58579 1.68505 6.25 1.27083 6.25H0.75C0.335786 6.25 4.4e-08 6.58579 0 7C-4.4e-08 7.41421 0.335786 7.75 0.75 7.75H1.27083ZM11.9498 2.05024C12.2427 2.34313 12.2427 2.818 11.9498 3.1109L11.5816 3.47918C11.2887 3.77207 10.8138 3.77207 10.5209 3.47918C10.228 3.18629 10.228 2.71141 10.5209 2.41852L10.8892 2.05024C11.1821 1.75734 11.657 1.75734 11.9498 2.05024ZM3.47939 11.5816C3.77228 11.2887 3.77228 10.8138 3.47939 10.5209C3.18649 10.228 2.71162 10.228 2.41873 10.5209L2.05044 10.8892C1.75755 11.1821 1.75755 11.657 2.05044 11.9499C2.34333 12.2428 2.81821 12.2428 3.1111 11.9499L3.47939 11.5816Z" fill="#80DEEA"/>
</svg>
