<svg width="14" height="14" viewBox="0 0 14 14" fill="none" xmlns="http://www.w3.org/2000/svg">
<path fill-rule="evenodd" clip-rule="evenodd" d="M7.78082 6.21543C7.92127 6.35606 8.00016 6.54668 8.00016 6.74543C8.00016 6.94418 7.92127 7.13481 7.78082 7.27543L1.53082 13.5294C1.38865 13.6619 1.2006 13.734 1.0063 13.7306C0.811999 13.7272 0.626614 13.6485 0.489201 13.5111C0.351788 13.3736 0.273076 13.1883 0.269648 12.994C0.26622 12.7997 0.338343 12.6116 0.470823 12.4694L6.71982 6.21543C6.86045 6.07498 7.05107 5.99609 7.24982 5.99609C7.44857 5.99609 7.6392 6.07498 7.77982 6.21543H7.78082Z" fill="#FFDE7D"/>
<path d="M11.4881 1.0896C12.4631 0.669595 13.4481 1.6096 13.0231 2.5836C12.7545 3.18288 12.4437 3.76234 12.0931 4.3176C12.6501 4.8626 13.0831 5.3166 13.4851 5.7846C14.1801 6.5946 13.5681 7.8136 12.5091 7.6846C12.0031 7.61996 11.5007 7.52918 11.0041 7.4126C10.9048 7.38995 10.8009 7.40094 10.7085 7.44384C10.6162 7.48675 10.5408 7.55913 10.4941 7.6496C10.1874 8.25681 9.8493 8.84761 9.48109 9.4196C8.90809 10.3026 7.57909 10.0896 7.38109 9.0556C7.25609 8.4056 7.19609 7.7356 7.17409 6.8776C6.4578 6.85679 5.7441 6.78191 5.03909 6.6536C3.99909 6.4536 3.76309 5.1136 4.65209 4.5376C5.21353 4.17758 5.79515 3.85004 6.39409 3.5566C6.48635 3.51035 6.56038 3.43441 6.60427 3.341C6.64817 3.2476 6.65937 3.14214 6.63609 3.0416C6.51329 2.52654 6.41915 2.00507 6.35409 1.4796C6.23109 0.433595 7.42909 -0.176405 8.22909 0.509595C8.70909 0.919595 9.17209 1.3696 9.73409 1.9586C10.3048 1.64158 10.8901 1.3516 11.4881 1.0896Z" fill="#FFBF00"/>
</svg>
