<svg width="14" height="14" viewBox="0 0 14 14" fill="none" xmlns="http://www.w3.org/2000/svg">
<path fill-rule="evenodd" clip-rule="evenodd" d="M7 0.25C5.852 0.25 4.731 0.355 3.657 0.475C2.84083 0.568948 2.08062 0.936831 1.50051 1.51858C0.920393 2.10033 0.554651 2.86157 0.463 3.678C0.348 4.747 0.25 5.86 0.25 7C0.25 8.14 0.348 9.253 0.463 10.322C0.554651 11.1384 0.920393 11.8997 1.50051 12.4814C2.08062 13.0632 2.84083 13.4311 3.657 13.525C4.731 13.645 5.852 13.75 7 13.75C8.148 13.75 9.269 13.645 10.343 13.525C11.1592 13.4311 11.9194 13.0632 12.4995 12.4814C13.0796 11.8997 13.4453 11.1384 13.537 10.322C13.652 9.253 13.75 8.14 13.75 7C13.75 5.86 13.652 4.747 13.537 3.678C13.4453 2.86157 13.0796 2.10033 12.4995 1.51858C11.9194 0.936831 11.1592 0.568948 10.343 0.475C9.269 0.355 8.148 0.25 7 0.25Z" fill="#E3F8FF"/>
<path fill-rule="evenodd" clip-rule="evenodd" d="M6.59294 3.32912H7.32294C7.70896 3.3291 8.08744 3.43603 8.41637 3.63805C8.74531 3.84007 9.01183 4.12929 9.18637 4.4736C9.36091 4.8179 9.43663 5.20384 9.40513 5.58857C9.37364 5.97331 9.23615 6.34179 9.00794 6.65312C9.40794 7.05312 9.65594 7.60712 9.65594 8.21712V8.46113C9.65594 9.68113 8.66594 10.6711 7.44594 10.6711H6.47194C6.01476 10.6713 5.56877 10.5297 5.19538 10.2659C4.82198 10.0021 4.53954 9.62908 4.38694 9.19812C4.35223 9.10485 4.33643 9.0056 4.34046 8.90615C4.34449 8.80671 4.36828 8.70906 4.41043 8.6189C4.45258 8.52875 4.51225 8.44788 4.58597 8.38101C4.65969 8.31415 4.74598 8.26262 4.83981 8.22944C4.93364 8.19626 5.03314 8.18209 5.1325 8.18775C5.23187 8.19341 5.32911 8.2188 5.41857 8.26242C5.50803 8.30604 5.58791 8.36703 5.65355 8.44184C5.7192 8.51664 5.7693 8.60376 5.80094 8.69812C5.8501 8.83651 5.9409 8.95627 6.06087 9.04097C6.18084 9.12566 6.32409 9.17113 6.47094 9.17112H7.44494C7.53826 9.17126 7.6307 9.15299 7.71695 9.11737C7.80321 9.08174 7.8816 9.02947 7.94763 8.96352C8.01367 8.89758 8.06606 8.81927 8.1018 8.73306C8.13754 8.64686 8.15594 8.55445 8.15594 8.46113V8.21712C8.15594 8.02882 8.08114 7.84823 7.94799 7.71508C7.81484 7.58193 7.63424 7.50712 7.44594 7.50712H6.95794C6.75903 7.50712 6.56826 7.42811 6.42761 7.28746C6.28696 7.1468 6.20794 6.95604 6.20794 6.75712C6.20794 6.55821 6.28696 6.36745 6.42761 6.22679C6.56826 6.08614 6.75903 6.00712 6.95794 6.00712H7.32394C7.48015 6.00712 7.62997 5.94507 7.74043 5.83461C7.85089 5.72415 7.91294 5.57434 7.91294 5.41813C7.91294 5.26191 7.85089 5.1121 7.74043 5.00164C7.62997 4.89118 7.48015 4.82912 7.32394 4.82912H6.59394C6.4656 4.82898 6.3407 4.87069 6.2382 4.94792C6.1357 5.02516 6.06118 5.13371 6.02594 5.25712C5.96948 5.4459 5.84099 5.60486 5.66827 5.69967C5.49554 5.79448 5.29244 5.8175 5.10287 5.76377C4.91331 5.71004 4.7525 5.58387 4.65521 5.41253C4.55791 5.24119 4.53196 5.03845 4.58294 4.84812C4.70697 4.41058 4.97034 4.02543 5.33309 3.75111C5.69583 3.4768 6.13815 3.32929 6.59294 3.32912Z" fill="#64C2EB"/>
</svg>
