<svg xmlns="http://www.w3.org/2000/svg" fill="none" viewBox="0 0 14 14" id="Number-Three-Square--Streamline-Flex.svg"><desc>Number Three Square Streamline Icon: https://streamlinehq.com</desc><g id="Number-Three-Square--Streamline-Flex.svg"><path id="Union" fill="#e8e5f3" fill-rule="evenodd" d="M7 0.25c-1.148 0 -2.269 0.105 -3.343 0.225A3.632 3.632 0 0 0 0.463 3.678C0.348 4.747 0.25 5.86 0.25 7c0 1.14 0.098 2.253 0.213 3.322a3.632 3.632 0 0 0 3.194 3.203c1.074 0.12 2.195 0.225 3.343 0.225 1.148 0 2.269 -0.105 3.343 -0.225a3.632 3.632 0 0 0 3.194 -3.203c0.115 -1.069 0.213 -2.182 0.213 -3.322 0 -1.14 -0.098 -2.253 -0.213 -3.322A3.632 3.632 0 0 0 10.343 0.475C9.269 0.355 8.148 0.25 7 0.25Z" clip-rule="evenodd" stroke-width="1"></path><path id="Vector (Stroke)" fill="#3d3270" fill-rule="evenodd" d="m6.593 3.329 0.73 0a2.089 2.089 0 0 1 1.685 3.324c0.4 0.4 0.648 0.954 0.648 1.564v0.244c0 1.22 -0.99 2.21 -2.21 2.21l-0.974 0a2.211 2.211 0 0 1 -2.085 -1.473 0.75 0.75 0 1 1 1.414 -0.5 0.711 0.711 0 0 0 0.67 0.473l0.974 0a0.71 0.71 0 0 0 0.711 -0.71l0 -0.244a0.71 0.71 0 0 0 -0.71 -0.71l-0.488 0a0.75 0.75 0 0 1 0 -1.5h0.366a0.589 0.589 0 0 0 0 -1.178l-0.73 0a0.59 0.59 0 0 0 -0.568 0.428 0.75 0.75 0 0 1 -1.443 -0.409 2.09 2.09 0 0 1 2.01 -1.52Z" clip-rule="evenodd" stroke-width="1"></path></g></svg>