<svg xmlns="http://www.w3.org/2000/svg" fill="none" viewBox="0 0 14 14" id="Number-Two-Square--Streamline-Flex.svg"><desc>Number Two Square Streamline Icon: https://streamlinehq.com</desc><g id="Number-Two-Square--Streamline-Flex.svg"><path id="Union" fill="#e8e5f3" fill-rule="evenodd" d="M7 0.25c-1.148 0 -2.269 0.105 -3.343 0.225A3.632 3.632 0 0 0 0.463 3.678C0.348 4.747 0.25 5.86 0.25 7c0 1.14 0.098 2.253 0.213 3.322a3.632 3.632 0 0 0 3.194 3.203c1.074 0.12 2.195 0.225 3.343 0.225 1.148 0 2.269 -0.105 3.343 -0.225a3.632 3.632 0 0 0 3.194 -3.203c0.115 -1.069 0.213 -2.182 0.213 -3.322 0 -1.14 -0.098 -2.253 -0.213 -3.322A3.632 3.632 0 0 0 10.343 0.475C9.269 0.355 8.148 0.25 7 0.25Z" clip-rule="evenodd" stroke-width="1"></path><path id="Vector 4 (Stroke)" fill="#3d3270" fill-rule="evenodd" d="M4.54 4.817c0.278 -0.84 1.049 -1.488 2.003 -1.488h0.949c1.195 0 2.084 1.019 2.084 2.172 0 0.837 -0.465 1.625 -1.232 1.984l-2.032 0.948c-0.217 0.1 -0.388 0.349 -0.388 0.658v0.08h2.902a0.75 0.75 0 0 1 0 1.5H5.174a0.75 0.75 0 0 1 -0.75 -0.75v-0.83c0 -0.85 0.473 -1.653 1.253 -2.017l2.032 -0.949a0.68 0.68 0 0 0 0.367 -0.624c0 -0.417 -0.307 -0.672 -0.584 -0.672h-0.949c-0.238 0 -0.482 0.164 -0.58 0.46a0.75 0.75 0 1 1 -1.423 -0.472Z" clip-rule="evenodd" stroke-width="1"></path></g></svg>