<svg width="14" height="14" viewBox="0 0 14 14" fill="none" xmlns="http://www.w3.org/2000/svg">
<path fill-rule="evenodd" clip-rule="evenodd" d="M7 0.25C5.852 0.25 4.731 0.355 3.657 0.475C2.84083 0.568948 2.08062 0.936831 1.50051 1.51858C0.920393 2.10033 0.554651 2.86157 0.463 3.678C0.348 4.747 0.25 5.86 0.25 7C0.25 8.14 0.348 9.253 0.463 10.322C0.554651 11.1384 0.920393 11.8997 1.50051 12.4814C2.08062 13.0632 2.84083 13.4311 3.657 13.525C4.731 13.645 5.852 13.75 7 13.75C8.148 13.75 9.269 13.645 10.343 13.525C11.1592 13.4311 11.9194 13.0632 12.4995 12.4814C13.0796 11.8997 13.4453 11.1384 13.537 10.322C13.652 9.253 13.75 8.14 13.75 7C13.75 5.86 13.652 4.747 13.537 3.678C13.4453 2.86157 13.0796 2.10033 12.4995 1.51858C11.9194 0.936831 11.1592 0.568948 10.343 0.475C9.269 0.355 8.148 0.25 7 0.25Z" fill="#E3F8FF"/>
<path fill-rule="evenodd" clip-rule="evenodd" d="M4.53983 4.81612C4.81783 3.97612 5.58883 3.32812 6.54283 3.32812H7.49183C8.68683 3.32812 9.57583 4.34712 9.57583 5.50012C9.57583 6.33712 9.11083 7.12513 8.34383 7.48413L6.31183 8.43212C6.09483 8.53212 5.92383 8.78112 5.92383 9.09012V9.17012H8.82583C9.02474 9.17012 9.21551 9.24914 9.35616 9.38979C9.49681 9.53045 9.57583 9.72121 9.57583 9.92012C9.57583 10.119 9.49681 10.3098 9.35616 10.4505C9.21551 10.5911 9.02474 10.6701 8.82583 10.6701H5.17383C4.97492 10.6701 4.78415 10.5911 4.6435 10.4505C4.50285 10.3098 4.42383 10.119 4.42383 9.92012V9.09012C4.42383 8.24012 4.89683 7.43712 5.67683 7.07312L7.70883 6.12413C7.82256 6.06523 7.91734 5.97542 7.98227 5.86502C8.04719 5.75463 8.07963 5.62814 8.07583 5.50012C8.07583 5.08312 7.76883 4.82812 7.49183 4.82812H6.54283C6.30483 4.82812 6.06083 4.99213 5.96283 5.28813C5.93424 5.38448 5.88659 5.4741 5.82268 5.55168C5.75878 5.62925 5.67994 5.69319 5.59084 5.7397C5.50175 5.7862 5.40421 5.81433 5.30403 5.8224C5.20385 5.83047 5.10307 5.81832 5.00768 5.78668C4.91229 5.75504 4.82423 5.70455 4.74873 5.63821C4.67323 5.57186 4.61184 5.49103 4.5682 5.40049C4.52456 5.30996 4.49956 5.21157 4.49468 5.11119C4.48981 5.0108 4.50516 4.91046 4.53983 4.81612Z" fill="#64C2EB"/>
</svg>
