<svg xmlns="http://www.w3.org/2000/svg" fill="none" viewBox="0 0 48 48"><g id="chat-bubble-square-warning--bubble-square-messages-notification-chat-message-warning-alert"><path id="Union" fill="#fbf1dd" d="M24 1.5c-7.403 0-12.592.239-15.857.466-3.265.228-5.862 2.693-6.152 5.993C1.742 10.794 1.5 15.074 1.5 21s.242 10.206.491 13.041c.29 3.3 2.887 5.765 6.152 5.993 1.416.099 3.194.2 5.357.282v4.51c0 2.136 2.505 3.288 4.127 1.898l7.263-6.225c6.93-.018 11.834-.247 14.967-.465 3.265-.228 5.861-2.693 6.152-5.993.249-2.835.491-7.115.491-13.041s-.242-10.206-.491-13.041c-.29-3.3-2.887-5.765-6.152-5.993C36.592 1.74 31.403 1.5 24 1.5Z"></path><path id="Subtract" fill="#ecbe61" fill-rule="evenodd" d="M22.185 8.638A11.537 11.537 0 0 1 24 8.5c.687 0 1.292.055 1.815.138 1.803.287 2.627 2.018 2.478 3.645-.19 2.06-.492 5.022-.823 6.952-.187 1.088-.94 2.052-2.147 2.194-.365.043-.803.071-1.323.071-.52 0-.958-.028-1.323-.07-1.207-.143-1.96-1.107-2.147-2.195-.331-1.93-.634-4.892-.823-6.952-.15-1.627.675-3.358 2.478-3.645ZM20 28.5a4 4 0 1 1 8 0 4 4 0 0 1-8 0Z" clip-rule="evenodd"></path></g></svg>