<svg width="48" height="48" viewBox="0 0 48 48" fill="none" xmlns="http://www.w3.org/2000/svg">
<path d="M0.970215 20.9399C0.970215 35.1946 16.4013 44.1037 28.7462 36.9764C34.4754 33.6686 38.0048 27.5555 38.0048 20.9399C38.0048 6.68529 22.5737 -2.22381 10.2289 4.90349C4.49962 8.21129 0.970215 14.3243 0.970215 20.9399Z" fill="#FFE7D9"/>
<path d="M24.117 28.3252C21.3145 30.1965 17.6609 30.1965 14.8584 28.3252" stroke="#45413C" stroke-width="0.5" stroke-linecap="round"/>
<path d="M32.9145 25.5693C32.9145 26.3343 31.8749 26.9522 30.5999 26.9522C29.3249 26.9522 28.2852 26.3343 28.2852 25.5693C28.2852 24.8043 29.315 24.1765 30.5999 24.1765C31.8848 24.1765 32.9145 24.7944 32.9145 25.5693Z" fill="#FFAA54"/>
<path d="M6.06055 25.5693C6.06055 26.3343 7.10015 26.9522 8.37525 26.9522C9.65035 26.9522 10.6898 26.3343 10.6898 25.5693C10.6898 24.8043 9.70905 24.1765 8.37525 24.1765C7.04145 24.1765 6.06055 24.7944 6.06055 25.5693Z" fill="#FFAA54"/>
<path d="M29.6682 19.5471L27.8145 21.8618L31.9829 20.9398" stroke="#45413C" stroke-width="0.5" stroke-linecap="round" stroke-linejoin="round"/>
<path d="M9.76803 20.94C9.69453 21.6535 8.87623 22.0199 8.29503 21.5995C8.08003 21.4439 7.94153 21.2041 7.91433 20.94C7.84083 20.2266 8.56723 19.7011 9.22193 19.9941C9.58903 20.1585 9.80923 20.5399 9.76803 20.94Z" fill="#45413C" stroke="#45413C" stroke-width="0.5" stroke-linecap="round" stroke-linejoin="round"/>
<path d="M46.7732 21.3616C46.753 21.5349 46.6557 21.6899 46.5084 21.7833C46.3544 21.8619 46.172 21.8619 46.018 21.7833L41.2219 19.91C40.8208 19.7763 40.7149 19.2585 41.0313 18.978C41.1224 18.8972 41.2378 18.849 41.3592 18.841L46.4005 18.2427C46.5701 18.2218 46.7399 18.2796 46.8615 18.3996C46.9788 18.5194 47.0394 18.6835 47.0282 18.8508L46.7732 21.3616Z" fill="white" stroke="#45413C" stroke-width="0.1" stroke-linejoin="round"/>
<path d="M46.1358 11.2988C46.0849 11.1327 45.9571 11.0012 45.7925 10.9457C45.6257 10.8864 45.4408 10.9082 45.2923 11.0045L41.016 13.8586C40.6914 14.1411 40.7943 14.6691 41.2012 14.8091C41.2584 14.8287 41.3185 14.839 41.3789 14.8394L46.43 14.3392C46.6007 14.3264 46.7561 14.236 46.8517 14.094C46.9382 13.9493 46.9596 13.7748 46.9106 13.6134L46.1358 11.2988Z" fill="white" stroke="#45413C" stroke-width="0.1" stroke-linejoin="round"/>
<path d="M40.4372 4.87465C40.2939 4.77515 40.1119 4.74975 39.9468 4.80595C39.7823 4.85965 39.652 4.98635 39.5937 5.14925L37.9067 10.0533C37.8253 10.2952 37.9181 10.5616 38.1323 10.7006C38.3466 10.8448 38.6323 10.8203 38.8189 10.6417L42.5361 7.18935C42.6657 7.07725 42.7317 6.90845 42.7126 6.73815C42.7035 6.57145 42.6162 6.41875 42.4772 6.32625L40.4372 4.87465Z" fill="white" stroke="#45413C" stroke-width="0.1" stroke-linejoin="round"/>
</svg>
