<svg viewBox="0 0 48 48" xmlns="http://www.w3.org/2000/svg"><path d="M4 21.5a20 20 0 1 0 40 0 20 20 0 1 0 -40 0Z" fill="#ffe500" stroke-width="1"></path><path d="M24 1.5a20 20 0 1 0 20 20 20 20 0 0 0 -20 -20Zm0 37a18.25 18.25 0 1 1 18.25 -18.25A18.25 18.25 0 0 1 24 38.5Z" fill="#ebcb00" stroke-width="1"></path><path d="M18 5.5a6 1.5 0 1 0 12 0 6 1.5 0 1 0 -12 0Z" fill="#fff48c" stroke-width="1"></path><path d="M4 21.5a20 20 0 1 0 40 0 20 20 0 1 0 -40 0Z" fill="none" stroke="#45413c" stroke-linecap="round" stroke-linejoin="round" stroke-width="1"></path><path d="M8 45.5a16 1.5 0 1 0 32 0 16 1.5 0 1 0 -32 0Z" fill="#45413c" opacity=".15" stroke-width="1"></path><path d="M40 26.5c0 0.83 -1.12 1.5 -2.5 1.5s-2.5 -0.67 -2.5 -1.5 1.12 -1.5 2.5 -1.5 2.5 0.67 2.5 1.5Z" fill="#ffaa54" stroke-width="1"></path><path d="M8 26.5c0 0.83 1.12 1.5 2.5 1.5s2.5 -0.67 2.5 -1.5 -1.12 -1.5 -2.5 -1.5 -2.5 0.67 -2.5 1.5Z" fill="#ffaa54" stroke-width="1"></path><path d="M16.47 27.93c0.5 8 5.09 11 6.85 12a1.37 1.37 0 0 0 1.36 0c1.76 -1 6.35 -3.92 6.85 -12a1.37 1.37 0 0 0 -1.38 -1.45h-12.3a1.37 1.37 0 0 0 -1.38 1.45Z" fill="#ffb0ca" stroke="#45413c" stroke-linecap="round" stroke-linejoin="round" stroke-width="1"></path><path d="M24 33c0 -1.5 4.5 -1.06 4.5 0.5V40a4.5 4.5 0 0 1 -9 0v-6.5c0 -1.56 4.5 -2 4.5 -0.5Z" fill="#ff6242" stroke-width="1"></path><path d="M24 33c0 -1.5 -4.5 -1.06 -4.5 0.5v2c0 -1.56 9 -1.56 9 0v-2c0 -1.56 -4.5 -2 -4.5 -0.5Z" fill="#ff866e" stroke-width="1"></path><path d="M24 33c0 -1.5 4.5 -1.06 4.5 0.5V40a4.5 4.5 0 0 1 -9 0v-6.5c0 -1.56 4.5 -2 4.5 -0.5Z" fill="none" stroke="#45413c" stroke-linecap="round" stroke-linejoin="round" stroke-width="1"></path><path d="m36.26 18 -3.21 1.61a1 1 0 0 0 0 1.78L36.26 23" fill="none" stroke="#45413c" stroke-linecap="round" stroke-linejoin="round" stroke-width="1"></path><path d="M11.74 18 15 19.61a1 1 0 0 1 0 1.78L11.74 23" fill="none" stroke="#45413c" stroke-linecap="round" stroke-linejoin="round" stroke-width="1"></path></svg>