<svg width="48" height="48" viewBox="0 0 48 48" fill="none" xmlns="http://www.w3.org/2000/svg">
<path d="M4 21.5C4 26.8043 6.10714 31.8914 9.85786 35.6421C13.6086 39.3929 18.6957 41.5 24 41.5C29.3043 41.5 34.3914 39.3929 38.1421 35.6421C41.8929 31.8914 44 26.8043 44 21.5C44 16.1957 41.8929 11.1086 38.1421 7.35786C34.3914 3.60714 29.3043 1.5 24 1.5C18.6957 1.5 13.6086 3.60714 9.85786 7.35786C6.10714 11.1086 4 16.1957 4 21.5Z" fill="#FFE7D9"/>
<path d="M40 26.5C40 27.33 38.88 28 37.5 28C36.12 28 35 27.33 35 26.5C35 25.67 36.12 25 37.5 25C38.88 25 40 25.67 40 26.5Z" fill="#FFAA54"/>
<path d="M8 26.5C8 27.33 9.12 28 10.5 28C11.88 28 13 27.33 13 26.5C13 25.67 11.88 25 10.5 25C9.12 25 8 25.67 8 26.5Z" fill="#FFAA54"/>
<path d="M16.4701 27.93C16.9701 35.93 21.5601 38.93 23.3201 39.93C23.5272 40.0484 23.7616 40.1107 24.0001 40.1107C24.2386 40.1107 24.473 40.0484 24.6801 39.93C26.4401 38.93 31.0301 36.01 31.5301 27.93C31.5411 27.7427 31.5134 27.555 31.4489 27.3788C31.3843 27.2026 31.2842 27.0415 31.1549 26.9055C31.0255 26.7695 30.8695 26.6616 30.6967 26.5884C30.5238 26.5152 30.3378 26.4783 30.1501 26.48H17.8501C17.6624 26.4783 17.4764 26.5152 17.3036 26.5884C17.1307 26.6616 16.9748 26.7695 16.8454 26.9055C16.716 27.0415 16.6159 27.2026 16.5514 27.3788C16.4868 27.555 16.4591 27.7427 16.4701 27.93Z" fill="#FFB0CA"/>
<path d="M24 32.9999C24 31.4999 28.5 31.9399 28.5 33.4999V39.9999C28.5 41.1934 28.0259 42.338 27.182 43.1819C26.3381 44.0258 25.1935 44.4999 24 44.4999C22.8065 44.4999 21.6619 44.0258 20.818 43.1819C19.9741 42.338 19.5 41.1934 19.5 39.9999V33.4999C19.5 31.9399 24 31.4999 24 32.9999Z" fill="#FF6242"/>
<path d="M24 32.9999C24 31.4999 19.5 31.9399 19.5 33.4999V35.4999C19.5 33.9399 28.5 33.9399 28.5 35.4999V33.4999C28.5 31.9399 24 31.4999 24 32.9999Z" fill="#FF866E"/>
<path d="M36.2599 18L33.0499 19.61C32.8861 19.6939 32.7486 19.8214 32.6526 19.9784C32.5567 20.1355 32.5059 20.316 32.5059 20.5C32.5059 20.684 32.5567 20.8645 32.6526 21.0216C32.7486 21.1786 32.8861 21.3061 33.0499 21.39L36.2599 23" stroke="#45413C" stroke-width="0.5" stroke-linecap="round" stroke-linejoin="round"/>
<path d="M11.7402 18L15.0002 19.61C15.164 19.6939 15.3015 19.8214 15.3975 19.9784C15.4935 20.1355 15.5443 20.316 15.5443 20.5C15.5443 20.684 15.4935 20.8645 15.3975 21.0216C15.3015 21.1786 15.164 21.3061 15.0002 21.39L11.7402 23" stroke="#45413C" stroke-width="0.5" stroke-linecap="round" stroke-linejoin="round"/>
</svg>
