<svg width="36" height="36" viewBox="0 0 36 36" fill="none" xmlns="http://www.w3.org/2000/svg">
<path fill-rule="evenodd" clip-rule="evenodd" d="M34.2097 32.222C34.1529 33.2429 33.7074 34.2033 32.9646 34.9059C32.2218 35.6085 31.2381 36 30.2157 36H5.78368C4.76122 36 3.77756 35.6085 3.03476 34.9059C2.29196 34.2033 1.84643 33.2429 1.78968 32.222L0.234681 4.222C0.204494 3.67893 0.285382 3.1354 0.472399 2.62465C0.659417 2.1139 0.948635 1.64666 1.32237 1.25149C1.69611 0.856313 2.14652 0.541515 2.64605 0.326334C3.14559 0.111154 3.68377 0.00011351 4.22768 3.41388e-09H31.7717C32.3157 -2.24707e-05 32.854 0.110918 33.3536 0.326038C33.8533 0.541158 34.3038 0.855936 34.6776 1.25112C35.0515 1.64631 35.3408 2.1136 35.5279 2.62442C35.715 3.13523 35.7959 3.67884 35.7657 4.222L34.2097 32.222ZM28.2437 11.779C29.0637 11.239 29.2697 10.168 28.5967 9.471C27.4551 8.29301 26.121 7.31837 24.6517 6.589C22.6116 5.5771 20.3707 5.03484 18.0937 5.002C15.8146 4.96422 13.5558 5.4364 11.4827 6.384C9.98799 7.06695 8.6202 7.99887 7.43768 9.14C6.74068 9.816 6.90768 10.892 7.70868 11.458L12.0207 14.504C12.8207 15.07 13.9487 14.887 14.7777 14.359C14.9915 14.2233 15.2144 14.1024 15.4447 13.997C16.1807 13.6603 16.9793 13.4821 17.7887 13.474L21.1817 9.573C21.3557 9.37276 21.6021 9.24984 21.8667 9.23127C21.9977 9.22208 22.1293 9.23878 22.2538 9.28043C22.3784 9.32208 22.4935 9.38785 22.5927 9.474C22.6918 9.56015 22.773 9.66498 22.8317 9.78251C22.8903 9.90004 22.9252 10.028 22.9344 10.159C22.9436 10.29 22.9269 10.4216 22.8853 10.5461C22.8436 10.6707 22.7778 10.7859 22.6917 10.885L20.0597 13.91C20.4162 14.0575 20.7566 14.2411 21.0757 14.458C21.8857 15.011 23.0057 15.228 23.8257 14.688L28.2437 11.779Z" fill="#7986CB"/>
</svg>
